<svg version="1.1" id="Layer_1" xmlns="http://www.w3.org/2000/svg" xmlns:xlink="http://www.w3.org/1999/xlink" x="0px" y="0px"
	 width="100%" viewBox="0 0 512 512" enable-background="new 0 0 512 512" xml:space="preserve">
<path fill="#000000" opacity="1.000000" stroke="none" 
	d="
M345.000000,0.999996 
	C400.976227,1.000000 456.952423,1.000000 512.964355,1.000000 
	C512.964355,171.570404 512.964355,342.140839 512.964355,513.000000 
	C399.311493,513.000000 285.622711,513.000000 171.154877,512.656982 
	C173.893326,511.404724 177.403732,510.466766 180.929626,509.591034 
	C198.438660,505.242249 214.773178,498.388123 229.223846,487.051331 
	C229.410614,487.001617 229.784424,486.903992 229.943726,487.100952 
	C230.403305,487.426697 230.703568,487.555511 231.299072,487.900421 
	C237.002579,490.370483 242.234299,493.400696 247.863983,494.681213 
	C254.843994,496.268890 262.196625,496.517670 269.057220,493.429230 
	C272.212646,492.008728 275.106750,488.928925 278.228485,488.771881 
	C282.624878,488.550720 285.457184,486.331085 288.421082,484.013367 
	C296.598297,477.618866 302.981812,469.512848 308.875824,461.104340 
	C313.609711,454.350861 317.638580,447.102875 321.967651,440.066528 
	C322.312103,439.506592 322.952789,438.730591 322.789978,438.317444 
	C320.763947,433.176422 326.229248,430.529938 326.833923,426.015503 
	C327.395355,421.823975 330.616974,418.021545 332.466309,413.956390 
	C333.443848,411.807556 333.992950,409.463867 334.776703,407.082947 
	C353.206604,410.603668 371.183807,413.581421 389.468140,411.916473 
	C398.942963,411.053711 408.611847,410.300781 417.712067,407.769257 
	C436.244690,402.613739 450.426147,391.744141 455.076752,372.075287 
	C456.662964,365.366486 455.654114,358.044067 455.894043,350.555695 
	C456.275848,342.839050 457.494507,335.471558 456.722107,328.319092 
	C455.210571,314.322296 450.053650,301.346771 443.329956,289.039551 
	C448.181519,285.274139 452.698273,281.630585 457.558411,277.995972 
	C459.281433,276.706665 460.661133,275.408447 462.354431,273.986633 
	C465.110596,271.288574 467.553223,268.714111 470.339417,266.074554 
	C471.474823,265.037506 472.266663,264.065521 473.381165,262.961975 
	C475.445526,260.679138 477.325592,258.624451 478.906708,256.360931 
	C490.118744,240.309784 498.015533,223.004105 500.108551,203.218323 
	C501.902893,186.256134 501.449432,169.515335 497.452850,152.919022 
	C493.252930,135.478104 486.723236,118.962166 477.812378,103.371544 
	C466.570251,83.702034 452.853943,66.026283 435.878998,50.525227 
	C429.745453,45.220570 424.125275,39.630310 417.635376,35.362659 
	C407.070129,28.415133 395.936462,22.332041 384.887146,15.555498 
	C372.373291,9.846234 359.840332,5.022718 346.422729,2.909702 
	C345.862122,2.821420 345.470398,1.660953 345.000000,0.999996 
z"/>
<path fill="#000000" opacity="1.000000" stroke="none" 
	d="
M124.000000,513.000000 
	C83.019165,513.000000 42.038322,513.000000 1.028743,513.000000 
	C1.028743,342.432251 1.028743,171.864517 1.028743,1.000000 
	C100.021233,1.000000 199.042770,1.000000 298.834686,1.336917 
	C298.787201,2.114563 298.017670,2.755656 297.144318,2.966563 
	C278.079437,7.570451 259.746002,13.847208 243.975586,25.981918 
	C244.014160,25.989561 244.025909,25.911787 243.835205,26.002953 
	C243.365509,26.220205 243.198669,26.433809 242.755157,26.834076 
	C239.072250,28.289284 235.511108,29.215691 232.526810,31.070271 
	C211.183212,44.334160 198.689529,64.609879 188.968536,86.953293 
	C185.249420,95.501564 181.930023,104.223732 178.500885,112.687912 
	C161.153839,109.602058 144.067596,107.207611 126.537338,107.803497 
	C114.216476,108.222282 102.303993,109.701149 90.767044,113.975380 
	C70.592873,121.449562 56.485683,137.878021 57.026756,161.151764 
	C57.157059,166.756638 57.571556,172.354919 57.523781,178.223541 
	C55.831116,193.865005 59.511757,208.313904 66.469887,221.753113 
	C72.043060,232.517349 78.877518,242.628571 84.987991,253.356812 
	C81.753311,255.483047 78.682861,257.282074 75.254883,259.048767 
	C66.043549,261.629303 58.796066,266.214600 54.741463,275.135376 
	C42.043144,286.679657 32.203640,299.890839 24.790031,315.282806 
	C12.678104,340.429260 10.707396,366.818726 14.262579,393.686523 
	C16.714943,412.219940 23.299068,429.745819 32.957054,445.991516 
	C41.293083,460.013580 51.521584,472.360657 64.317085,482.987183 
	C68.044449,485.864441 71.129059,489.214081 74.920547,491.242401 
	C84.767159,496.510071 94.924515,501.196899 105.131531,506.459106 
	C111.230423,508.216766 117.164696,509.595703 123.062668,511.115509 
	C123.507446,511.230133 123.693619,512.348328 124.000000,513.000000 
M123.078247,44.022469 
	C119.720177,47.185371 115.950005,50.035976 113.202499,53.661568 
	C112.069275,55.156952 112.580788,58.524620 113.380280,60.651218 
	C113.969040,62.217293 116.240135,63.150902 117.886238,64.465919 
	C117.246094,65.183472 116.610062,65.893631 115.977066,66.606468 
	C113.411247,69.495880 113.200302,72.634995 115.937286,75.301247 
	C118.961685,78.247475 121.834694,76.809662 124.365799,74.136543 
	C126.194603,72.205124 127.930893,70.114693 130.036148,68.530724 
	C135.025085,64.777092 133.446671,60.448578 129.023758,57.981979 
	C128.229492,57.539028 127.585846,56.825958 127.911942,57.094971 
	C128.657669,52.935795 129.732086,49.698528 129.509201,46.553188 
	C129.439896,45.574886 125.856537,44.845581 123.078247,44.022469 
z"/>
<path fill="#DFDDF9" opacity="1.000000" stroke="none" 
	d="
M344.541931,0.999996 
	C345.470398,1.660953 345.862122,2.821420 346.422729,2.909702 
	C359.840332,5.022718 372.373291,9.846234 384.875305,16.031406 
	C385.012634,44.710461 385.031189,72.585030 384.956543,100.459351 
	C384.949982,102.901909 384.331879,105.342827 383.535858,107.856705 
	C370.517578,109.087631 357.896698,109.786812 345.423828,111.539200 
	C333.831238,113.167923 333.900696,113.662361 331.249817,101.735062 
	C331.630005,96.867386 331.737244,92.271729 331.946960,87.351288 
	C339.814667,76.307083 339.155304,65.378723 333.021118,53.936283 
	C333.777252,51.664318 334.905762,49.760735 334.884705,47.869976 
	C334.710266,32.245304 334.322876,16.623013 334.000000,1.000000 
	C337.361298,1.000000 340.722565,1.000000 344.541931,0.999996 
z"/>
<path fill="#F6DCF1" opacity="1.000000" stroke="none" 
	d="
M124.468658,513.000000 
	C123.693619,512.348328 123.507446,511.230133 123.062668,511.115509 
	C117.164696,509.595703 111.230423,508.216766 105.143211,505.983215 
	C104.987473,475.888031 105.017464,446.612244 104.956787,417.336700 
	C104.951698,414.885101 104.336617,412.434753 104.442245,409.987701 
	C106.037086,410.019165 107.215950,409.913391 108.348915,410.094604 
	C123.238281,412.475555 138.119019,413.485992 152.995392,410.011963 
	C152.996262,410.017822 152.988968,410.042419 153.144791,410.372742 
	C153.866699,413.109985 154.432785,415.516907 154.629639,417.979034 
	C152.538177,419.743530 149.961090,421.173737 149.290939,423.226471 
	C148.244186,426.432800 146.766418,428.086029 143.551468,429.192963 
	C141.460892,429.912750 139.946381,432.305664 138.173767,433.948975 
	C139.870270,435.655457 141.280029,438.053375 143.331436,438.904022 
	C146.300690,440.135315 148.400925,441.297058 149.225861,444.755280 
	C149.697861,446.734070 151.687500,448.350830 153.053925,450.507141 
	C153.742676,454.075745 154.931961,457.272186 154.906815,460.459045 
	C154.768646,477.973969 154.333328,495.486603 154.000000,513.000000 
	C144.312439,513.000000 134.624878,513.000000 124.468658,513.000000 
z"/>
<path fill="#F1DCF3" opacity="1.000000" stroke="none" 
	d="
M154.467606,513.000000 
	C154.333328,495.486603 154.768646,477.973969 154.906815,460.459045 
	C154.931961,457.272186 153.742676,454.075745 153.440369,450.459900 
	C156.921402,450.011993 158.702499,448.474396 159.137238,445.311157 
	C159.619812,441.799866 161.388885,439.437347 165.150436,439.066345 
	C168.284592,438.757202 170.586639,437.021698 169.841309,433.968781 
	C169.379105,432.075562 167.134766,429.794373 165.241898,429.251709 
	C161.730667,428.245117 159.988419,426.507324 158.969101,423.053894 
	C158.398743,421.121582 156.370316,419.619659 154.998886,417.923828 
	C154.432785,415.516907 153.866699,413.109985 153.599243,410.363525 
	C160.772064,409.122345 167.673080,408.382355 174.508850,407.248932 
	C177.800766,406.703125 179.777893,407.134064 180.865326,410.703949 
	C182.312469,415.454712 184.160858,420.098907 186.078674,424.687866 
	C194.645691,445.187347 204.549530,464.845764 221.481903,480.004333 
	C224.055450,482.308319 226.521362,484.732483 229.037064,487.101044 
	C214.773178,498.388123 198.438660,505.242249 180.929626,509.591034 
	C177.403732,510.466766 173.893326,511.404724 170.687897,512.656982 
	C165.645065,513.000000 160.290146,513.000000 154.467606,513.000000 
z"/>
<path fill="#E4DCF7" opacity="1.000000" stroke="none" 
	d="
M333.531342,1.000000 
	C334.322876,16.623013 334.710266,32.245304 334.884705,47.869976 
	C334.905762,49.760735 333.777252,51.664318 332.726898,53.762154 
	C324.363068,44.482174 314.436127,40.774158 302.463531,44.295658 
	C299.211395,45.252205 297.396637,44.769623 295.118500,42.461418 
	C286.649902,33.881107 276.837830,27.165428 264.673065,25.622437 
	C257.885132,24.761454 250.856934,25.794657 243.937012,25.974274 
	C259.746002,13.847208 278.079437,7.570451 297.144318,2.966563 
	C298.017670,2.755656 298.787201,2.114563 299.302551,1.336917 
	C310.354218,1.000000 321.708466,1.000000 333.531342,1.000000 
z"/>
<path fill="#2929BD" opacity="1.000000" stroke="none" 
	d="
M243.975586,25.981918 
	C250.856934,25.794657 257.885132,24.761454 264.673065,25.622437 
	C276.837830,27.165428 286.649902,33.881107 295.118500,42.461418 
	C297.396637,44.769623 299.211395,45.252205 302.463531,44.295658 
	C314.436127,40.774158 324.363068,44.482174 332.566467,54.136482 
	C339.155304,65.378723 339.814667,76.307083 331.652039,87.533157 
	C326.962616,90.812836 326.685822,94.351768 329.203735,98.483269 
	C329.885773,99.602417 330.390686,100.829521 330.976898,102.007080 
	C333.900696,113.662361 333.831238,113.167923 345.423828,111.539200 
	C357.896698,109.786812 370.517578,109.087631 383.993500,107.938156 
	C402.544739,108.082207 419.455872,111.172668 435.116272,120.418518 
	C447.367737,128.896484 454.895721,140.080185 455.945801,154.728027 
	C456.473022,162.082336 455.322540,169.556915 454.691467,177.253235 
	C451.173553,190.993652 444.713196,203.051239 437.639618,215.158829 
	C429.279510,226.341278 421.185303,237.320175 412.063507,249.692856 
	C413.434418,250.602081 415.221130,251.787079 417.111023,253.289734 
	C419.112549,255.788177 421.010925,257.968994 423.024323,260.463776 
	C429.757935,270.238953 436.376556,279.700165 442.995148,289.161377 
	C450.053650,301.346771 455.210571,314.322296 456.722107,328.319092 
	C457.494507,335.471558 456.275848,342.839050 455.563538,350.636597 
	C451.507874,358.109161 447.845825,365.054413 444.097168,371.664307 
	C442.931671,371.460114 441.636322,371.254242 440.812622,371.783020 
	C437.794128,373.720917 435.121735,376.257599 431.980286,377.934174 
	C414.978394,387.007965 396.651794,389.300171 377.703217,387.997986 
	C365.608429,387.166779 353.520813,386.230743 341.284302,385.331055 
	C341.045776,385.871002 340.548706,386.996277 340.036072,387.728729 
	C338.933990,385.951569 337.847412,384.567230 336.760834,383.182922 
	C335.641205,384.228149 334.025391,385.062897 333.478912,386.351227 
	C328.132874,398.954498 323.126556,411.703644 317.665619,424.255493 
	C315.554077,429.108734 312.526978,433.563599 309.595215,438.271057 
	C308.514587,439.198517 307.671967,439.994934 307.009766,440.920441 
	C299.836853,450.945404 291.195862,459.598053 280.532867,465.669067 
	C269.869507,471.740356 258.043091,473.042053 245.817566,470.493652 
	C236.836212,466.808014 228.045715,463.022461 221.518234,455.965088 
	C214.336334,448.200073 207.876236,439.767487 201.045563,431.292694 
	C193.400238,415.204346 185.811035,399.449066 177.860504,382.943604 
	C177.074554,383.120239 175.034042,383.578827 172.577454,384.002197 
	C171.176086,384.117767 170.186630,384.245605 169.206146,384.422913 
	C150.277374,387.845917 131.256546,389.311951 112.086266,386.869781 
	C95.872459,384.804291 81.272972,378.993073 68.983475,367.523346 
	C65.680656,361.435120 62.439167,355.682617 59.168644,349.512085 
	C56.314411,337.648590 57.745930,326.327179 60.387592,314.791931 
	C61.841316,310.721558 64.482605,306.686188 58.990829,303.475647 
	C52.337833,294.531158 52.343246,285.024872 55.089455,275.147797 
	C58.796066,266.214600 66.043549,261.629303 75.576439,259.225647 
	C81.190834,259.665222 86.126152,259.895538 91.355392,259.959900 
	C94.341934,255.910797 97.034554,252.027649 99.821144,247.796265 
	C93.605827,239.616272 87.296539,231.784515 80.992371,223.976318 
	C80.997482,223.999863 81.041664,224.019104 81.017769,223.695023 
	C80.341995,222.618164 79.690109,221.865387 78.836678,220.828583 
	C77.552811,219.547684 76.006790,218.755692 75.461662,217.521561 
	C71.148903,207.757919 67.075500,197.888870 62.819908,188.099457 
	C61.320694,184.650726 59.518959,181.333496 57.855354,177.956223 
	C57.571556,172.354919 57.157059,166.756638 57.026756,161.151764 
	C56.485683,137.878021 70.592873,121.449562 90.767044,113.975380 
	C102.303993,109.701149 114.216476,108.222282 126.537338,107.803497 
	C144.067596,107.207611 161.153839,109.602058 178.500885,112.687912 
	C181.930023,104.223732 185.249420,95.501564 188.968536,86.953293 
	C198.689529,64.609879 211.183212,44.334160 232.526810,31.070271 
	C235.511108,29.215691 239.072250,28.289284 242.972763,26.777863 
	C243.906509,26.497734 244.055420,26.260830 244.025909,25.911787 
	C244.025909,25.911787 244.014160,25.989561 243.975586,25.981918 
M208.111145,77.178505 
	C209.589569,75.586906 211.068008,73.995300 212.336212,73.289635 
	C211.162857,79.833527 209.989502,86.377419 208.353210,93.537041 
	C207.906876,95.728958 207.460526,97.920868 206.351151,100.318764 
	C203.573456,105.991440 200.795776,111.664124 198.029800,117.312897 
	C201.007019,118.304665 203.466843,119.124084 206.526093,120.394836 
	C222.399963,126.286095 238.259338,132.217178 254.170670,138.005508 
	C255.721222,138.569595 257.784058,138.794907 259.285217,138.263153 
	C278.216064,131.557327 297.087311,124.683304 316.748199,117.872025 
	C319.278442,117.142670 321.808716,116.413315 324.851837,115.536125 
	C322.486206,109.130409 320.258606,103.098473 317.925659,96.781258 
	C306.323242,99.428459 296.928497,95.977730 288.844757,87.207222 
	C284.422852,81.567848 282.874725,75.029778 283.080963,67.275383 
	C283.988342,64.175056 284.895721,61.074741 286.210968,57.417149 
	C287.491730,55.498512 288.772522,53.579872 290.227509,51.400238 
	C287.535095,48.998760 285.074249,46.504562 282.317932,44.396694 
	C269.752106,34.787037 256.115692,31.448011 241.287064,38.615589 
	C229.800323,44.167820 220.894943,52.671669 214.218033,64.305321 
	C211.789108,68.518570 209.360184,72.731819 206.348312,77.304436 
	C206.245422,78.061752 206.142548,78.819069 205.868622,80.835350 
	C206.851837,78.964653 207.212448,78.278534 208.111145,77.178505 
M184.000000,217.000000 
	C184.000000,217.000000 184.067947,217.059235 183.414978,216.596924 
	C180.315186,218.552094 177.115814,220.373306 174.182968,222.553101 
	C173.413742,223.124832 173.471085,224.808731 172.880966,226.679703 
	C172.024689,228.723801 170.392227,230.783142 170.432083,232.809616 
	C170.834091,253.250870 171.478424,273.687836 172.183868,294.121521 
	C172.228271,295.407288 173.007217,297.207947 174.022644,297.839630 
	C191.491730,308.707397 209.051849,319.428864 227.040726,330.729736 
	C229.648834,332.108734 232.256943,333.487701 234.831802,334.849091 
	C235.417587,334.371002 235.825104,334.100647 236.157898,333.757782 
	C248.171265,321.381744 263.582825,320.665741 276.279175,332.188904 
	C279.286743,334.918610 281.479218,334.122955 284.700256,331.913727 
	C302.679779,320.906647 320.686523,309.943268 338.588104,298.810822 
	C340.048492,297.902649 341.674683,295.873108 341.733093,294.308960 
	C342.483124,274.227356 342.961548,254.135590 343.707550,233.314789 
	C343.514465,231.861603 343.321350,230.408417 343.282593,228.113770 
	C343.165710,226.412231 343.048798,224.710693 343.103394,222.093216 
	C342.700470,215.344849 342.441589,208.582291 341.779083,201.859497 
	C341.638306,200.431366 340.026001,199.148270 338.722626,197.246170 
	C334.056946,194.045532 329.554535,190.568680 324.694794,187.696442 
	C310.541138,179.331299 296.244507,171.208008 281.603760,162.431198 
	C277.768982,160.554459 273.934174,158.677734 269.637238,156.293823 
	C266.484985,154.795364 263.397919,153.128769 260.152374,151.871094 
	C258.585693,151.264008 256.471924,150.796066 255.039200,151.362000 
	C251.208038,152.875336 247.611176,154.981827 243.205490,156.951538 
	C239.469177,158.964752 235.732864,160.977951 231.289719,163.082809 
	C221.770401,168.432617 212.220367,173.729218 202.763214,179.186768 
	C201.258972,180.054810 200.172333,181.646469 198.176071,182.930145 
	C192.120316,186.799591 186.029312,190.615311 180.020187,194.555878 
	C175.400757,197.585129 174.050797,202.192368 176.017136,208.037781 
	C177.766434,206.764954 179.373734,205.391739 181.165985,204.331039 
	C185.829208,201.571228 190.573608,198.948608 195.355072,197.038223 
	C193.787903,200.972916 192.220734,204.907593 190.200134,209.300064 
	C188.726456,211.155701 187.252792,213.011353 185.056885,215.012085 
	C184.727615,215.694397 184.398346,216.376694 184.000000,217.000000 
M217.703323,158.900208 
	C221.134903,156.931473 224.566483,154.962738 228.717209,152.917191 
	C233.763901,150.394165 238.810593,147.871124 244.843826,144.854889 
	C236.993958,141.851181 230.449677,139.152252 223.769348,136.847809 
	C217.575775,134.711288 211.236801,132.996277 204.200684,130.978607 
	C201.549515,130.202209 198.929382,129.269043 196.230286,128.734848 
	C195.291687,128.549088 193.516342,129.072189 193.223053,129.748535 
	C191.887299,132.828857 190.943207,136.079025 189.781525,139.493835 
	C194.732529,140.712387 199.291306,141.834396 204.020020,143.468094 
	C204.076263,143.638779 204.132507,143.809479 204.064667,144.847977 
	C203.659836,147.901001 203.255005,150.954041 202.062607,153.985870 
	C196.915985,152.625305 191.769379,151.264725 186.217545,149.797028 
	C183.680893,160.393570 181.269135,170.468430 178.534363,181.892609 
	C187.163788,176.326721 194.546585,171.564911 202.563416,167.253540 
	C207.379135,164.509354 212.194855,161.765167 217.703323,158.900208 
M124.318855,240.015015 
	C121.390167,242.504135 118.461487,244.993271 115.150032,247.807724 
	C117.416847,249.945023 119.163086,251.591476 121.163116,253.839066 
	C123.416656,255.936218 125.670197,258.033356 128.225632,260.720764 
	C138.866653,269.917511 149.507675,279.114258 160.514999,288.627625 
	C160.514999,269.410034 160.514999,251.367813 160.514999,232.551086 
	C158.388245,233.327209 157.205276,233.758926 155.223877,234.071838 
	C149.532837,235.113785 143.841812,236.155731 138.218460,236.500198 
	C143.707199,232.056503 148.912979,227.186890 154.769165,223.296280 
	C159.982788,219.832581 162.017548,215.713074 160.516357,209.035385 
	C147.783905,218.594116 135.524094,228.185745 124.318855,240.015015 
M299.885101,373.309113 
	C293.927948,371.254578 287.970825,369.200043 281.321106,366.743896 
	C280.398865,367.221863 279.253326,367.492188 278.587341,368.208435 
	C265.369934,382.423737 249.112366,382.461670 235.519043,368.357025 
	C234.749252,367.558289 233.180695,367.529358 231.244095,367.164246 
	C217.428497,371.668640 203.612915,376.173065 189.330551,380.829651 
	C190.702652,384.514343 192.129059,388.344879 193.727402,392.901245 
	C195.036575,395.969391 196.345749,399.037506 197.813965,402.833374 
	C203.420135,416.198303 210.353302,428.812378 219.794647,439.861816 
	C228.886047,450.501709 239.169128,459.439423 254.858963,460.972504 
	C272.413116,460.679138 284.518402,450.680054 294.906128,438.040344 
	C303.802673,427.215088 310.597961,415.055878 316.245667,401.444458 
	C317.483490,398.259705 318.721283,395.074982 320.285614,391.231018 
	C321.521759,387.721161 322.757904,384.211304 323.998291,380.689362 
	C315.912415,378.392731 308.089966,376.170898 299.885101,373.309113 
M307.686249,364.205963 
	C314.223999,366.188293 320.761719,368.170624 327.638336,370.255737 
	C330.037415,360.135651 332.362244,350.476379 334.569275,340.790222 
	C334.789673,339.822937 334.293823,338.692474 334.495483,336.954407 
	C335.618805,332.631073 336.742096,328.307709 338.099121,323.197693 
	C338.710999,319.203033 339.322876,315.208374 340.062347,310.380707 
	C338.004333,311.641388 336.761505,312.406708 335.514862,313.165771 
	C322.054840,321.361267 308.999725,330.356964 294.982544,337.451752 
	C286.495331,341.747528 281.975037,346.386658 284.259125,356.683228 
	C288.463257,358.199524 292.667419,359.715820 297.421509,361.706604 
	C300.616547,362.425354 303.811554,363.144135 307.686249,364.205963 
M393.716705,252.941132 
	C395.696381,251.734680 397.676056,250.528244 399.655731,249.321793 
	C399.335663,248.519943 399.015594,247.718094 398.695526,246.916229 
	C383.732758,233.719406 368.770020,220.522583 353.807251,207.325760 
	C353.367065,207.652634 352.926910,207.979507 352.486725,208.306381 
	C352.756897,212.196609 353.027100,216.086838 353.161469,220.833588 
	C353.435333,224.888184 353.709198,228.942780 353.838043,233.925766 
	C353.838043,251.786819 353.838043,269.647858 353.838043,288.557434 
	C364.725922,278.948425 375.395508,269.532135 386.674347,259.846924 
	C388.812134,257.640900 390.949921,255.434860 393.716705,252.941132 
M178.547180,338.909180 
	C180.924332,349.339722 183.301498,359.770264 185.927078,371.290863 
	C196.588989,367.794617 206.391144,364.580322 216.974701,361.334351 
	C221.262253,359.549500 225.549820,357.764618 229.920105,355.058136 
	C229.908936,353.068817 229.481659,350.969971 229.970718,349.112335 
	C231.089005,344.864746 228.976166,343.126434 225.601593,341.169769 
	C209.838287,332.029755 194.254425,322.580139 178.611877,313.232117 
	C177.267975,312.429016 175.963913,311.559235 173.786346,310.178192 
	C174.721039,315.859283 175.471024,320.417603 176.128372,325.776031 
	C176.903320,329.869080 177.678268,333.962128 178.547180,338.909180 
M297.470276,159.491074 
	C309.995789,167.060104 322.521271,174.629135 335.423370,182.763107 
	C336.763092,183.551468 338.102844,184.339844 339.442566,185.128204 
	C339.853607,184.903503 340.264648,184.678802 340.675690,184.454102 
	C336.674652,164.816238 332.673645,145.178375 328.590607,125.138062 
	C325.085052,126.110573 323.029236,126.680893 320.224274,127.262268 
	C303.187164,131.976074 286.463287,137.554779 269.372742,145.154861 
	C275.560883,148.074661 280.780426,150.537445 286.403015,153.555054 
	C289.936310,155.367950 293.469574,157.180847 297.470276,159.491074 
M120.741600,267.388184 
	C118.416023,265.276123 116.090446,263.164093 113.487511,260.457153 
	C112.084381,258.687469 110.681252,256.917755 108.984535,254.777740 
	C107.124565,257.101135 106.023926,258.476013 104.323563,260.191376 
	C102.680969,262.226562 101.038368,264.261719 99.972565,265.582275 
	C102.619156,270.790619 104.974663,275.426117 107.406235,280.977020 
	C109.250771,289.504669 106.754082,297.010895 101.413841,304.315704 
	C93.419434,313.165100 83.474930,315.569000 71.798836,312.795929 
	C68.218956,323.191986 66.234848,333.398346 68.749084,344.880859 
	C70.970146,355.918060 77.780235,363.509064 87.290398,368.781891 
	C100.239746,375.961517 114.420731,377.922150 129.919510,378.000641 
	C143.275757,376.639404 156.631989,375.278137 170.779922,373.985199 
	C172.513458,373.586975 174.246994,373.188751 174.865067,373.046783 
	C170.860855,349.601898 166.955505,326.626373 162.947800,303.668701 
	C162.786682,302.745789 161.656311,301.992096 160.538071,300.636688 
	C147.366928,289.754822 134.195770,278.872925 120.741600,267.388184 
M69.443726,150.178497 
	C69.309242,150.748215 69.174751,151.317947 68.909920,152.727509 
	C68.621681,157.171295 68.158043,161.615997 68.181107,166.058167 
	C68.186218,167.043213 69.909203,168.019348 70.963013,169.804932 
	C70.728752,172.045364 69.644394,174.637527 70.401634,176.467728 
	C74.537849,186.464813 78.240646,196.807800 83.781136,206.015762 
	C90.936913,217.908249 99.685959,228.842056 107.683655,240.096848 
	C108.703987,239.533997 108.879944,239.482971 108.991425,239.368927 
	C125.047546,222.943298 142.200897,207.793884 160.895096,194.403351 
	C162.015991,193.600464 162.698273,191.716827 162.942261,190.230621 
	C165.355087,175.533447 167.632126,160.813965 170.263611,145.389420 
	C170.841553,142.265350 171.419479,139.141296 172.402557,135.361786 
	C173.462936,131.358353 174.523300,127.354935 175.687515,122.959488 
	C174.027130,122.959488 172.837341,123.150551 171.729019,122.930794 
	C155.438568,119.700813 139.093323,117.804337 122.399033,118.879753 
	C111.945595,119.553146 101.791481,121.171394 92.267914,125.430855 
	C81.354362,130.311996 72.843895,137.694443 70.003105,149.999680 
	C70.003105,149.999680 70.006126,149.954422 69.443726,150.178497 
M432.087891,295.239014 
	C432.054047,293.828125 432.562164,292.055237 431.900085,291.063965 
	C426.886993,283.558502 421.644501,276.206238 416.173401,268.181793 
	C414.101318,265.792084 412.029236,263.402374 409.727264,260.374725 
	C408.382355,258.799316 407.037476,257.223907 405.375946,255.277542 
	C403.437408,257.455261 401.833740,259.256805 399.613464,261.335205 
	C397.403046,263.554688 395.192657,265.774170 392.375275,268.269104 
	C379.257172,279.230591 366.139038,290.192047 352.310547,301.433990 
	C350.663544,310.224762 349.016541,319.015503 347.300262,328.175995 
	C349.174927,327.989990 349.993347,327.908783 350.947174,328.729095 
	C348.871704,343.689331 346.796234,358.649536 344.709808,373.688782 
	C345.970032,373.915863 347.401245,374.266388 348.853363,374.420746 
	C360.277344,375.634857 371.683228,377.265289 383.140656,377.823029 
	C389.616791,378.138245 396.226959,376.969452 402.693542,375.944275 
	C415.708191,373.880920 427.792633,369.864319 437.060669,359.571899 
	C443.389832,352.543152 445.994019,344.927216 441.569275,336.314056 
	C435.404968,324.314728 428.606049,312.641418 422.080414,300.479858 
	C422.080414,300.479858 422.078033,300.130371 422.675415,299.769501 
	C425.564087,298.259186 428.452759,296.748901 432.087891,295.239014 
M445.255676,151.240112 
	C445.047821,150.265228 444.931366,149.259903 444.618469,148.319992 
	C439.695374,133.531799 428.157410,126.262184 414.184021,122.107880 
	C395.954803,116.688324 377.358032,117.187866 358.744934,119.593719 
	C351.762695,120.496223 344.835632,121.825462 337.584351,123.008965 
	C338.989380,128.045944 340.147583,132.198013 341.386017,137.148972 
	C342.159882,140.116943 342.933777,143.084915 343.736298,146.894852 
	C346.117065,161.661133 348.423706,176.440262 350.980713,191.175964 
	C351.271271,192.850494 352.680115,194.630081 354.059387,195.768509 
	C363.681274,203.710098 373.614441,211.282608 383.084290,219.397705 
	C390.770416,225.984283 397.949829,233.162201 405.637268,240.342484 
	C419.946686,224.319260 432.615570,207.324921 440.573151,187.289810 
	C442.754486,181.797714 443.694824,175.812683 445.676117,169.369125 
	C445.551849,163.594498 445.427582,157.819885 445.255676,151.240112 
M321.244965,83.829422 
	C327.320312,78.384666 329.411072,71.764900 326.455597,64.066628 
	C323.822479,57.208092 318.433929,53.597656 311.187347,53.056873 
	C303.944427,52.516369 296.937683,57.150124 294.259552,63.887699 
	C291.493713,70.845856 293.601715,79.004021 299.390991,83.746727 
	C305.600372,88.833618 312.952423,89.006493 321.244965,83.829422 
M82.979462,269.347076 
	C75.724068,268.713409 69.917145,271.264038 65.979286,277.446777 
	C62.486835,282.930206 62.339672,288.731445 65.247253,294.513428 
	C68.723015,301.425354 76.757599,305.226562 84.045593,303.562592 
	C92.154106,301.711243 97.841782,294.919464 97.976151,286.927734 
	C98.118706,278.449219 92.914108,272.085175 82.979462,269.347076 
M251.818863,367.977600 
	C252.465393,368.130310 253.107330,368.306976 253.759155,368.432068 
	C260.807404,369.784760 267.935486,366.650208 271.741821,360.532776 
	C275.429901,354.605408 275.010254,346.439484 270.731873,340.879303 
	C266.330566,335.159363 258.938507,332.787018 252.035324,334.878998 
	C245.197983,336.950989 240.383362,342.800690 239.842346,349.693237 
	C239.193680,357.957703 242.735382,363.664795 251.818863,367.977600 
M205.277130,80.766304 
	C204.490204,81.515564 203.703278,82.264816 202.916351,83.014076 
	C203.206787,83.237640 203.497223,83.461197 203.787659,83.684761 
	C204.233124,82.939461 204.678604,82.194160 205.277130,80.766304 
z"/>
<path fill="#D5DEFD" opacity="1.000000" stroke="none" 
	d="
M454.930725,176.977097 
	C455.322540,169.556915 456.473022,162.082336 455.945801,154.728027 
	C454.895721,140.080185 447.367737,128.896484 435.287689,120.026031 
	C435.517975,117.406097 435.963745,115.456650 435.968506,113.506119 
	C436.019745,92.615349 436.001221,71.724411 436.001831,50.833523 
	C452.853943,66.026283 466.570251,83.702034 477.812378,103.371544 
	C486.723236,118.962166 493.252930,135.478104 497.452850,152.919022 
	C501.449432,169.515335 501.902893,186.256134 500.108551,203.218323 
	C498.015533,223.004105 490.118744,240.309784 478.906708,256.360931 
	C477.325592,258.624451 475.445526,260.679138 473.329895,262.583008 
	C471.321594,260.312012 470.051056,257.199524 467.972595,256.505005 
	C464.313995,255.282471 462.581940,253.515869 461.599915,249.837616 
	C461.127350,248.067703 458.402618,245.525375 457.016388,245.711105 
	C455.167816,245.958740 452.855286,248.230774 452.131622,250.155716 
	C450.917114,253.386169 449.572479,255.425293 445.962860,256.466522 
	C443.974945,257.039978 441.680115,259.683716 441.339844,261.700500 
	C441.123566,262.982483 444.191254,264.882568 445.877594,266.404358 
	C447.740265,268.085236 450.907043,269.367920 451.368683,271.327484 
	C452.221619,274.948273 454.176758,276.724426 457.215057,277.987030 
	C452.698273,281.630585 448.181519,285.274139 443.329956,289.039551 
	C436.376556,279.700165 429.757935,270.238953 423.172058,260.144043 
	C426.006805,255.632263 428.860565,251.790314 431.601654,247.869598 
	C441.714050,233.405106 450.864349,218.316010 454.315094,200.812027 
	C455.830475,193.125336 454.803406,184.937424 454.930725,176.977097 
z"/>
<path fill="#DBDDFB" opacity="1.000000" stroke="none" 
	d="
M435.878998,50.525227 
	C436.001221,71.724411 436.019745,92.615349 435.968506,113.506119 
	C435.963745,115.456650 435.517975,117.406097 435.105530,119.748535 
	C419.455872,111.172668 402.544739,108.082207 384.455475,107.865952 
	C384.331879,105.342827 384.949982,102.901909 384.956543,100.459351 
	C385.031189,72.585030 385.012634,44.710461 385.030823,16.360048 
	C395.936462,22.332041 407.070129,28.415133 417.635376,35.362659 
	C424.125275,39.630310 429.745453,45.220570 435.878998,50.525227 
z"/>
<path fill="#2929B8" opacity="1.000000" stroke="none" 
	d="
M309.916992,438.199951 
	C312.526978,433.563599 315.554077,429.108734 317.665619,424.255493 
	C323.126556,411.703644 328.132874,398.954498 333.478912,386.351227 
	C334.025391,385.062897 335.641205,384.228149 336.760834,383.182922 
	C337.847412,384.567230 338.933990,385.951569 340.015625,388.125702 
	C339.439667,391.445404 338.868652,393.975342 338.277466,396.594574 
	C359.806946,400.975922 381.475342,403.509369 403.309052,399.891296 
	C421.047546,396.951874 436.865784,390.527924 444.183777,371.999695 
	C447.845825,365.054413 451.507874,358.109161 455.500427,351.082947 
	C455.654114,358.044067 456.662964,365.366486 455.076752,372.075287 
	C450.426147,391.744141 436.244690,402.613739 417.712067,407.769257 
	C408.611847,410.300781 398.942963,411.053711 389.468140,411.916473 
	C371.183807,413.581421 353.206604,410.603668 334.776703,407.082947 
	C333.992950,409.463867 333.443848,411.807556 332.466309,413.956390 
	C330.616974,418.021545 327.395355,421.823975 326.833923,426.015503 
	C326.229248,430.529938 320.763947,433.176422 322.789978,438.317444 
	C322.952789,438.730591 322.312103,439.506592 321.967651,440.066528 
	C317.638580,447.102875 313.609711,454.350861 308.875824,461.104340 
	C302.981812,469.512848 296.598297,477.618866 288.421082,484.013367 
	C285.457184,486.331085 282.624878,488.550720 278.228485,488.771881 
	C275.106750,488.928925 272.212646,492.008728 269.057220,493.429230 
	C262.196625,496.517670 254.843994,496.268890 247.863983,494.681213 
	C242.234299,493.400696 237.002579,490.370483 231.290985,487.579742 
	C230.961334,486.615387 230.935028,486.187836 231.050201,485.477844 
	C232.831192,483.597900 234.470688,482.000366 236.403305,480.281586 
	C237.088989,480.006714 237.481552,479.853088 238.210968,479.893677 
	C243.623718,481.709564 248.618591,484.234131 253.798294,484.698914 
	C258.971588,485.163116 264.345184,483.659821 269.597443,482.811401 
	C271.090149,482.570282 272.465729,481.604156 274.122467,480.875641 
	C274.639801,480.602478 274.849792,480.356140 274.988739,480.006531 
	C274.997589,479.971375 275.069061,479.983582 275.238770,479.910736 
	C275.626587,479.711060 275.798920,479.538452 276.222870,479.121704 
	C279.300262,476.934723 282.080231,474.946106 285.100739,472.854370 
	C285.551392,472.479126 285.761505,472.207001 285.980316,471.966675 
	C285.989014,471.998505 285.928192,471.972961 286.156860,471.860901 
	C286.577362,471.475494 286.769196,471.202148 287.083496,470.640137 
	C288.169250,469.551941 289.132538,468.752472 290.293457,467.836975 
	C290.729401,467.512238 290.887451,467.254364 291.038605,466.713470 
	C291.299774,466.179871 291.569733,466.013245 292.152802,465.864746 
	C292.581329,465.473938 292.778961,465.198181 293.117676,464.609161 
	C294.715210,462.835693 296.350647,461.512054 297.591125,459.886932 
	C300.232056,456.427124 302.955475,452.974823 305.103333,449.210327 
	C307.077148,445.750885 308.340576,441.886139 309.916992,438.199951 
z"/>
<path fill="#DBC9ED" opacity="1.000000" stroke="none" 
	d="
M236.110168,480.402832 
	C234.470688,482.000366 232.831192,483.597900 230.793777,485.589905 
	C230.192047,486.290894 229.988251,486.597443 229.784439,486.903992 
	C229.784424,486.903992 229.410614,487.001617 229.223846,487.051331 
	C226.521362,484.732483 224.055450,482.308319 221.481903,480.004333 
	C204.549530,464.845764 194.645691,445.187347 186.078674,424.687866 
	C184.160858,420.098907 182.312469,415.454712 180.865326,410.703949 
	C179.777893,407.134064 177.800766,406.703125 174.508850,407.248932 
	C167.673080,408.382355 160.772064,409.122345 153.443420,410.033203 
	C152.988968,410.042419 152.996262,410.017822 152.996155,409.615601 
	C152.997971,406.478821 152.999908,403.744293 153.412079,400.993378 
	C161.160553,399.616425 168.498779,398.255890 176.163559,396.834778 
	C174.957581,391.966248 173.975555,388.001862 172.993530,384.037445 
	C175.034042,383.578827 177.074554,383.120239 177.860504,382.943604 
	C185.811035,399.449066 193.400238,415.204346 201.025696,431.696228 
	C201.093124,432.927277 200.983475,433.486084 201.175812,433.906891 
	C208.461945,449.846771 217.739105,464.317017 231.630814,475.434601 
	C233.348892,476.809570 234.627762,478.733368 236.110168,480.402832 
z"/>
<path fill="#FE80B9" opacity="1.000000" stroke="none" 
	d="
M457.558411,277.995972 
	C454.176758,276.724426 452.221619,274.948273 451.368683,271.327484 
	C450.907043,269.367920 447.740265,268.085236 445.877594,266.404358 
	C444.191254,264.882568 441.123566,262.982483 441.339844,261.700500 
	C441.680115,259.683716 443.974945,257.039978 445.962860,256.466522 
	C449.572479,255.425293 450.917114,253.386169 452.131622,250.155716 
	C452.855286,248.230774 455.167816,245.958740 457.016388,245.711105 
	C458.402618,245.525375 461.127350,248.067703 461.599915,249.837616 
	C462.581940,253.515869 464.313995,255.282471 467.972595,256.505005 
	C470.051056,257.199524 471.321594,260.312012 473.007233,262.714539 
	C472.266663,264.065521 471.474823,265.037506 469.953339,266.057068 
	C464.058838,266.287292 461.593903,268.892426 462.040833,274.110229 
	C460.661133,275.408447 459.281433,276.706665 457.558411,277.995972 
z"/>
<path fill="#DBDAF9" opacity="1.000000" stroke="none" 
	d="
M462.354401,273.986633 
	C461.593903,268.892426 464.058838,266.287292 469.609802,266.122131 
	C467.553223,268.714111 465.110596,271.288574 462.354401,273.986633 
z"/>
<path fill="#2828B8" opacity="1.000000" stroke="none" 
	d="
M229.943756,487.100952 
	C229.988251,486.597443 230.192047,486.290894 230.652283,485.872314 
	C230.935028,486.187836 230.961334,486.615387 230.995728,487.363647 
	C230.703568,487.555511 230.403305,487.426697 229.943756,487.100952 
z"/>
<path fill="#FEDBED" opacity="1.000000" stroke="none" 
	d="
M60.131989,315.033600 
	C57.745930,326.327179 56.314411,337.648590 58.847904,349.795624 
	C58.369427,351.786346 58.130310,353.070374 58.004112,354.365387 
	C56.950886,365.173279 58.992947,375.378937 63.738327,385.283386 
	C63.640442,389.669312 63.969513,393.768555 63.975948,397.868286 
	C64.020393,426.197968 63.997597,454.527771 63.996407,482.857513 
	C51.521584,472.360657 41.293083,460.013580 32.957054,445.991516 
	C23.299068,429.745819 16.714943,412.219940 14.262579,393.686523 
	C10.707396,366.818726 12.678104,340.429260 24.790031,315.282806 
	C32.203640,299.890839 42.043144,286.679657 54.741463,275.135376 
	C52.343246,285.024872 52.337833,294.531158 58.959427,303.902496 
	C59.399536,308.113800 55.602757,312.011322 60.131989,315.033600 
z"/>
<path fill="#FADBEF" opacity="1.000000" stroke="none" 
	d="
M64.317078,482.987183 
	C63.997597,454.527771 64.020393,426.197968 63.975948,397.868286 
	C63.969513,393.768555 63.640442,389.669312 64.032013,385.442169 
	C70.040619,392.030731 75.699867,398.631927 83.739166,402.253174 
	C90.319939,405.217438 97.236984,407.435120 104.004944,409.983826 
	C104.336617,412.434753 104.951698,414.885101 104.956787,417.336700 
	C105.017464,446.612244 104.987473,475.888031 104.969543,505.639618 
	C94.924515,501.196899 84.767159,496.510071 74.920547,491.242401 
	C71.129059,489.214081 68.044449,485.864441 64.317078,482.987183 
z"/>
<path fill="#2929B8" opacity="1.000000" stroke="none" 
	d="
M57.523781,178.223541 
	C59.518959,181.333496 61.320694,184.650726 62.819908,188.099457 
	C67.075500,197.888870 71.148903,207.757919 75.461662,217.521561 
	C76.006790,218.755692 77.552811,219.547684 78.825928,221.206909 
	C79.691711,222.585892 80.366692,223.302505 81.041664,224.019104 
	C81.041664,224.019104 80.997482,223.999863 80.792053,224.326019 
	C85.735802,232.706635 90.884979,240.761108 95.670807,248.897156 
	C92.541115,250.334091 89.774773,251.689438 86.698944,253.040833 
	C85.977043,253.034485 85.564629,253.032043 85.152222,253.029617 
	C78.877518,242.628571 72.043060,232.517349 66.469887,221.753113 
	C59.511757,208.313904 55.831116,193.865005 57.523781,178.223541 
z"/>
<path fill="#FF7EB8" opacity="1.000000" stroke="none" 
	d="
M123.480072,44.012379 
	C125.856537,44.845581 129.439896,45.574886 129.509201,46.553188 
	C129.732086,49.698528 128.657669,52.935795 127.911942,57.094971 
	C127.585846,56.825958 128.229492,57.539028 129.023758,57.981979 
	C133.446671,60.448578 135.025085,64.777092 130.036148,68.530724 
	C127.930893,70.114693 126.194603,72.205124 124.365799,74.136543 
	C121.834694,76.809662 118.961685,78.247475 115.937286,75.301247 
	C113.200302,72.634995 113.411247,69.495880 115.977066,66.606468 
	C116.610062,65.893631 117.246094,65.183472 117.886238,64.465919 
	C116.240135,63.150902 113.969040,62.217293 113.380280,60.651218 
	C112.580788,58.524620 112.069275,55.156952 113.202499,53.661568 
	C115.950005,50.035976 119.720177,47.185371 123.480072,44.012379 
z"/>
<path fill="#F5DAF0" opacity="1.000000" stroke="none" 
	d="
M84.987991,253.356812 
	C85.564629,253.032043 85.977043,253.034485 86.738663,253.383408 
	C88.412407,255.861908 89.736938,257.993896 91.061462,260.125885 
	C86.126152,259.895538 81.190834,259.665222 75.933960,259.257996 
	C78.682861,257.282074 81.753311,255.483047 84.987991,253.356812 
z"/>
<path fill="#E4DCF7" opacity="1.000000" stroke="none" 
	d="
M243.835205,26.002953 
	C244.055420,26.260830 243.906509,26.497734 243.361542,26.678715 
	C243.198669,26.433809 243.365509,26.220205 243.835205,26.002953 
z"/>
<path fill="#CCCAF3" opacity="1.000000" stroke="none" 
	d="
M331.249817,101.735062 
	C330.390686,100.829521 329.885773,99.602417 329.203735,98.483269 
	C326.685822,94.351768 326.962616,90.812836 331.549622,87.857941 
	C331.737244,92.271729 331.630005,96.867386 331.249817,101.735062 
z"/>
<path fill="#E4CAEA" opacity="1.000000" stroke="none" 
	d="
M104.442253,409.987671 
	C97.236984,407.435120 90.319939,405.217438 83.739166,402.253174 
	C75.699867,398.631927 70.040619,392.030731 64.309662,385.155701 
	C58.992947,375.378937 56.950886,365.173279 58.004112,354.365387 
	C58.130310,353.070374 58.369427,351.786346 58.876942,350.213684 
	C62.439167,355.682617 65.680656,361.435120 68.968872,367.931671 
	C70.003311,378.257935 75.953339,384.718597 83.172935,390.006744 
	C95.313789,398.899597 109.649269,401.212555 124.158852,401.856689 
	C133.741776,402.282043 143.385391,401.339752 153.001831,401.009766 
	C152.999908,403.744293 152.997971,406.478821 152.995285,409.609741 
	C138.119019,413.485992 123.238281,412.475555 108.348915,410.094604 
	C107.215950,409.913391 106.037086,410.019165 104.442253,409.987671 
z"/>
<path fill="#6885FE" opacity="1.000000" stroke="none" 
	d="
M154.629639,417.979034 
	C156.370316,419.619659 158.398743,421.121582 158.969101,423.053894 
	C159.988419,426.507324 161.730667,428.245117 165.241898,429.251709 
	C167.134766,429.794373 169.379105,432.075562 169.841309,433.968781 
	C170.586639,437.021698 168.284592,438.757202 165.150436,439.066345 
	C161.388885,439.437347 159.619812,441.799866 159.137238,445.311157 
	C158.702499,448.474396 156.921402,450.011993 153.380310,450.083344 
	C151.687500,448.350830 149.697861,446.734070 149.225861,444.755280 
	C148.400925,441.297058 146.300690,440.135315 143.331436,438.904022 
	C141.280029,438.053375 139.870270,435.655457 138.173767,433.948975 
	C139.946381,432.305664 141.460892,429.912750 143.551468,429.192963 
	C146.766418,428.086029 148.244186,426.432800 149.290939,423.226471 
	C149.961090,421.173737 152.538177,419.743530 154.629639,417.979034 
z"/>
<path fill="#DCDCFB" opacity="1.000000" stroke="none" 
	d="
M445.204651,170.053864 
	C443.694824,175.812683 442.754486,181.797714 440.573151,187.289810 
	C432.615570,207.324921 419.946686,224.319260 405.637268,240.342484 
	C397.949829,233.162201 390.770416,225.984283 383.084290,219.397705 
	C373.614441,211.282608 363.681274,203.710098 354.059387,195.768509 
	C352.680115,194.630081 351.271271,192.850494 350.980713,191.175964 
	C348.423706,176.440262 346.117065,161.661133 344.142456,146.415634 
	C365.453705,141.577194 386.454956,140.122818 407.545868,144.385834 
	C419.122131,146.725693 429.797150,151.080185 437.761505,160.318985 
	C440.424011,163.407516 442.733704,166.800201 445.204651,170.053864 
z"/>
<path fill="#000000" opacity="1.000000" stroke="none" 
	d="
M169.947632,146.100800 
	C167.632126,160.813965 165.355087,175.533447 162.942261,190.230621 
	C162.698273,191.716827 162.015991,193.600464 160.895096,194.403351 
	C142.200897,207.793884 125.047546,222.943298 108.991425,239.368927 
	C108.879944,239.482971 108.703987,239.533997 107.683655,240.096848 
	C99.685959,228.842056 90.936913,217.908249 83.781136,206.015762 
	C78.240646,196.807800 74.537849,186.464813 70.401634,176.467728 
	C69.644394,174.637527 70.728752,172.045364 71.062317,169.088867 
	C73.510025,165.012299 75.315079,161.039398 78.297371,158.393341 
	C94.462471,144.050827 114.574928,142.191101 134.771301,142.321228 
	C146.504379,142.396820 158.222672,144.764511 169.947632,146.100800 
M126.937561,174.784348 
	C126.948959,178.740036 128.632736,181.741211 132.753754,181.865143 
	C136.128159,181.966599 137.479446,179.400650 138.166855,176.095413 
	C138.768555,173.202225 140.454269,171.141556 144.236130,170.692886 
	C146.021957,170.481018 148.158310,167.243561 148.818207,164.991013 
	C149.701096,161.977325 147.785599,160.063293 144.386276,159.976379 
	C140.477509,159.876465 138.464783,157.340271 138.095886,153.847672 
	C137.753021,150.601578 136.500259,149.022461 133.200439,148.978745 
	C129.662506,148.931885 127.247360,150.655823 127.127357,154.018188 
	C126.987381,157.940186 124.259880,158.588501 121.699333,160.071121 
	C119.556519,161.311905 116.616730,163.159241 116.290558,165.115005 
	C115.724182,168.511093 118.539780,170.336166 122.012352,171.112671 
	C123.669044,171.483139 125.059128,173.045868 126.937561,174.784348 
z"/>
<path fill="#E9DCF5" opacity="1.000000" stroke="none" 
	d="
M207.014175,100.112785 
	C207.460526,97.920868 207.906876,95.728958 208.936035,93.205582 
	C210.534271,91.826340 211.608902,90.829185 212.555313,89.722404 
	C217.833786,83.549461 222.541412,76.768745 228.451187,71.280067 
	C240.922928,59.697025 255.346832,54.993382 271.921112,62.166279 
	C275.698486,63.801029 279.209808,66.050667 282.843567,68.017303 
	C282.874725,75.029778 284.422852,81.567848 288.882080,87.945709 
	C284.348236,102.153305 296.674561,118.726532 313.032471,116.555138 
	C313.939545,116.434731 314.990051,117.395004 315.973816,117.852264 
	C297.087311,124.683304 278.216064,131.557327 259.285217,138.263153 
	C257.784058,138.794907 255.721222,138.569595 254.170670,138.005508 
	C238.259338,132.217178 222.399963,126.286095 206.258759,119.717789 
	C206.332352,112.731422 206.673264,106.422104 207.014175,100.112785 
z"/>
<path fill="#000000" opacity="1.000000" stroke="none" 
	d="
M422.078705,300.828583 
	C428.606049,312.641418 435.404968,324.314728 441.569275,336.314056 
	C445.994019,344.927216 443.389832,352.543152 437.060669,359.571899 
	C427.792633,369.864319 415.708191,373.880920 402.693542,375.944275 
	C396.226959,376.969452 389.616791,378.138245 383.140656,377.823029 
	C371.683228,377.265289 360.277344,375.634857 348.853363,374.420746 
	C347.401245,374.266388 345.970032,373.915863 344.709808,373.688782 
	C346.796234,358.649536 348.871704,343.689331 351.002655,328.037170 
	C351.376495,327.180328 351.694885,327.015350 352.279785,326.888000 
	C352.740204,326.635071 352.934082,326.344513 353.088562,326.047913 
	C353.049194,326.041870 353.065277,326.119904 353.445679,326.060638 
	C369.243835,320.341400 384.665558,314.692078 400.077667,309.016785 
	C407.420715,306.312866 414.745605,303.559540 422.078705,300.828583 
M402.056152,324.668518 
	C402.484253,324.164551 402.905457,323.654510 403.341644,323.157623 
	C405.840179,320.311523 406.975250,317.175842 403.728668,314.335602 
	C400.800201,311.773651 397.771637,312.375580 395.133545,315.298859 
	C393.132996,317.515656 390.913757,319.533386 388.855560,321.700256 
	C385.933563,324.776611 386.236542,328.580811 389.536804,330.917816 
	C390.686127,331.731689 391.857239,332.514832 392.897552,333.229034 
	C391.830627,334.911987 390.847107,336.226868 390.111969,337.668457 
	C388.112091,341.590118 389.151123,344.340149 393.544830,345.108917 
	C400.236206,346.279663 401.876770,339.434418 405.857788,336.341217 
	C407.215759,335.286011 408.152740,331.955231 407.490662,330.454498 
	C406.577606,328.385010 403.966217,327.064789 402.056152,324.668518 
z"/>
<path fill="#EEDBF3" opacity="1.000000" stroke="none" 
	d="
M185.779114,214.867004 
	C187.252792,213.011353 188.726456,211.155701 190.822662,209.113403 
	C195.773605,206.634674 200.118896,204.373810 204.427032,202.044235 
	C214.290588,196.710693 224.136017,191.343613 234.335495,186.155060 
	C235.454285,187.790451 236.685699,189.198044 236.897659,190.745270 
	C237.275314,193.502319 237.036621,196.343781 236.830841,199.406433 
	C219.873123,207.187286 209.432831,219.905304 205.611191,237.830521 
	C202.911957,250.491241 205.448868,262.502411 210.771973,274.257324 
	C209.792343,285.007874 213.841461,293.814575 220.260361,301.696808 
	C222.642548,304.622040 225.413528,307.230621 228.018158,310.406860 
	C228.348236,315.997437 228.836853,321.163849 228.866272,326.332886 
	C228.873550,327.611694 227.390182,328.898987 226.592026,330.182373 
	C209.051849,319.428864 191.491730,308.707397 174.022644,297.839630 
	C173.007217,297.207947 172.228271,295.407288 172.183868,294.121521 
	C171.478424,273.687836 170.834091,253.250870 170.432083,232.809616 
	C170.392227,230.783142 172.024689,228.723801 173.366440,226.323700 
	C177.257263,222.998215 180.662598,220.028717 184.067932,217.059235 
	C184.067947,217.059235 184.000000,217.000000 184.329712,216.931793 
	C185.032639,216.198059 185.405869,215.532516 185.779114,214.867004 
z"/>
<path fill="#E3DCF8" opacity="1.000000" stroke="none" 
	d="
M343.508789,234.046402 
	C342.961548,254.135590 342.483124,274.227356 341.733093,294.308960 
	C341.674683,295.873108 340.048492,297.902649 338.588104,298.810822 
	C320.686523,309.943268 302.679779,320.906647 284.103973,331.694519 
	C283.570129,325.263794 285.789124,318.875885 282.155029,312.686462 
	C292.921417,304.988464 300.338684,295.283936 303.164764,282.527557 
	C303.762817,279.827942 303.055725,276.839233 303.018433,273.625610 
	C314.662354,248.478134 310.515259,226.945847 290.813782,207.197876 
	C292.995056,207.134781 294.736511,207.134781 296.663269,207.134781 
	C297.251801,202.388687 298.185303,197.658218 292.555389,194.872513 
	C291.756989,194.477463 291.510010,192.968048 291.364563,192.021088 
	C293.366241,192.840546 295.114014,193.450089 296.640015,194.411667 
	C310.475342,203.129807 324.261658,211.925674 338.094452,220.647873 
	C339.603333,221.599289 341.314575,222.229813 342.931946,223.009155 
	C343.048798,224.710693 343.165710,226.412231 342.931885,228.752151 
	C342.890381,230.942490 343.199554,232.494446 343.508789,234.046402 
z"/>
<path fill="#EADCF5" opacity="1.000000" stroke="none" 
	d="
M253.992538,460.853271 
	C239.169128,459.439423 228.886047,450.501709 219.794647,439.861816 
	C210.353302,428.812378 203.420135,416.198303 198.108948,402.324402 
	C210.509750,397.766876 222.565308,393.553345 234.771439,389.833954 
	C236.782272,389.221252 240.391296,389.974426 241.664352,391.462677 
	C248.780090,399.781372 265.553467,399.667786 272.044128,391.473022 
	C274.257904,388.678040 276.844727,388.588379 280.038574,389.932098 
	C283.197723,391.261261 286.608673,391.991974 289.934143,393.257385 
	C290.018127,393.701965 290.077087,393.874390 289.984192,394.376221 
	C287.248413,399.689575 284.337372,404.533905 282.139832,409.682739 
	C274.455414,427.687378 264.845032,444.605377 253.992538,460.853271 
z"/>
<path fill="#F7DBF0" opacity="1.000000" stroke="none" 
	d="
M101.992844,303.984283 
	C106.754082,297.010895 109.250771,289.504669 107.758766,280.533295 
	C108.987633,280.487396 110.072693,280.677368 110.707901,281.315277 
	C116.861435,287.494843 122.939491,293.749542 128.767227,300.243225 
	C128.662918,326.283020 128.830475,352.062469 128.998032,377.841888 
	C114.420731,377.922150 100.239746,375.961517 87.290398,368.781891 
	C77.780235,363.509064 70.970146,355.918060 69.046539,344.270935 
	C70.788803,339.841003 72.233612,336.020996 73.660492,332.248413 
	C92.489952,336.591003 107.219437,320.093292 101.992844,303.984283 
z"/>
<path fill="#F4DCF1" opacity="1.000000" stroke="none" 
	d="
M129.458771,377.921265 
	C128.830475,352.062469 128.662918,326.283020 129.107880,300.288147 
	C137.844452,306.581451 145.719299,313.438629 154.173248,319.486298 
	C160.663986,324.129578 164.962296,329.255920 164.252914,337.736084 
	C164.026001,340.448639 165.063080,343.265137 165.509186,346.036133 
	C167.005295,355.329193 168.495667,364.623230 169.988235,373.916870 
	C156.631989,375.278137 143.275757,376.639404 129.458771,377.921265 
z"/>
<path fill="#000000" opacity="1.000000" stroke="none" 
	d="
M254.425751,460.912903 
	C264.845032,444.605377 274.455414,427.687378 282.139832,409.682739 
	C284.337372,404.533905 287.248413,399.689575 290.317993,394.517090 
	C299.185120,396.919495 307.566467,399.510468 315.947845,402.101410 
	C310.597961,415.055878 303.802673,427.215088 294.906128,438.040344 
	C284.518402,450.680054 272.413116,460.679138 254.425751,460.912903 
z"/>
<path fill="#DBDBFA" opacity="1.000000" stroke="none" 
	d="
M341.305786,136.350082 
	C340.147583,132.198013 338.989380,128.045944 337.584351,123.008965 
	C344.835632,121.825462 351.762695,120.496223 358.744934,119.593719 
	C377.358032,117.187866 395.954803,116.688324 414.184021,122.107880 
	C428.157410,126.262184 439.695374,133.531799 444.618469,148.319992 
	C444.931366,149.259903 445.047821,150.265228 444.911560,151.601654 
	C441.467285,149.522995 438.515289,146.860046 435.240936,144.681656 
	C421.936859,135.830673 406.717010,133.084717 391.244904,132.133148 
	C374.463898,131.101059 357.793610,133.049118 341.305786,136.350082 
z"/>
<path fill="#F5DAF0" opacity="1.000000" stroke="none" 
	d="
M153.412079,400.993378 
	C143.385391,401.339752 133.741776,402.282043 124.158852,401.856689 
	C109.649269,401.212555 95.313789,398.899597 83.172935,390.006744 
	C75.953339,384.718597 70.003311,378.257935 69.030212,368.267395 
	C81.272972,378.993073 95.872459,384.804291 112.086266,386.869781 
	C131.256546,389.311951 150.277374,387.845917 169.206146,384.422913 
	C170.186630,384.245605 171.176086,384.117767 172.577454,384.002197 
	C173.975555,388.001862 174.957581,391.966248 176.163559,396.834778 
	C168.498779,398.255890 161.160553,399.616425 153.412079,400.993378 
z"/>
<path fill="#D6C9EF" opacity="1.000000" stroke="none" 
	d="
M289.909180,392.985168 
	C286.608673,391.991974 283.197723,391.261261 280.038574,389.932098 
	C276.844727,388.588379 274.257904,388.678040 272.044128,391.473022 
	C265.553467,399.667786 248.780090,399.781372 241.664352,391.462677 
	C240.391296,389.974426 236.782272,389.221252 234.771439,389.833954 
	C222.565308,393.553345 210.509750,397.766876 198.029419,401.960510 
	C196.345749,399.037506 195.036575,395.969391 194.083359,392.495758 
	C206.266464,388.405884 218.031006,384.499451 229.949432,381.138824 
	C235.233078,379.648987 235.608490,376.157745 234.856750,372.053406 
	C234.535568,370.299744 232.979080,368.772369 231.983902,367.142151 
	C233.180695,367.529358 234.749252,367.558289 235.519043,368.357025 
	C249.112366,382.461670 265.369934,382.423737 278.587341,368.208435 
	C279.253326,367.492188 280.398865,367.221863 281.585266,367.293243 
	C278.464844,371.436554 277.597504,378.268250 280.668243,379.548737 
	C285.211792,381.443420 290.086304,382.544434 294.892700,384.184814 
	C294.965485,384.386230 294.974304,384.814453 294.663574,384.990906 
	C292.871643,387.773315 291.390411,390.379242 289.909180,392.985168 
z"/>
<path fill="#D8CAEF" opacity="1.000000" stroke="none" 
	d="
M233.988815,185.990173 
	C224.136017,191.343613 214.290588,196.710693 204.427032,202.044235 
	C200.118896,204.373810 195.773605,206.634674 191.049377,208.884521 
	C192.220734,204.907593 193.787903,200.972916 195.314972,196.627823 
	C195.274887,196.217422 195.251526,196.167068 195.543320,196.119995 
	C195.848907,195.693726 195.862701,195.314499 195.933945,194.893127 
	C195.991394,194.850967 196.112686,194.925751 196.458038,194.899307 
	C212.391022,186.271713 227.978653,177.670563 243.742020,168.972443 
	C239.581635,166.853806 235.789093,164.922485 231.996552,162.991180 
	C235.732864,160.977951 239.469177,158.964752 243.767822,157.192139 
	C255.876404,164.185318 262.576691,164.021057 270.099396,156.801010 
	C273.934174,158.677734 277.768982,160.554459 281.590637,162.984650 
	C277.824615,165.299240 274.071716,167.060364 270.047394,168.948868 
	C274.734100,171.849731 278.877411,174.414246 282.758606,177.213165 
	C282.330139,180.299591 282.163727,183.151611 281.638306,185.959885 
	C274.758301,182.730377 268.320801,179.352142 261.669586,176.466553 
	C259.434296,175.496780 256.220551,174.787781 254.203751,175.671188 
	C247.286057,178.701324 240.700806,182.490417 233.988815,185.990173 
z"/>
<path fill="#000000" opacity="1.000000" stroke="none" 
	d="
M444.097168,371.664307 
	C436.865784,390.527924 421.047546,396.951874 403.309052,399.891296 
	C381.475342,403.509369 359.806946,400.975922 338.277466,396.594574 
	C338.868652,393.975342 339.439667,391.445404 340.031158,388.518524 
	C340.548706,386.996277 341.045776,385.871002 341.284302,385.331055 
	C353.520813,386.230743 365.608429,387.166779 377.703217,387.997986 
	C396.651794,389.300171 414.978394,387.007965 431.980286,377.934174 
	C435.121735,376.257599 437.794128,373.720917 440.812622,371.783020 
	C441.636322,371.254242 442.931671,371.460114 444.097168,371.664307 
z"/>
<path fill="#000000" opacity="1.000000" stroke="none" 
	d="
M69.961334,150.016891 
	C72.843895,137.694443 81.354362,130.311996 92.267914,125.430855 
	C101.791481,121.171394 111.945595,119.553146 122.399033,118.879753 
	C139.093323,117.804337 155.438568,119.700813 171.729019,122.930794 
	C172.837341,123.150551 174.027130,122.959488 175.687515,122.959488 
	C174.523300,127.354935 173.462936,131.358353 171.829742,135.528458 
	C166.780609,134.918365 162.331161,133.874268 157.822311,133.420944 
	C148.683792,132.502151 139.520813,131.483292 130.353058,131.314667 
	C123.841667,131.194916 117.286316,132.241974 110.785461,133.049149 
	C99.968544,134.392227 89.591316,137.203125 80.306412,143.199646 
	C76.837387,145.440063 73.408516,147.742661 69.961334,150.016891 
z"/>
<path fill="#CACAF4" opacity="1.000000" stroke="none" 
	d="
M352.013245,326.850403 
	C351.694885,327.015350 351.376495,327.180328 350.934937,327.586426 
	C349.993347,327.908783 349.174927,327.989990 347.300262,328.175995 
	C349.016541,319.015503 350.663544,310.224762 352.663086,301.723328 
	C352.841064,305.108307 352.666473,308.203949 352.421082,312.555084 
	C369.431641,300.296783 384.356689,287.043243 398.571503,271.590393 
	C396.389221,270.186066 394.685730,269.089844 392.982239,267.993652 
	C395.192657,265.774170 397.403046,263.554688 400.257416,261.228699 
	C403.958527,264.275360 406.974945,264.060486 409.957153,261.012695 
	C412.029236,263.402374 414.101318,265.792084 415.953430,268.574463 
	C412.423218,270.437073 412.872742,272.760101 414.655640,274.973724 
	C420.144012,281.787933 425.769318,288.491821 431.341431,295.238586 
	C428.452759,296.748901 425.564087,298.259186 422.216980,299.642456 
	C416.430359,292.872498 411.102234,286.229614 405.673798,279.461670 
	C404.106659,280.687988 403.438538,281.151550 402.837433,281.689941 
	C389.890717,293.286285 376.958099,304.898438 364.006470,316.489258 
	C360.386078,319.729279 356.713745,322.911285 353.065277,326.119904 
	C353.065277,326.119904 353.049194,326.041870 352.867493,326.128998 
	C352.384308,326.345612 352.160126,326.557037 352.013245,326.850403 
z"/>
<path fill="#2828B8" opacity="1.000000" stroke="none" 
	d="
M69.982224,150.008286 
	C73.408516,147.742661 76.837387,145.440063 80.306412,143.199646 
	C89.591316,137.203125 99.968544,134.392227 110.785461,133.049149 
	C117.286316,132.241974 123.841667,131.194916 130.353058,131.314667 
	C139.520813,131.483292 148.683792,132.502151 157.822311,133.420944 
	C162.331161,133.874268 166.780609,134.918365 171.627182,135.856171 
	C171.419479,139.141296 170.841553,142.265350 170.105621,145.745117 
	C158.222672,144.764511 146.504379,142.396820 134.771301,142.321228 
	C114.574928,142.191101 94.462471,144.050827 78.297371,158.393341 
	C75.315079,161.039398 73.510025,165.012299 71.001404,168.686188 
	C69.909203,168.019348 68.186218,167.043213 68.181107,166.058167 
	C68.158043,161.615997 68.621681,157.171295 69.308014,152.194550 
	C69.806114,151.092529 69.906120,150.523468 70.006126,149.954422 
	C70.006126,149.954422 70.003105,149.999680 69.982224,150.008286 
z"/>
<path fill="#DFC8EA" opacity="1.000000" stroke="none" 
	d="
M170.384079,373.951050 
	C168.495667,364.623230 167.005295,355.329193 165.509186,346.036133 
	C165.063080,343.265137 164.026001,340.448639 164.252914,337.736084 
	C164.962296,329.255920 160.663986,324.129578 154.173248,319.486298 
	C145.719299,313.438629 137.844452,306.581451 129.379745,300.027740 
	C122.939491,293.749542 116.861435,287.494843 110.707901,281.315277 
	C110.072693,280.677368 108.987633,280.487396 107.720734,280.075623 
	C104.974663,275.426117 102.619156,270.790619 99.972565,265.582275 
	C101.038368,264.261719 102.680969,262.226562 104.779572,260.335632 
	C107.692787,266.422882 110.839806,262.083099 113.764862,261.052063 
	C116.090446,263.164093 118.416023,265.276123 120.538696,267.735413 
	C118.861687,269.246338 117.387596,270.409973 115.608284,271.814545 
	C129.696304,287.089020 144.608459,300.313477 161.553497,312.573120 
	C161.321503,307.975739 161.149521,304.567627 160.977554,301.159546 
	C161.656311,301.992096 162.786682,302.745789 162.947800,303.668701 
	C166.955505,326.626373 170.860855,349.601898 174.865067,373.046783 
	C174.246994,373.188751 172.513458,373.586975 170.384079,373.951050 
z"/>
<path fill="#CACBF4" opacity="1.000000" stroke="none" 
	d="
M341.345886,136.749527 
	C357.793610,133.049118 374.463898,131.101059 391.244904,132.133148 
	C406.717010,133.084717 421.936859,135.830673 435.240936,144.681656 
	C438.515289,146.860046 441.467285,149.522995 444.935394,152.004211 
	C445.427582,157.819885 445.551849,163.594498 445.440369,169.711487 
	C442.733704,166.800201 440.424011,163.407516 437.761505,160.318985 
	C429.797150,151.080185 419.122131,146.725693 407.545868,144.385834 
	C386.454956,140.122818 365.453705,141.577194 344.128113,145.994659 
	C342.933777,143.084915 342.159882,140.116943 341.345886,136.749527 
z"/>
<path fill="#F2DAF1" opacity="1.000000" stroke="none" 
	d="
M156.022308,234.190643 
	C157.205276,233.758926 158.388245,233.327209 160.514999,232.551086 
	C160.514999,251.367813 160.514999,269.410034 160.514999,288.627625 
	C149.507675,279.114258 138.866653,269.917511 128.227982,260.118439 
	C133.193237,254.987762 138.154037,250.457062 143.119705,245.931732 
	C147.417709,242.014877 151.721222,238.104111 156.022308,234.190643 
z"/>
<path fill="#DDDBF9" opacity="1.000000" stroke="none" 
	d="
M386.065063,260.115845 
	C375.395508,269.532135 364.725922,278.948425 353.838043,288.557434 
	C353.838043,269.647858 353.838043,251.786819 354.257446,233.502380 
	C356.529907,234.427872 358.502380,235.640961 360.215790,237.148499 
	C368.869293,244.762146 377.455353,252.452438 386.065063,260.115845 
z"/>
<path fill="#9DAEFD" opacity="1.000000" stroke="none" 
	d="
M320.938965,84.037811 
	C312.952423,89.006493 305.600372,88.833618 299.390991,83.746727 
	C293.601715,79.004021 291.493713,70.845856 294.259552,63.887699 
	C296.937683,57.150124 303.944427,52.516369 311.187347,53.056873 
	C318.433929,53.597656 323.822479,57.208092 326.455597,64.066628 
	C329.411072,71.764900 327.320312,78.384666 320.938965,84.037811 
z"/>
<path fill="#FC7DB8" opacity="1.000000" stroke="none" 
	d="
M83.370087,269.446289 
	C92.914108,272.085175 98.118706,278.449219 97.976151,286.927734 
	C97.841782,294.919464 92.154106,301.711243 84.045593,303.562592 
	C76.757599,305.226562 68.723015,301.425354 65.247253,294.513428 
	C62.339672,288.731445 62.486835,282.930206 65.979286,277.446777 
	C69.917145,271.264038 75.724068,268.713409 83.370087,269.446289 
z"/>
<path fill="#FCFCFE" opacity="1.000000" stroke="none" 
	d="
M251.440186,367.874634 
	C242.735382,363.664795 239.193680,357.957703 239.842346,349.693237 
	C240.383362,342.800690 245.197983,336.950989 252.035324,334.878998 
	C258.938507,332.787018 266.330566,335.159363 270.731873,340.879303 
	C275.010254,346.439484 275.429901,354.605408 271.741821,360.532776 
	C267.935486,366.650208 260.807404,369.784760 253.759155,368.432068 
	C253.107330,368.306976 252.465393,368.130310 251.440186,367.874634 
z"/>
<path fill="#DCDDFB" opacity="1.000000" stroke="none" 
	d="
M353.445679,326.060638 
	C356.713745,322.911285 360.386078,319.729279 364.006470,316.489258 
	C376.958099,304.898438 389.890717,293.286285 402.837433,281.689941 
	C403.438538,281.151550 404.106659,280.687988 405.673798,279.461670 
	C411.102234,286.229614 416.430359,292.872498 421.918274,299.822876 
	C422.078033,300.130371 422.080414,300.479858 422.079559,300.654236 
	C414.745605,303.559540 407.420715,306.312866 400.077667,309.016785 
	C384.665558,314.692078 369.243835,320.341400 353.445679,326.060638 
z"/>
<path fill="#E7DAF5" opacity="1.000000" stroke="none" 
	d="
M214.815628,63.993881 
	C220.894943,52.671669 229.800323,44.167820 241.287064,38.615589 
	C256.115692,31.448011 269.752106,34.787037 282.317932,44.396694 
	C285.074249,46.504562 287.535095,48.998760 290.227509,51.400238 
	C288.772522,53.579872 287.491730,55.498512 285.669556,57.643749 
	C263.405457,44.921326 245.957748,45.684635 225.651962,60.670883 
	C221.309265,63.875900 217.308350,67.544022 213.080307,70.623047 
	C213.612305,68.162819 214.213959,66.078346 214.815628,63.993881 
z"/>
<path fill="#D8CAEF" opacity="1.000000" stroke="none" 
	d="
M213.149963,70.998795 
	C217.308350,67.544022 221.309265,63.875900 225.651962,60.670883 
	C245.957748,45.684635 263.405457,44.921326 285.465637,57.922386 
	C284.895721,61.074741 283.988342,64.175056 282.962280,67.646347 
	C279.209808,66.050667 275.698486,63.801029 271.921112,62.166279 
	C255.346832,54.993382 240.922928,59.697025 228.451187,71.280067 
	C222.541412,76.768745 217.833786,83.549461 212.555313,89.722404 
	C211.608902,90.829185 210.534271,91.826340 209.167480,92.897720 
	C209.989502,86.377419 211.162857,79.833527 212.545013,72.710632 
	C212.885864,71.754028 213.017914,71.376411 213.149963,70.998795 
z"/>
<path fill="#E3DBF7" opacity="1.000000" stroke="none" 
	d="
M283.020721,176.978775 
	C278.877411,174.414246 274.734100,171.849731 270.047394,168.948868 
	C274.071716,167.060364 277.824615,165.299240 281.790771,163.263977 
	C296.244507,171.208008 310.541138,179.331299 324.694794,187.696442 
	C329.554535,190.568680 334.056946,194.045532 338.880157,197.970627 
	C339.223358,201.968857 339.409027,205.242615 339.627869,209.101425 
	C327.037506,201.395493 315.338043,193.954224 303.350677,187.009964 
	C296.826447,183.230469 289.813324,180.294952 283.020721,176.978775 
z"/>
<path fill="#C6CBF5" opacity="1.000000" stroke="none" 
	d="
M454.691467,177.253235 
	C454.803406,184.937424 455.830475,193.125336 454.315094,200.812027 
	C450.864349,218.316010 441.714050,233.405106 431.601654,247.869598 
	C428.860565,251.790314 426.006805,255.632263 423.057037,259.830078 
	C421.010925,257.968994 419.112549,255.788177 417.108612,252.925110 
	C417.574677,251.086975 418.050262,249.870712 418.732941,248.784653 
	C424.908783,238.959915 431.172333,229.189651 437.252686,219.306519 
	C437.959747,218.157227 437.711090,216.419952 437.905518,214.955276 
	C444.713196,203.051239 451.173553,190.993652 454.691467,177.253235 
z"/>
<path fill="#D0C9F1" opacity="1.000000" stroke="none" 
	d="
M282.758606,177.213165 
	C289.813324,180.294952 296.826447,183.230469 303.350677,187.009964 
	C315.338043,193.954224 327.037506,201.395493 339.627869,209.101425 
	C339.409027,205.242615 339.223358,201.968857 339.064697,198.246704 
	C340.026001,199.148270 341.638306,200.431366 341.779083,201.859497 
	C342.441589,208.582291 342.700470,215.344849 343.017670,222.551178 
	C341.314575,222.229813 339.603333,221.599289 338.094452,220.647873 
	C324.261658,211.925674 310.475342,203.129807 296.640015,194.411667 
	C295.114014,193.450089 293.366241,192.840546 291.157776,191.759338 
	C287.728577,189.635178 284.862946,187.819412 281.997314,186.003647 
	C282.163727,183.151611 282.330139,180.299591 282.758606,177.213165 
z"/>
<path fill="#000000" opacity="1.000000" stroke="none" 
	d="
M291.921875,465.979797 
	C291.569733,466.013245 291.299774,466.179871 290.825104,466.816223 
	C290.249237,467.341309 290.101746,467.608032 290.095795,467.953003 
	C289.132538,468.752472 288.169250,469.551941 286.859375,470.756348 
	C286.317932,471.431854 286.123047,471.702393 285.928192,471.972961 
	C285.928192,471.972961 285.989014,471.998505 285.722839,472.043884 
	C285.257843,472.378693 285.059021,472.668091 284.860229,472.957489 
	C282.080231,474.946106 279.300262,476.934723 276.028870,479.147705 
	C275.302002,479.515167 275.145874,479.718964 275.069061,479.983582 
	C275.069061,479.983582 274.997589,479.971375 274.740479,480.064117 
	C274.287231,480.428101 274.091125,480.699310 273.895020,480.970551 
	C272.465729,481.604156 271.090149,482.570282 269.597443,482.811401 
	C264.345184,483.659821 258.971588,485.163116 253.798294,484.698914 
	C248.618591,484.234131 243.623718,481.709564 238.384491,479.628540 
	C240.785751,476.389648 243.350357,473.610077 245.914978,470.830505 
	C258.043091,473.042053 269.869507,471.740356 280.532867,465.669067 
	C291.195862,459.598053 299.836853,450.945404 307.009766,440.920441 
	C307.671967,439.994934 308.514587,439.198517 309.595215,438.271057 
	C308.340576,441.886139 307.077148,445.750885 305.103333,449.210327 
	C302.955475,452.974823 300.232056,456.427124 297.591125,459.886932 
	C296.350647,461.512054 294.715210,462.835693 292.885742,464.722778 
	C292.315796,465.426361 292.118835,465.703094 291.921875,465.979797 
z"/>
<path fill="#D0C9F1" opacity="1.000000" stroke="none" 
	d="
M320.973419,127.251221 
	C323.029236,126.680893 325.085052,126.110573 328.590607,125.138062 
	C332.673645,145.178375 336.674652,164.816238 340.675690,184.454102 
	C340.264648,184.678802 339.853607,184.903503 339.442566,185.128204 
	C338.102844,184.339844 336.763092,183.551468 335.223511,182.030884 
	C332.949371,171.790741 330.971069,162.259521 328.675110,152.805450 
	C328.399200,151.669220 326.109680,149.944168 325.245544,150.194016 
	C315.774963,152.932327 306.402191,156.008972 297.002869,158.993713 
	C293.469574,157.180847 289.936310,155.367950 286.370911,152.967468 
	C292.812225,149.931702 299.218567,147.282455 305.778473,145.093430 
	C311.995453,143.018829 318.373413,141.426636 324.626007,139.637894 
	C323.299255,135.138596 322.136353,131.194916 320.973419,127.251221 
z"/>
<path fill="#EBD9F2" opacity="1.000000" stroke="none" 
	d="
M176.220993,324.975891 
	C175.471024,320.417603 174.721039,315.859283 173.786346,310.178192 
	C175.963913,311.559235 177.267975,312.429016 178.611877,313.232117 
	C194.254425,322.580139 209.838287,332.029755 225.601593,341.169769 
	C228.976166,343.126434 231.089005,344.864746 229.970718,349.112335 
	C229.481659,350.969971 229.908936,353.068817 229.534760,355.474182 
	C213.552505,346.558167 197.967072,337.206818 182.344086,327.918671 
	C180.405182,326.765961 178.266891,325.948608 176.220993,324.975891 
z"/>
<path fill="#E1DAF7" opacity="1.000000" stroke="none" 
	d="
M284.149628,355.979523 
	C281.975037,346.386658 286.495331,341.747528 294.982544,337.451752 
	C308.999725,330.356964 322.054840,321.361267 335.514862,313.165771 
	C336.761505,312.406708 338.004333,311.641388 340.062347,310.380707 
	C339.322876,315.208374 338.710999,319.203033 337.645233,323.645508 
	C327.899170,330.110992 318.744843,336.356934 309.273010,342.077148 
	C301.085907,347.021484 292.538025,351.368469 284.149628,355.979523 
z"/>
<path fill="#E9DBF4" opacity="1.000000" stroke="none" 
	d="
M281.994751,312.979889 
	C285.789124,318.875885 283.570129,325.263794 283.753418,331.737549 
	C281.479218,334.122955 279.286743,334.918610 276.279175,332.188904 
	C263.582825,320.665741 248.171265,321.381744 236.157898,333.757782 
	C235.825104,334.100647 235.417587,334.371002 234.831802,334.849091 
	C232.256943,333.487701 229.648834,332.108734 226.816376,330.456055 
	C227.390182,328.898987 228.873550,327.611694 228.866272,326.332886 
	C228.836853,321.163849 228.348236,315.997437 228.333130,310.552917 
	C237.949234,316.201874 247.936615,320.497009 259.136658,318.838715 
	C266.875519,317.692871 274.383575,314.988037 281.994751,312.979889 
z"/>
<path fill="#E4C8E9" opacity="1.000000" stroke="none" 
	d="
M101.703339,304.149994 
	C107.219437,320.093292 92.489952,336.591003 73.660492,332.248413 
	C72.233612,336.020996 70.788803,339.841003 69.036934,343.875854 
	C66.234848,333.398346 68.218956,323.191986 71.798836,312.795929 
	C83.474930,315.569000 93.419434,313.165100 101.703339,304.149994 
z"/>
<path fill="#E3DBF7" opacity="1.000000" stroke="none" 
	d="
M320.598846,127.256744 
	C322.136353,131.194916 323.299255,135.138596 324.626007,139.637894 
	C318.373413,141.426636 311.995453,143.018829 305.778473,145.093430 
	C299.218567,147.282455 292.812225,149.931702 286.169373,152.690048 
	C280.780426,150.537445 275.560883,148.074661 269.372742,145.154861 
	C286.463287,137.554779 303.187164,131.976074 320.598846,127.256744 
z"/>
<path fill="#D1C9F1" opacity="1.000000" stroke="none" 
	d="
M316.361023,117.862144 
	C314.990051,117.395004 313.939545,116.434731 313.032471,116.555138 
	C296.674561,118.726532 284.348236,102.153305 288.995392,88.269272 
	C296.928497,95.977730 306.323242,99.428459 317.925659,96.781258 
	C320.258606,103.098473 322.486206,109.130409 324.851837,115.536125 
	C321.808716,116.413315 319.278442,117.142670 316.361023,117.862144 
z"/>
<path fill="#ECDAF3" opacity="1.000000" stroke="none" 
	d="
M231.613998,367.153198 
	C232.979080,368.772369 234.535568,370.299744 234.856750,372.053406 
	C235.608490,376.157745 235.233078,379.648987 229.949432,381.138824 
	C218.031006,384.499451 206.266464,388.405884 193.997375,392.132843 
	C192.129059,388.344879 190.702652,384.514343 189.330551,380.829651 
	C203.612915,376.173065 217.428497,371.668640 231.613998,367.153198 
z"/>
<path fill="#E3DBF7" opacity="1.000000" stroke="none" 
	d="
M297.236572,159.242401 
	C306.402191,156.008972 315.774963,152.932327 325.245544,150.194016 
	C326.109680,149.944168 328.399200,151.669220 328.675110,152.805450 
	C330.971069,162.259521 332.949371,171.790741 335.035187,181.748413 
	C322.521271,174.629135 309.995789,167.060104 297.236572,159.242401 
z"/>
<path fill="#EDDAF2" opacity="1.000000" stroke="none" 
	d="
M216.193298,361.366028 
	C206.391144,364.580322 196.588989,367.794617 185.927078,371.290863 
	C183.301498,359.770264 180.924332,349.339722 178.890900,338.499573 
	C189.765625,344.476593 200.315659,350.832214 210.810211,357.278137 
	C212.720749,358.451599 214.404724,359.993958 216.193298,361.366028 
z"/>
<path fill="#D0C9F1" opacity="1.000000" stroke="none" 
	d="
M284.204376,356.331360 
	C292.538025,351.368469 301.085907,347.021484 309.273010,342.077148 
	C318.744843,336.356934 327.899170,330.110992 337.528381,324.038818 
	C336.742096,328.307709 335.618805,332.631073 334.101807,337.467896 
	C329.854065,341.003021 325.999939,344.024689 321.911865,347.123413 
	C321.354828,347.331268 321.127289,347.558014 320.730621,347.975708 
	C320.026245,348.394684 319.586548,348.718628 318.766785,349.032196 
	C311.214966,353.091888 304.043274,357.162018 296.871552,361.232117 
	C292.667419,359.715820 288.463257,358.199524 284.204376,356.331360 
z"/>
<path fill="#DBC9ED" opacity="1.000000" stroke="none" 
	d="
M216.583984,361.350189 
	C214.404724,359.993958 212.720749,358.451599 210.810211,357.278137 
	C200.315659,350.832214 189.765625,344.476593 178.843918,338.072571 
	C177.678268,333.962128 176.903320,329.869080 176.174683,325.375977 
	C178.266891,325.948608 180.405182,326.765961 182.344086,327.918671 
	C197.967072,337.206818 213.552505,346.558167 229.493408,355.934998 
	C225.549820,357.764618 221.262253,359.549500 216.583984,361.350189 
z"/>
<path fill="#ECDAF3" opacity="1.000000" stroke="none" 
	d="
M231.643127,163.036987 
	C235.789093,164.922485 239.581635,166.853806 243.742020,168.972443 
	C227.978653,177.670563 212.391022,186.271713 196.401947,194.515625 
	C196.964539,190.406799 197.928574,186.655182 198.892624,182.903580 
	C200.172333,181.646469 201.258972,180.054810 202.763214,179.186768 
	C212.220367,173.729218 221.770401,168.432617 231.643127,163.036987 
z"/>
<path fill="#CCCAF3" opacity="1.000000" stroke="none" 
	d="
M386.369690,259.981384 
	C377.455353,252.452438 368.869293,244.762146 360.215790,237.148499 
	C358.502380,235.640961 356.529907,234.427872 354.329956,233.038177 
	C353.709198,228.942780 353.435333,224.888184 353.555450,220.462982 
	C360.487335,225.095581 367.237915,229.848282 373.505493,235.169891 
	C380.268402,240.912125 386.579498,247.186554 393.087708,253.228821 
	C390.949921,255.434860 388.812134,257.640900 386.369690,259.981384 
z"/>
<path fill="#DBDAF9" opacity="1.000000" stroke="none" 
	d="
M393.402191,253.084976 
	C386.579498,247.186554 380.268402,240.912125 373.505493,235.169891 
	C367.237915,229.848282 360.487335,225.095581 353.623352,220.034714 
	C353.027100,216.086838 352.756897,212.196609 352.486725,208.306381 
	C352.926910,207.979507 353.367065,207.652634 353.807251,207.325760 
	C368.770020,220.522583 383.732758,233.719406 398.695526,246.916229 
	C399.015594,247.718094 399.335663,248.519943 399.655731,249.321793 
	C397.676056,250.528244 395.696381,251.734680 393.402191,253.084976 
z"/>
<path fill="#DBDAF9" opacity="1.000000" stroke="none" 
	d="
M392.678772,268.131378 
	C394.685730,269.089844 396.389221,270.186066 398.571503,271.590393 
	C384.356689,287.043243 369.431641,300.296783 352.421082,312.555084 
	C352.666473,308.203949 352.841064,305.108307 353.018250,301.583069 
	C366.139038,290.192047 379.257172,279.230591 392.678772,268.131378 
z"/>
<path fill="#F2DAF1" opacity="1.000000" stroke="none" 
	d="
M160.757812,300.898132 
	C161.149521,304.567627 161.321503,307.975739 161.553497,312.573120 
	C144.608459,300.313477 129.696304,287.089020 115.608284,271.814545 
	C117.387596,270.409973 118.861687,269.246338 120.680206,268.036865 
	C134.195770,278.872925 147.366928,289.754822 160.757812,300.898132 
z"/>
<path fill="#EAD9F3" opacity="1.000000" stroke="none" 
	d="
M204.188751,143.980194 
	C204.132507,143.809479 204.076263,143.638779 204.000854,142.780609 
	C204.308411,138.427307 204.635132,134.761475 204.961853,131.095673 
	C211.236801,132.996277 217.575775,134.711288 223.769348,136.847809 
	C230.449677,139.152252 236.993958,141.851181 244.843826,144.854889 
	C238.810593,147.871124 233.763901,150.394165 228.190948,152.646118 
	C226.100388,151.536270 224.617157,150.453522 222.957397,149.902145 
	C216.732407,147.834152 210.449783,145.939697 204.188751,143.980194 
z"/>
<path fill="#000000" opacity="1.000000" stroke="none" 
	d="
M201.929382,166.803101 
	C194.546585,171.564911 187.163788,176.326721 178.534363,181.892609 
	C181.269135,170.468430 183.680893,160.393570 186.217545,149.797028 
	C191.769379,151.264725 196.915985,152.625305 202.517700,154.068146 
	C202.972778,154.150406 203.128632,154.045486 203.067184,154.478577 
	C202.646957,158.875488 202.288177,162.839279 201.929382,166.803101 
z"/>
<path fill="#010104" opacity="1.000000" stroke="none" 
	d="
M319.146851,349.042603 
	C319.586548,348.718628 320.026245,348.394684 321.010315,348.018372 
	C321.751740,347.659485 321.948792,347.352905 322.145844,347.046356 
	C325.999939,344.024689 329.854065,341.003021 333.919250,337.809540 
	C334.293823,338.692474 334.789673,339.822937 334.569275,340.790222 
	C332.362244,350.476379 330.037415,360.135651 327.638336,370.255737 
	C320.761719,368.170624 314.223999,366.188293 307.453888,363.722290 
	C311.196655,358.506592 315.171753,353.774597 319.146851,349.042603 
z"/>
<path fill="#EAD9F3" opacity="1.000000" stroke="none" 
	d="
M245.817566,470.493622 
	C243.350357,473.610077 240.785751,476.389648 238.047638,479.434326 
	C237.481552,479.853088 237.088989,480.006714 236.403290,480.281555 
	C234.627762,478.733368 233.348892,476.809570 231.630814,475.434601 
	C217.739105,464.317017 208.461945,449.846771 201.175812,433.906891 
	C200.983475,433.486084 201.093124,432.927277 201.081818,432.029266 
	C207.876236,439.767487 214.336334,448.200073 221.518234,455.965088 
	C228.045715,463.022461 236.836212,466.808014 245.817566,470.493622 
z"/>
<path fill="#DFC8EA" opacity="1.000000" stroke="none" 
	d="
M155.623093,234.131241 
	C151.721222,238.104111 147.417709,242.014877 143.119705,245.931732 
	C138.154037,250.457062 133.193237,254.987762 128.077026,259.823303 
	C125.670197,258.033356 123.416656,255.936218 121.179512,253.219147 
	C126.123253,247.786438 131.050598,242.973648 136.228439,238.078659 
	C136.648376,237.949753 136.817825,237.903061 137.273529,237.898270 
	C137.758621,237.665421 137.957489,237.390671 138.145416,237.135651 
	C138.134476,237.155411 138.150772,237.197678 138.150772,237.197678 
	C143.841812,236.155731 149.532837,235.113785 155.623093,234.131241 
z"/>
<path fill="#000000" opacity="1.000000" stroke="none" 
	d="
M294.974304,384.814453 
	C294.974304,384.814453 294.965485,384.386230 295.051178,383.859497 
	C296.847076,380.204865 298.557312,377.076965 300.267548,373.949097 
	C308.089966,376.170898 315.912415,378.392731 323.998291,380.689362 
	C322.757904,384.211304 321.521759,387.721161 319.731079,391.599915 
	C311.109131,389.584015 303.041718,387.199219 294.974304,384.814453 
z"/>
<path fill="#000000" opacity="1.000000" stroke="none" 
	d="
M136.987305,237.856354 
	C136.817825,237.903061 136.648376,237.949753 135.822205,238.004257 
	C131.773865,238.616531 128.382248,239.221008 124.990616,239.825470 
	C135.524094,228.185745 147.783905,218.594116 160.516357,209.035385 
	C162.017548,215.713074 159.982788,219.832581 154.769165,223.296280 
	C148.912979,227.186890 143.707199,232.056503 138.184616,236.848938 
	C138.150772,237.197678 138.134476,237.155411 137.886887,237.127716 
	C137.421967,237.352127 137.204636,237.604248 136.987305,237.856354 
z"/>
<path fill="#2828B8" opacity="1.000000" stroke="none" 
	d="
M294.663574,384.990906 
	C303.041718,387.199219 311.109131,389.584015 319.567810,391.929504 
	C318.721283,395.074982 317.483490,398.259705 316.096741,401.772949 
	C307.566467,399.510468 299.185120,396.919495 290.469910,394.187683 
	C290.077087,393.874390 290.018127,393.701965 289.934143,393.257385 
	C291.390411,390.379242 292.871643,387.773315 294.663574,384.990906 
z"/>
<path fill="#E4DCF7" opacity="1.000000" stroke="none" 
	d="
M300.076324,373.629089 
	C298.557312,377.076965 296.847076,380.204865 294.978394,383.658051 
	C290.086304,382.544434 285.211792,381.443420 280.668243,379.548737 
	C277.597504,378.268250 278.464844,371.436554 281.931580,367.494049 
	C287.970825,369.200043 293.927948,371.254578 300.076324,373.629089 
z"/>
<path fill="#000000" opacity="1.000000" stroke="none" 
	d="
M198.534348,182.916870 
	C197.928574,186.655182 196.964539,190.406799 196.056595,194.542084 
	C196.112686,194.925751 195.991394,194.850967 195.702591,195.024323 
	C195.359695,195.520813 195.305618,195.843948 195.251526,196.167068 
	C195.251526,196.167068 195.274887,196.217422 195.280243,196.244339 
	C190.573608,198.948608 185.829208,201.571228 181.165985,204.331039 
	C179.373734,205.391739 177.766434,206.764954 176.017136,208.037781 
	C174.050797,202.192368 175.400757,197.585129 180.020187,194.555878 
	C186.029312,190.615311 192.120316,186.799591 198.534348,182.916870 
z"/>
<path fill="#D8CAEF" opacity="1.000000" stroke="none" 
	d="
M204.126709,144.414093 
	C210.449783,145.939697 216.732407,147.834152 222.957397,149.902145 
	C224.617157,150.453522 226.100388,151.536270 227.831375,152.684525 
	C224.566483,154.962738 221.134903,156.931473 217.138107,158.680237 
	C212.091461,156.988678 207.610046,155.517090 203.128632,154.045502 
	C203.128632,154.045486 202.972778,154.150406 202.911469,154.078735 
	C203.255005,150.954041 203.659836,147.901001 204.126709,144.414093 
z"/>
<path fill="#E7DAF5" opacity="1.000000" stroke="none" 
	d="
M269.868317,156.547424 
	C262.576691,164.021057 255.876404,164.185318 244.125687,157.142670 
	C247.611176,154.981827 251.208038,152.875336 255.039200,151.362000 
	C256.471924,150.796066 258.585693,151.264008 260.152374,151.871094 
	C263.397919,153.128769 266.484985,154.795364 269.868317,156.547424 
z"/>
<path fill="#D2D6FA" opacity="1.000000" stroke="none" 
	d="
M437.639648,215.158829 
	C437.711090,216.419952 437.959747,218.157227 437.252686,219.306519 
	C431.172333,229.189651 424.908783,238.959915 418.732941,248.784653 
	C418.050262,249.870712 417.574677,251.086975 417.005432,252.607468 
	C415.221130,251.787079 413.434418,250.602081 412.063507,249.692856 
	C421.185303,237.320175 429.279510,226.341278 437.639648,215.158829 
z"/>
<path fill="#000000" opacity="1.000000" stroke="none" 
	d="
M204.581268,131.037140 
	C204.635132,134.761475 204.308411,138.427307 203.915894,142.524765 
	C199.291306,141.834396 194.732529,140.712387 189.781525,139.493835 
	C190.943207,136.079025 191.887299,132.828857 193.223053,129.748535 
	C193.516342,129.072189 195.291687,128.549088 196.230286,128.734848 
	C198.929382,129.269043 201.549515,130.202209 204.581268,131.037140 
z"/>
<path fill="#D2D6FA" opacity="1.000000" stroke="none" 
	d="
M431.714661,295.238800 
	C425.769318,288.491821 420.144012,281.787933 414.655640,274.973724 
	C412.872742,272.760101 412.423218,270.437073 416.103516,268.886658 
	C421.644501,276.206238 426.886993,283.558502 431.900085,291.063965 
	C432.562164,292.055237 432.054047,293.828125 431.714661,295.238800 
z"/>
<path fill="#F5DAF0" opacity="1.000000" stroke="none" 
	d="
M124.654739,239.920258 
	C128.382248,239.221008 131.773865,238.616531 135.571716,238.086456 
	C131.050598,242.973648 126.123253,247.786438 121.052612,252.918579 
	C119.163086,251.591476 117.416847,249.945023 115.150032,247.807724 
	C118.461487,244.993271 121.390167,242.504135 124.654739,239.920258 
z"/>
<path fill="#E4DCF7" opacity="1.000000" stroke="none" 
	d="
M318.766785,349.032196 
	C315.171753,353.774597 311.196655,358.506592 307.114075,363.550720 
	C303.811554,363.144135 300.616547,362.425354 297.146545,361.469360 
	C304.043274,357.162018 311.214966,353.091888 318.766785,349.032196 
z"/>
<path fill="#EAD9F3" opacity="1.000000" stroke="none" 
	d="
M203.067184,154.478592 
	C207.610046,155.517090 212.091461,156.988678 216.791748,158.740631 
	C212.194855,161.765167 207.379135,164.509354 202.246399,167.028320 
	C202.288177,162.839279 202.646957,158.875488 203.067184,154.478592 
z"/>
<path fill="#000000" opacity="1.000000" stroke="none" 
	d="
M96.034157,248.815582 
	C90.884979,240.761108 85.735802,232.706635 80.786942,224.302460 
	C87.296539,231.784515 93.605827,239.616272 99.563179,248.001495 
	C98.152214,248.641830 97.093185,248.728714 96.034157,248.815582 
z"/>
<path fill="#000000" opacity="1.000000" stroke="none" 
	d="
M206.682663,100.215775 
	C206.673264,106.422104 206.332352,112.731422 205.959061,119.492126 
	C203.466843,119.124084 201.007019,118.304665 198.029800,117.312897 
	C200.795776,111.664124 203.573456,105.991440 206.682663,100.215775 
z"/>
<path fill="#DFC8EA" opacity="1.000000" stroke="none" 
	d="
M95.670807,248.897156 
	C97.093185,248.728714 98.152214,248.641830 99.469208,248.349731 
	C97.034554,252.027649 94.341934,255.910797 91.355385,259.959900 
	C89.736938,257.993896 88.412407,255.861908 87.048157,253.387329 
	C89.774773,251.689438 92.541115,250.334091 95.670807,248.897156 
z"/>
<path fill="#D2D6FA" opacity="1.000000" stroke="none" 
	d="
M409.842224,260.693726 
	C406.974945,264.060486 403.958527,264.275360 400.565735,261.090240 
	C401.833740,259.256805 403.437408,257.455261 405.375946,255.277542 
	C407.037476,257.223907 408.382355,258.799316 409.842224,260.693726 
z"/>
<path fill="#EDDAF2" opacity="1.000000" stroke="none" 
	d="
M113.626190,260.754608 
	C110.839806,262.083099 107.692787,266.422882 105.079437,260.165405 
	C106.023926,258.476013 107.124565,257.101135 108.984535,254.777740 
	C110.681252,256.917755 112.084381,258.687469 113.626190,260.754608 
z"/>
<path fill="#DFC8EA" opacity="1.000000" stroke="none" 
	d="
M60.387592,314.791931 
	C55.602757,312.011322 59.399536,308.113800 59.072166,304.226257 
	C64.482605,306.686188 61.841316,310.721558 60.387592,314.791931 
z"/>
<path fill="#000000" opacity="1.000000" stroke="none" 
	d="
M183.741455,216.828064 
	C180.662598,220.028717 177.257263,222.998215 173.500366,225.974792 
	C173.471085,224.808731 173.413742,223.124832 174.182968,222.553101 
	C177.115814,220.373306 180.315186,218.552094 183.741455,216.828064 
z"/>
<path fill="#010104" opacity="1.000000" stroke="none" 
	d="
M213.080292,70.623039 
	C213.017914,71.376411 212.885864,71.754028 212.650116,72.267670 
	C211.068008,73.995300 209.589569,75.586906 207.693909,77.211479 
	C207.276672,77.244453 206.931274,76.945076 206.931274,76.945076 
	C209.360184,72.731819 211.789108,68.518570 214.516830,64.149597 
	C214.213959,66.078346 213.612305,68.162819 213.080292,70.623039 
z"/>
<path fill="#D0C9F1" opacity="1.000000" stroke="none" 
	d="
M343.608154,233.680603 
	C343.199554,232.494446 342.890381,230.942490 342.854736,229.172882 
	C343.321350,230.408417 343.514465,231.861603 343.608154,233.680603 
z"/>
<path fill="#010104" opacity="1.000000" stroke="none" 
	d="
M205.200607,81.107582 
	C204.678604,82.194160 204.233124,82.939461 203.787659,83.684761 
	C203.497223,83.461197 203.206787,83.237640 202.916351,83.014076 
	C203.703278,82.264816 204.490204,81.515564 205.200607,81.107582 
z"/>
<path fill="#000000" opacity="1.000000" stroke="none" 
	d="
M81.017769,223.695023 
	C80.366692,223.302505 79.691711,222.585892 79.027481,221.490967 
	C79.690109,221.865387 80.341995,222.618164 81.017769,223.695023 
z"/>
<path fill="#010104" opacity="1.000000" stroke="none" 
	d="
M207.424866,77.418434 
	C207.212448,78.278534 206.851837,78.964653 205.868622,80.835350 
	C206.142548,78.819069 206.245422,78.061752 206.639801,77.124756 
	C206.931274,76.945076 207.276672,77.244453 207.424866,77.418434 
z"/>
<path fill="#000000" opacity="1.000000" stroke="none" 
	d="
M185.417999,214.939545 
	C185.405869,215.532516 185.032639,216.198059 184.364258,216.961304 
	C184.398346,216.376694 184.727615,215.694397 185.417999,214.939545 
z"/>
<path fill="#000000" opacity="1.000000" stroke="none" 
	d="
M69.724930,150.066467 
	C69.906120,150.523468 69.806114,151.092529 69.373192,151.774628 
	C69.174751,151.317947 69.309242,150.748215 69.724930,150.066467 
z"/>
<path fill="#2828B8" opacity="1.000000" stroke="none" 
	d="
M292.152802,465.864746 
	C292.118835,465.703094 292.315796,465.426361 292.744659,465.036011 
	C292.778961,465.198181 292.581329,465.473938 292.152802,465.864746 
z"/>
<path fill="#2828B8" opacity="1.000000" stroke="none" 
	d="
M290.293457,467.836975 
	C290.101746,467.608032 290.249237,467.341309 290.751770,467.050049 
	C290.887451,467.254364 290.729401,467.512238 290.293457,467.836975 
z"/>
<path fill="#2828B8" opacity="1.000000" stroke="none" 
	d="
M286.156860,471.860901 
	C286.123047,471.702393 286.317932,471.431854 286.736908,471.045044 
	C286.769196,471.202148 286.577362,471.475494 286.156860,471.860901 
z"/>
<path fill="#2828B8" opacity="1.000000" stroke="none" 
	d="
M285.100769,472.854370 
	C285.059021,472.668091 285.257843,472.378693 285.714142,472.012085 
	C285.761505,472.207001 285.551392,472.479126 285.100769,472.854370 
z"/>
<path fill="#2828B8" opacity="1.000000" stroke="none" 
	d="
M275.238770,479.910736 
	C275.145874,479.718964 275.302002,479.515167 275.731445,479.346130 
	C275.798920,479.538452 275.626587,479.711060 275.238770,479.910736 
z"/>
<path fill="#2828B8" opacity="1.000000" stroke="none" 
	d="
M274.122467,480.875641 
	C274.091125,480.699310 274.287231,480.428101 274.731628,480.099243 
	C274.849792,480.356140 274.639801,480.602478 274.122467,480.875641 
z"/>
<path fill="#01ECA5" opacity="1.000000" stroke="none" 
	d="
M126.753769,174.426437 
	C125.059128,173.045868 123.669044,171.483139 122.012352,171.112671 
	C118.539780,170.336166 115.724182,168.511093 116.290558,165.115005 
	C116.616730,163.159241 119.556519,161.311905 121.699333,160.071121 
	C124.259880,158.588501 126.987381,157.940186 127.127357,154.018188 
	C127.247360,150.655823 129.662506,148.931885 133.200439,148.978745 
	C136.500259,149.022461 137.753021,150.601578 138.095886,153.847672 
	C138.464783,157.340271 140.477509,159.876465 144.386276,159.976379 
	C147.785599,160.063293 149.701096,161.977325 148.818207,164.991013 
	C148.158310,167.243561 146.021957,170.481018 144.236130,170.692886 
	C140.454269,171.141556 138.768555,173.202225 138.166855,176.095413 
	C137.479446,179.400650 136.128159,181.966599 132.753754,181.865143 
	C128.632736,181.741211 126.948959,178.740036 126.753769,174.426437 
z"/>
<path fill="#FF7EB8" opacity="1.000000" stroke="none" 
	d="
M402.069214,325.046051 
	C403.966217,327.064789 406.577606,328.385010 407.490662,330.454498 
	C408.152740,331.955231 407.215759,335.286011 405.857788,336.341217 
	C401.876770,339.434418 400.236206,346.279663 393.544830,345.108917 
	C389.151123,344.340149 388.112091,341.590118 390.111969,337.668457 
	C390.847107,336.226868 391.830627,334.911987 392.897552,333.229034 
	C391.857239,332.514832 390.686127,331.731689 389.536804,330.917816 
	C386.236542,328.580811 385.933563,324.776611 388.855560,321.700256 
	C390.913757,319.533386 393.132996,317.515656 395.133545,315.298859 
	C397.771637,312.375580 400.800201,311.773651 403.728668,314.335602 
	C406.975250,317.175842 405.840179,320.311523 403.341644,323.157623 
	C402.905457,323.654510 402.484253,324.164551 402.069214,325.046051 
z"/>
<path fill="#DCDDFB" opacity="1.000000" stroke="none" 
	d="
M352.279785,326.888000 
	C352.160126,326.557037 352.384308,326.345612 352.906860,326.135010 
	C352.934082,326.344513 352.740204,326.635071 352.279785,326.888000 
z"/>
<path fill="#282BBD" opacity="1.000000" stroke="none" 
	d="
M290.374023,207.260956 
	C310.515259,226.945847 314.662354,248.478134 302.730896,273.797852 
	C289.141571,295.200287 266.776764,304.634918 244.071701,298.839478 
	C229.630585,295.153442 219.097015,286.206970 211.057831,273.982361 
	C205.448868,262.502411 202.911957,250.491241 205.611191,237.830521 
	C209.432831,219.905304 219.873123,207.187286 237.239746,199.366943 
	C241.073639,198.171265 243.553680,199.038269 245.130600,202.428253 
	C245.459503,207.245590 241.963455,208.144012 238.976273,209.572510 
	C219.171600,219.043396 209.660263,241.791779 216.990540,262.095123 
	C224.524368,282.962280 246.111053,294.482819 267.527466,289.066162 
	C284.208801,284.847046 297.472382,269.900787 299.028625,253.568542 
	C300.904175,233.885178 291.553040,216.977936 274.290955,209.245193 
	C270.910583,207.730942 267.825653,206.397507 268.347626,201.732605 
	C270.333405,198.199661 273.118256,197.613037 276.149506,199.187820 
	C280.984192,201.699509 285.641632,204.552368 290.374023,207.260956 
z"/>
<path fill="#D5C9EF" opacity="1.000000" stroke="none" 
	d="
M210.771973,274.257324 
	C219.097015,286.206970 229.630585,295.153442 244.071701,298.839478 
	C266.776764,304.634918 289.141571,295.200287 302.662445,274.155945 
	C303.055725,276.839233 303.762817,279.827942 303.164764,282.527557 
	C300.338684,295.283936 292.921417,304.988464 282.155029,312.686462 
	C274.383575,314.988037 266.875519,317.692871 259.136658,318.838715 
	C247.936615,320.497009 237.949234,316.201874 228.322174,310.129730 
	C225.413528,307.230621 222.642548,304.622040 220.260361,301.696808 
	C213.841461,293.814575 209.792343,285.007874 210.771973,274.257324 
z"/>
<path fill="#E8DBF5" opacity="1.000000" stroke="none" 
	d="
M245.162735,202.042114 
	C243.553680,199.038269 241.073639,198.171265 237.464569,199.110474 
	C237.036621,196.343781 237.275314,193.502319 236.897659,190.745270 
	C236.685699,189.198044 235.454285,187.790451 234.335495,186.155060 
	C240.700806,182.490417 247.286057,178.701324 254.203751,175.671188 
	C256.220551,174.787781 259.434296,175.496780 261.669586,176.466553 
	C268.320801,179.352142 274.758301,182.730377 281.638306,185.959885 
	C284.862946,187.819412 287.728577,189.635178 290.801025,191.712677 
	C291.510010,192.968048 291.756989,194.477463 292.555389,194.872513 
	C298.185303,197.658218 297.251801,202.388687 296.663269,207.134781 
	C294.736511,207.134781 292.995056,207.134781 290.813782,207.197876 
	C285.641632,204.552368 280.984192,201.699509 276.149506,199.187820 
	C273.118256,197.613037 270.333405,198.199661 267.941345,201.615051 
	C259.920746,201.835876 252.541733,201.938995 245.162735,202.042114 
z"/>
<path fill="#2929BD" opacity="1.000000" stroke="none" 
	d="
M195.543320,196.119995 
	C195.305618,195.843948 195.359695,195.520813 195.645142,195.066498 
	C195.862701,195.314499 195.848907,195.693726 195.543320,196.119995 
z"/>
<path fill="#E4DCF7" opacity="1.000000" stroke="none" 
	d="
M321.911865,347.123413 
	C321.948792,347.352905 321.751740,347.659485 321.275024,347.923340 
	C321.127289,347.558014 321.354828,347.331268 321.911865,347.123413 
z"/>
<path fill="#2929BD" opacity="1.000000" stroke="none" 
	d="
M137.273529,237.898285 
	C137.204636,237.604248 137.421967,237.352127 137.897827,237.107956 
	C137.957489,237.390671 137.758621,237.665421 137.273529,237.898285 
z"/>
<path fill="#03FEB3" opacity="1.000000" stroke="none" 
	d="
M245.130600,202.428253 
	C252.541733,201.938995 259.920746,201.835876 267.706024,201.850327 
	C267.825653,206.397507 270.910583,207.730942 274.290955,209.245193 
	C291.553040,216.977936 300.904175,233.885178 299.028625,253.568542 
	C297.472382,269.900787 284.208801,284.847046 267.527466,289.066162 
	C246.111053,294.482819 224.524368,282.962280 216.990540,262.095123 
	C209.660263,241.791779 219.171600,219.043396 238.976273,209.572510 
	C241.963455,208.144012 245.459503,207.245590 245.130600,202.428253 
M254.598953,225.056641 
	C249.754303,234.443665 244.909653,243.830673 239.602936,254.112976 
	C244.766968,254.112976 248.832199,254.112976 253.617859,254.112976 
	C253.617859,262.698151 253.617859,270.719788 253.617859,278.741425 
	C254.134094,278.874084 254.650330,279.006775 255.166565,279.139435 
	C261.416229,267.054596 267.665863,254.969742 274.386322,241.974518 
	C269.293304,241.974518 265.240051,241.974518 260.241516,241.974518 
	C260.241516,233.352402 260.241516,225.296494 260.241516,217.240585 
	C259.753906,217.172363 259.266266,217.104156 258.778656,217.035950 
	C257.495239,219.486206 256.211792,221.936462 254.598953,225.056641 
z"/>
<path fill="#F3FFFB" opacity="1.000000" stroke="none" 
	d="
M254.763672,224.721680 
	C256.211792,221.936462 257.495239,219.486206 258.778656,217.035950 
	C259.266266,217.104156 259.753906,217.172363 260.241516,217.240585 
	C260.241516,225.296494 260.241516,233.352402 260.241516,241.974518 
	C265.240051,241.974518 269.293304,241.974518 274.386322,241.974518 
	C267.665863,254.969742 261.416229,267.054596 255.166565,279.139435 
	C254.650330,279.006775 254.134094,278.874084 253.617859,278.741425 
	C253.617859,270.719788 253.617859,262.698151 253.617859,254.112976 
	C248.832199,254.112976 244.766968,254.112976 239.602936,254.112976 
	C244.909653,243.830673 249.754303,234.443665 254.763672,224.721680 
z"/>
</svg>