<svg xmlns="http://www.w3.org/2000/svg" viewBox="0 0 340 340"><path style="fill:#b6dffc" d="M31.222 26.156h158.125v287.687H31.222z"/><path transform="rotate(180 249.063 211.991)" style="fill:#7babdb" d="M189.347 110.138h119.431v203.705H189.347z"/><path transform="rotate(180 249.063 211.991)" style="fill:#537bb7" d="M207.999 199.495h82.127v24.992h-82.127z"/><path transform="rotate(180 249.062 258.991)" style="fill:#537bb7" d="M207.999 246.495h82.127v24.992h-82.127z"/><path transform="rotate(180 249.063 164.991)" style="fill:#537bb7" d="M207.999 152.495h82.127v24.992h-82.127z"/><path style="fill:#7babdb" d="M64.961 262.273h90.646v51.57H64.961z"/><path style="fill:#537bb7" d="M89.188 262.273h42.193v51.57H89.188z"/><path style="fill:#7babdb" d="M98.716 216.447h23.137v25.481H98.716zM54.471 216.447h23.137v25.481H54.471zM143.263 216.447H166.4v25.481h-23.137zM98.716 169.858h23.137v25.481H98.716zM54.471 169.858h23.137v25.481H54.471zM143.263 169.858H166.4v25.481h-23.137zM98.716 123.411h23.137v25.481H98.716zM54.471 123.411h23.137v25.481H54.471zM143.263 123.411H166.4v25.481h-23.137z"/><path d="M110.284 47.415c-7.272 6.905-24.042 3.77-24.042 3.77V75.65a23 23 0 0 0 1.558 8.469c6.041 15.266 22.486 18.326 22.486 18.326s16.446-3.06 22.487-18.326a23.02 23.02 0 0 0 1.556-8.469V51.185s-16.772 3.135-24.045-3.77z" style="fill:#ffdc6c"/><path d="M110.284 47.415a13.362 13.362 0 0 1-4.01 2.554L86.242 70v5.65a23.618 23.618 0 0 0 .882 6.476L118.1 51.153a16.238 16.238 0 0 1-7.816-3.738zM89.935 88.4a27.721 27.721 0 0 0 2.955 3.982L132.011 53.4v-1.88a54.835 54.835 0 0 1-5.019.36z" style="fill:#ffedd2"/><path d="M132.771 84.119a23.02 23.02 0 0 0 1.556-8.469V51.185s-16.77 3.135-24.043-3.77v55.03s16.446-3.06 22.487-18.326z" style="fill:#fca742"/><path d="M86.242 64.3 98.83 51.71c-.993.1-1.977.149-2.933.172l-9.655 9.655z" style="fill:#ffedd2"/><path d="M204 224.487a4 4 0 0 0 4 4h82.127a4 4 0 0 0 4-4V199.5a4 4 0 0 0-4-4H208a4 4 0 0 0-4 4zm8-20.992h74.127v16.992H212zM204 271.487a4 4 0 0 0 4 4h82.127a4 4 0 0 0 4-4V246.5a4 4 0 0 0-4-4H208a4 4 0 0 0-4 4zm8-20.992h74.127v16.992H212zM208 181.487h82.127a4 4 0 0 0 4-4V152.5a4 4 0 0 0-4-4H208a4 4 0 0 0-4 4v24.992a4 4 0 0 0 4 3.995zm4-24.992h74.127v16.992H212z" style="fill:#494456"/><path d="M89.188 317.843h100.159a4 4 0 0 0 4-4V128.792a4 4 0 0 0-8 0v181.051h-25.74v-47.57a4 4 0 0 0-4-4H64.961a4 4 0 0 0-4 4v47.57H35.222V30.157h150.125v79.981a4 4 0 0 0 4 4h115.431v195.705h-92.443a4 4 0 1 0 0 8h96.443a4 4 0 0 0 4-4v-203.7a4 4 0 0 0-4-4H193.347V26.157a4 4 0 0 0-4-4H31.222a4 4 0 0 0-4 4v287.686a4 4 0 0 0 4 4h57.966zm62.419-8h-16.226v-43.57h16.226zm-24.226-43.57v43.57H93.188v-43.57zm-58.42 0h16.227v43.57H68.961z" style="fill:#494456"/><path d="M121.853 212.447H98.716a4 4 0 0 0-4 4v25.481a4 4 0 0 0 4 4h23.137a4 4 0 0 0 4-4v-25.481a4 4 0 0 0-4-4zm-4 25.481h-15.137v-17.481h15.137zM77.608 212.447H54.472a4 4 0 0 0-4 4v25.481a4 4 0 0 0 4 4h23.136a4 4 0 0 0 4-4v-25.481a4 4 0 0 0-4-4zm-4 25.481H58.472v-17.481h15.136zM166.4 212.447h-23.137a4 4 0 0 0-4 4v25.481a4 4 0 0 0 4 4H166.4a4 4 0 0 0 4-4v-25.481a4 4 0 0 0-4-4zm-4 25.481h-15.137v-17.481H162.4zM125.853 169.858a4 4 0 0 0-4-4H98.716a4 4 0 0 0-4 4v25.481a4 4 0 0 0 4 4h23.137a4 4 0 0 0 4-4zm-8 21.481h-15.137v-17.481h15.137zM81.608 169.858a4 4 0 0 0-4-4H54.472a4 4 0 0 0-4 4v25.481a4 4 0 0 0 4 4h23.136a4 4 0 0 0 4-4zm-8 21.481H58.472v-17.481h15.136zM170.4 169.858a4 4 0 0 0-4-4h-23.137a4 4 0 0 0-4 4v25.481a4 4 0 0 0 4 4H166.4a4 4 0 0 0 4-4zm-8 21.481h-15.137v-17.481H162.4zM125.853 123.411a4 4 0 0 0-4-4H98.716a4 4 0 0 0-4 4v25.481a4 4 0 0 0 4 4h23.137a4 4 0 0 0 4-4zm-8 21.481h-15.137v-17.481h15.137zM81.608 123.411a4 4 0 0 0-4-4H54.472a4 4 0 0 0-4 4v25.481a4 4 0 0 0 4 4h23.136a4 4 0 0 0 4-4zm-8 21.481H58.472v-17.481h15.136zM170.4 123.411a4 4 0 0 0-4-4h-23.137a4 4 0 0 0-4 4v25.481a4 4 0 0 0 4 4H166.4a4 4 0 0 0 4-4zm-8 21.481h-15.137v-17.481H162.4zM136.49 85.59a26.891 26.891 0 0 0 1.837-9.939V51.185a4 4 0 0 0-4.735-3.932c-3.828.715-15.826 1.751-20.554-2.739-.075-.071-.161-.121-.24-.186a3.887 3.887 0 0 0-.317-.245 3.964 3.964 0 0 0-.353-.2c-.112-.058-.222-.119-.338-.166a3.8 3.8 0 0 0-.387-.126c-.117-.034-.232-.071-.351-.094a3.808 3.808 0 0 0-.4-.049c-.123-.011-.245-.025-.368-.025a3.829 3.829 0 0 0-.386.026 3.735 3.735 0 0 0-.379.047c-.125.024-.246.062-.368.1a3.84 3.84 0 0 0-.372.121c-.12.049-.234.112-.35.172a3.829 3.829 0 0 0-.342.192 4.012 4.012 0 0 0-.322.249c-.078.064-.164.114-.238.184-4.7 4.465-16.721 3.447-20.553 2.739a4 4 0 0 0-4.736 3.932v24.466a26.891 26.891 0 0 0 1.837 9.939c6.777 17.126 24.714 20.646 25.475 20.787h.007a3.991 3.991 0 0 0 .719.068h.009a3.88 3.88 0 0 0 .717-.068h.011c.763-.141 18.7-3.661 25.477-20.787zm-26.205 12.754c-3.026-.762-14.259-4.3-18.767-15.7a18.928 18.928 0 0 1-1.277-7V55.729c5.323.447 13.875.4 20.043-3.338 6.168 3.734 14.719 3.784 20.043 3.338v19.922a18.948 18.948 0 0 1-1.276 7c-4.509 11.391-15.741 14.931-18.766 15.693z" style="fill:#494456"/></svg>  