<svg version="1.1" id="Layer_1" xmlns="http://www.w3.org/2000/svg" xmlns:xlink="http://www.w3.org/1999/xlink" x="0px" y="0px"
	 width="100%" viewBox="0 0 512 512" enable-background="new 0 0 512 512" xml:space="preserve">
<path fill="#000000" opacity="1.000000" stroke="none" 
	d="
M513.000000,186.000000 
	C513.000000,295.306763 513.000000,404.113525 513.000000,512.960144 
	C342.401550,512.960144 171.803116,512.960144 1.102331,512.960144 
	C1.102331,342.443268 1.102331,171.886444 1.102331,1.164816 
	C171.666534,1.164816 342.333252,1.164816 513.000000,1.164816 
	C513.000000,62.530186 513.000000,124.015091 513.000000,186.000000 
M314.169891,81.617783 
	C314.169891,81.617783 314.442261,81.790894 314.830017,82.342743 
	C318.199615,87.604080 321.569214,92.865417 325.237518,98.746803 
	C329.122070,104.513824 333.006622,110.280846 336.996521,116.762436 
	C341.053040,122.840530 345.109589,128.918625 349.250641,135.682693 
	C353.329163,141.861084 357.407684,148.039490 361.935394,154.898392 
	C388.217438,126.128685 413.974304,97.933884 439.980225,69.466461 
	C436.752655,64.788452 433.331757,60.572575 426.723022,58.948437 
	C425.640137,58.633606 424.557892,58.048820 423.474304,58.046402 
	C414.315369,58.025951 405.156189,58.111828 395.068726,58.031010 
	C385.045105,58.076595 375.021484,58.122181 364.069489,58.031776 
	C354.711792,58.076923 345.354095,58.122066 335.068359,58.031162 
	C323.297333,58.031162 311.526306,58.031162 298.759338,58.031162 
	C303.806915,65.727753 308.488342,72.865997 313.191040,80.614601 
	C313.533203,80.842606 313.875397,81.070602 314.169891,81.617783 
M51.069801,194.029358 
	C38.547729,194.029358 26.025658,194.029358 12.593324,194.029358 
	C19.770727,201.460953 26.332090,208.254700 33.174873,215.674561 
	C37.766838,220.485489 42.358803,225.296417 47.223370,230.726028 
	C51.132381,234.852905 55.041389,238.979797 59.221741,243.721786 
	C62.797909,247.516159 66.374077,251.310532 70.217659,255.716278 
	C75.130608,260.849030 80.043564,265.981750 85.226158,271.725372 
	C89.803413,276.521881 94.380661,281.318359 99.230843,286.727051 
	C103.785179,291.500732 108.339516,296.274445 113.178139,301.667542 
	C118.734222,307.794098 124.290306,313.920654 130.114761,320.671753 
	C137.373901,328.131165 144.633026,335.590576 152.177261,343.665436 
	C160.082733,352.126678 167.988205,360.587891 176.176529,369.660797 
	C187.153534,381.422760 198.130539,393.184723 209.107544,404.946686 
	C209.427399,404.713959 209.747269,404.481232 210.067139,404.248535 
	C204.322418,387.498871 198.577698,370.749237 192.942520,353.235260 
	C188.906204,341.156250 184.869888,329.077240 180.707306,316.264954 
	C177.082611,305.843018 173.457916,295.421112 169.945847,284.234375 
	C166.908188,275.488800 163.870529,266.743256 160.947067,257.232849 
	C158.337601,249.809052 155.728134,242.385254 153.015137,234.176285 
	C150.621185,227.052139 148.227249,219.927979 145.911926,211.963013 
	C144.623978,208.294861 143.287170,204.643005 142.058487,200.955109 
	C139.662720,193.764313 139.687775,193.755966 131.069473,194.029785 
	C123.045654,194.075165 115.021828,194.120544 106.069969,194.027802 
	C98.045692,194.073853 90.021408,194.119904 81.069138,194.028152 
	C71.378723,194.074677 61.688309,194.121201 51.069801,194.029358 
M314.003632,118.245041 
	C312.041779,115.483749 310.079895,112.722450 308.002075,109.250076 
	C305.371033,105.484421 302.739990,101.718765 300.000458,97.234116 
	C296.350830,91.787445 292.701233,86.340782 288.988434,80.184586 
	C285.029327,74.441513 281.070221,68.698448 276.991547,62.188686 
	C276.186310,59.029793 274.354706,57.824162 270.922760,57.915894 
	C261.601624,58.165039 252.268311,58.071491 242.942047,57.946819 
	C240.388184,57.912685 238.922943,58.574757 237.409760,60.913849 
	C221.389923,85.677254 205.158279,110.303543 189.010117,134.984070 
	C182.696320,144.633942 176.446014,154.325378 169.856995,164.626541 
	C168.319382,166.836197 166.781754,169.045837 164.842575,171.832535 
	C177.205978,171.832535 188.601562,171.832535 200.925354,171.974136 
	C209.282913,171.927277 217.640457,171.880417 226.926132,171.973557 
	C233.616730,171.926697 240.307327,171.879852 247.921387,171.972305 
	C252.613770,171.926376 257.306152,171.880447 262.923492,171.972748 
	C267.948761,171.926666 272.973999,171.880585 278.927612,171.973236 
	C287.618225,171.926849 296.308868,171.880478 305.927551,171.973618 
	C320.003632,171.973618 334.079712,171.973618 349.532288,171.973618 
	C342.948822,162.315140 337.034851,153.638931 331.000519,144.252289 
	C327.705750,139.487457 324.410980,134.722610 321.002136,129.239807 
	C318.704620,125.810890 316.407104,122.381966 314.003632,118.245041 
M462.927429,171.969116 
	C473.707886,171.978867 484.489868,172.083893 495.267426,171.912277 
	C497.253754,171.880646 499.222198,170.729019 501.681061,169.939545 
	C496.659027,161.983368 492.245789,154.991653 487.742279,147.312698 
	C483.770996,140.875916 479.799744,134.439133 475.733521,127.320892 
	C475.117096,126.374092 474.501801,125.426567 473.884064,124.480637 
	C470.273438,118.951904 466.662262,113.423546 462.985138,107.178307 
	C459.131409,100.686531 455.277679,94.194748 451.128265,87.204903 
	C425.249817,115.560699 400.000854,143.226776 373.892944,171.834030 
	C383.537415,171.834030 391.767639,171.834030 400.926697,171.971100 
	C411.617065,171.925278 422.307434,171.879456 433.926636,171.970291 
	C443.283936,171.924622 452.641235,171.878952 462.927429,171.969116 
M101.924049,171.978989 
	C114.239731,171.978989 126.555405,171.978989 140.239090,171.978989 
	C133.412964,164.543243 127.649376,158.264923 121.852310,151.314621 
	C115.937859,145.194275 110.023415,139.073929 103.824730,132.332687 
	C97.899956,125.853813 91.975182,119.374947 85.783989,112.285416 
	C78.250381,104.078026 70.716774,95.870644 62.825012,87.273071 
	C45.928059,115.034126 29.422132,142.152725 12.776760,169.500443 
	C17.487036,173.901886 22.987453,171.363770 28.924505,171.977844 
	C40.614845,171.929794 52.305183,171.881744 64.923553,171.978561 
	C76.947693,171.930710 88.971825,171.882843 101.924049,171.978989 
M278.741516,413.637817 
	C283.105835,400.424438 287.470154,387.211060 291.991852,373.239441 
	C293.521942,368.778931 295.109985,364.337311 296.571381,359.854401 
	C301.112030,345.925507 305.604675,331.980927 310.743378,317.639160 
	C311.979431,313.786743 313.204224,309.930664 314.453491,306.082550 
	C319.003784,292.066223 323.562256,278.052551 328.745789,263.636597 
	C328.932465,262.837830 329.061707,262.020416 329.314453,261.243134 
	C333.239532,249.171509 337.180542,237.105087 341.747253,224.637741 
	C344.549530,215.760880 347.351807,206.884033 350.725037,197.687424 
	C350.830902,196.828903 350.936798,195.970398 351.512482,194.921524 
	C351.341309,194.670273 351.170105,194.419037 350.078186,194.032791 
	C345.718597,194.077393 341.358978,194.122009 336.074310,194.030960 
	C331.048859,194.076172 326.023407,194.121384 320.069733,194.030853 
	C313.045319,194.075668 306.020874,194.120483 298.068146,194.030792 
	C286.044556,194.076172 274.020935,194.121552 261.068878,194.032501 
	C246.711563,194.077393 232.354248,194.122269 217.068466,194.032532 
	C198.992264,194.032532 180.916061,194.032532 162.045181,194.032532 
	C166.833832,207.922867 171.500366,221.459000 176.046570,235.760086 
	C180.017181,247.211487 183.987808,258.662872 187.993484,270.895905 
	C190.623520,278.611908 193.253555,286.327911 195.979477,294.828705 
	C197.970276,300.589813 199.961060,306.350952 201.993347,312.884247 
	C203.050964,315.922119 204.108582,318.959961 205.051483,322.756409 
	C206.090881,325.837006 207.130280,328.917572 208.292572,332.730713 
	C209.917511,337.204773 211.542450,341.678802 213.092651,346.997498 
	C215.356598,353.344788 217.620544,359.692108 219.981232,366.823486 
	C223.043182,375.881378 226.105148,384.939301 229.055405,394.760986 
	C232.093170,403.839661 235.130936,412.918335 238.293915,422.729340 
	C240.725357,429.774353 243.156799,436.819397 245.897232,444.427429 
	C249.459854,448.428925 253.022476,452.430420 256.990204,456.886932 
	C261.078705,452.356415 265.882690,449.017792 267.837677,444.457733 
	C272.041351,434.652405 274.777710,424.218079 278.741516,413.637817 
M402.069855,194.033844 
	C393.954071,194.022110 385.834412,193.878006 377.725891,194.114639 
	C376.176361,194.159836 373.713318,195.379013 373.292633,196.610336 
	C369.057281,209.006866 365.160126,221.518951 360.821503,234.674606 
	C356.842224,246.769211 352.862946,258.863831 348.254761,271.359436 
	C344.892303,281.905975 341.529877,292.452545 337.821106,303.674744 
	C335.174988,311.769104 332.528839,319.863495 329.255249,328.360626 
	C326.225800,337.906738 323.196320,347.452820 319.820312,357.674286 
	C314.545135,373.212280 309.269989,388.750275 303.994843,404.288300 
	C309.818329,399.633209 314.546417,394.337463 319.377197,389.137177 
	C333.095337,374.369629 346.862823,359.647980 360.596222,344.894653 
	C369.154175,335.701111 377.670532,326.468872 386.232239,317.278839 
	C400.199860,302.286072 414.200928,287.324402 428.165131,272.328430 
	C436.606903,263.262939 444.953369,254.108276 453.436462,245.081848 
	C465.340027,232.415863 477.367920,219.866684 489.263062,207.192825 
	C493.107422,203.096756 496.701202,198.765488 500.737976,194.167801 
	C495.304901,194.167801 490.652313,194.167801 485.072296,194.033783 
	C479.381500,194.078049 473.690735,194.122299 467.072510,194.032211 
	C461.381470,194.077148 455.690460,194.122070 449.070709,194.032669 
	C441.713501,194.077301 434.356323,194.121918 426.070312,194.032791 
	C418.379700,194.077957 410.689087,194.123123 402.069855,194.033844 
M100.992996,98.745277 
	C107.314850,105.534668 113.636703,112.324059 120.227753,119.732719 
	C124.447105,124.169769 128.666458,128.606827 132.988632,133.741074 
	C139.220200,140.668304 145.451752,147.595535 152.117447,155.005386 
	C173.439148,122.242493 194.176590,90.377380 215.139343,58.166042 
	C212.970245,58.166042 211.483414,58.166042 209.068680,58.027954 
	C198.711121,58.074085 188.353561,58.120216 177.068176,58.028698 
	C165.044525,58.074951 153.020889,58.121208 140.069275,58.028774 
	C125.423080,58.018291 110.762321,58.400963 96.135803,57.859261 
	C86.367821,57.497490 79.492569,61.494564 73.655983,69.420197 
	C82.744370,78.972610 91.819084,88.510658 100.992996,98.745277 
z"/>
<path fill="#542CD6" opacity="1.000000" stroke="none" 
	d="
M485.999756,194.167786 
	C490.652313,194.167801 495.304901,194.167801 500.737976,194.167801 
	C496.701202,198.765488 493.107422,203.096756 489.263062,207.192825 
	C477.367920,219.866684 465.340027,232.415863 453.436462,245.081848 
	C444.953369,254.108276 436.606903,263.262939 428.165131,272.328430 
	C414.200928,287.324402 400.199860,302.286072 386.232239,317.278839 
	C377.670532,326.468872 369.154175,335.701111 360.596222,344.894653 
	C346.862823,359.647980 333.095337,374.369629 319.377197,389.137177 
	C314.546417,394.337463 309.818329,399.633209 303.994843,404.288300 
	C309.269989,388.750275 314.545135,373.212280 320.313354,357.246979 
	C329.906494,348.343048 339.117859,339.982086 348.080994,331.362976 
	C361.978088,317.999329 375.695679,304.449158 389.508728,290.997894 
	C400.938507,279.867462 412.436462,268.806763 423.832642,257.642120 
	C443.545929,238.329376 463.228668,218.985214 482.833160,199.562332 
	C484.264893,198.143875 484.961426,195.983337 485.999756,194.167786 
z"/>
<path fill="#4D40D8" opacity="1.000000" stroke="none" 
	d="
M229.167114,393.997192 
	C226.105148,384.939301 223.043182,375.881378 220.272537,366.347229 
	C221.651428,365.135681 222.867310,364.535492 223.806458,363.643860 
	C231.871643,355.986694 239.966156,348.357697 247.901917,340.567505 
	C270.780853,318.108215 293.537781,295.524353 316.481323,273.131500 
	C319.982971,269.713928 324.220490,267.050262 328.117615,264.037903 
	C323.562256,278.052551 319.003784,292.066223 314.453491,306.082550 
	C313.204224,309.930664 311.979431,313.786743 310.088684,317.909698 
	C308.222382,319.021423 306.862579,319.710754 305.821320,320.726562 
	C289.520538,336.628937 273.253815,352.566162 256.997101,368.513611 
	C253.197525,372.240906 249.602432,376.187958 245.666321,379.761932 
	C240.290436,384.643402 234.678101,389.264496 229.167114,393.997192 
z"/>
<path fill="#387FDE" opacity="1.000000" stroke="none" 
	d="
M199.997147,171.832535 
	C188.601562,171.832535 177.205978,171.832535 164.842575,171.832535 
	C166.781754,169.045837 168.319382,166.836197 170.360443,164.280579 
	C172.143188,163.226837 173.646820,162.753113 174.667206,161.775192 
	C185.315201,151.570389 195.936020,141.336075 206.466812,131.010422 
	C227.342712,110.541237 248.133347,89.985046 269.028412,69.535530 
	C271.501007,67.115677 274.406372,65.138008 277.111115,62.955376 
	C281.070221,68.698448 285.029327,74.441513 288.867645,80.849869 
	C284.819366,85.523254 280.956177,89.596840 276.953033,93.527885 
	C261.515411,108.687469 246.033691,123.802101 230.567276,138.932327 
	C221.168015,148.127289 211.708389,157.262146 202.433762,166.581131 
	C201.154358,167.866638 200.786819,170.059647 199.997147,171.832535 
z"/>
<path fill="#4260DB" opacity="1.000000" stroke="none" 
	d="
M261.997345,194.166931 
	C274.020935,194.121552 286.044556,194.076172 298.443237,194.418030 
	C297.576538,196.339157 296.472168,198.013504 295.071289,199.384872 
	C282.855774,211.342834 270.556091,223.214844 258.341522,235.173798 
	C239.717941,253.407623 221.176041,271.725098 202.493195,289.897827 
	C200.670349,291.670898 198.104507,292.680115 195.883575,294.043915 
	C193.253555,286.327911 190.623520,278.611908 188.065247,270.169830 
	C188.469254,268.877197 188.695862,268.202667 189.148834,267.759552 
	C212.385452,245.028503 235.662704,222.338898 258.843445,199.551132 
	C260.275330,198.143555 260.963287,195.979187 261.997345,194.166931 
z"/>
<path fill="#4A48D9" opacity="1.000000" stroke="none" 
	d="
M328.431702,263.837250 
	C324.220490,267.050262 319.982971,269.713928 316.481323,273.131500 
	C293.537781,295.524353 270.780853,318.108215 247.901917,340.567505 
	C239.966156,348.357697 231.871643,355.986694 223.806458,363.643860 
	C222.867310,364.535492 221.651428,365.135681 220.224167,365.955200 
	C217.620544,359.692108 215.356598,353.344788 213.520630,346.500397 
	C215.450729,345.016296 217.151932,344.235901 218.423996,343.010132 
	C230.504745,331.369141 242.554688,319.695343 254.532135,307.948029 
	C275.411285,287.470123 296.205780,266.905914 317.094269,246.437531 
	C323.733734,239.931595 330.528748,233.582764 337.331390,227.246643 
	C338.374481,226.275070 339.845032,225.762390 341.117889,225.037460 
	C337.180542,237.105087 333.239532,249.171509 329.314453,261.243134 
	C329.061707,262.020416 328.932465,262.837830 328.431702,263.837250 
z"/>
<path fill="#5231D7" opacity="1.000000" stroke="none" 
	d="
M485.536011,194.100784 
	C484.961426,195.983337 484.264893,198.143875 482.833160,199.562332 
	C463.228668,218.985214 443.545929,238.329376 423.832642,257.642120 
	C412.436462,268.806763 400.938507,279.867462 389.508728,290.997894 
	C375.695679,304.449158 361.978088,317.999329 348.080994,331.362976 
	C339.117859,339.982086 329.906494,348.343048 320.486603,356.909302 
	C323.196320,347.452820 326.225800,337.906738 329.922333,328.097961 
	C332.279541,326.833191 334.202393,326.084930 335.619720,324.785339 
	C341.982880,318.950928 348.257263,313.016541 354.462097,307.013275 
	C367.119781,294.766724 379.750519,282.491730 392.322815,270.157593 
	C413.323029,249.555237 434.255859,228.884216 455.250092,208.275757 
	C458.683258,204.905670 462.376831,201.798096 465.756409,198.377838 
	C466.827698,197.293671 467.269867,195.587875 467.999939,194.166550 
	C473.690735,194.122299 479.381500,194.078049 485.536011,194.100784 
z"/>
<path fill="#3F6ADC" opacity="1.000000" stroke="none" 
	d="
M261.533112,194.099716 
	C260.963287,195.979187 260.275330,198.143555 258.843445,199.551132 
	C235.662704,222.338898 212.385452,245.028503 189.148834,267.759552 
	C188.695862,268.202667 188.469254,268.877197 188.047729,269.779022 
	C183.987808,258.662872 180.017181,247.211487 176.439484,235.298309 
	C178.378815,233.895569 180.158005,233.197815 181.435028,231.975433 
	C192.371948,221.506592 203.271683,210.997070 214.035645,200.351196 
	C215.733749,198.671722 216.694992,196.247208 217.996948,194.167160 
	C232.354248,194.122269 246.711563,194.077393 261.533112,194.099716 
z"/>
<path fill="#484ED9" opacity="1.000000" stroke="none" 
	d="
M341.432556,224.837601 
	C339.845032,225.762390 338.374481,226.275070 337.331390,227.246643 
	C330.528748,233.582764 323.733734,239.931595 317.094269,246.437531 
	C296.205780,266.905914 275.411285,287.470123 254.532135,307.948029 
	C242.554688,319.695343 230.504745,331.369141 218.423996,343.010132 
	C217.151932,344.235901 215.450729,345.016296 213.558014,346.078064 
	C211.542450,341.678802 209.917511,337.204773 208.563568,332.284363 
	C210.498978,330.780396 212.387268,329.958801 213.791580,328.626953 
	C223.080902,319.816864 232.290588,310.922241 241.479675,302.007202 
	C254.252502,289.615265 267.021820,277.219299 279.725555,264.756653 
	C300.627991,244.250916 321.439484,223.652237 342.403198,203.209564 
	C344.594299,201.072906 347.552032,199.722412 350.154083,198.007172 
	C347.351807,206.884033 344.549530,215.760880 341.432556,224.837601 
z"/>
<path fill="#4459DA" opacity="1.000000" stroke="none" 
	d="
M195.931519,294.436310 
	C198.104507,292.680115 200.670349,291.670898 202.493195,289.897827 
	C221.176041,271.725098 239.717941,253.407623 258.341522,235.173798 
	C270.556091,223.214844 282.855774,211.342834 295.071289,199.384872 
	C296.472168,198.013504 297.576538,196.339157 298.907410,194.485291 
	C306.020874,194.120483 313.045319,194.075668 320.453979,194.431396 
	C319.427826,196.852112 318.288422,199.147247 316.562897,200.847672 
	C305.776672,211.477066 294.870605,221.985092 283.982330,232.510651 
	C275.129852,241.068268 266.214874,249.561432 257.383820,258.140991 
	C238.886887,276.111176 220.426971,294.119446 201.951843,312.112061 
	C199.961060,306.350952 197.970276,300.589813 195.931519,294.436310 
z"/>
<path fill="#5036D7" opacity="1.000000" stroke="none" 
	d="
M229.111267,394.379089 
	C234.678101,389.264496 240.290436,384.643402 245.666321,379.761932 
	C249.602432,376.187958 253.197525,372.240906 256.997101,368.513611 
	C273.253815,352.566162 289.520538,336.628937 305.821320,320.726562 
	C306.862579,319.710754 308.222382,319.021423 309.774994,318.111328 
	C305.604675,331.980927 301.112030,345.925507 296.571381,359.854401 
	C295.109985,364.337311 293.521942,368.778931 291.557373,373.649353 
	C289.007629,375.281525 286.541718,376.139191 284.832397,377.783386 
	C270.792938,391.288574 256.911316,404.957672 242.926147,418.519684 
	C241.529587,419.873993 239.763351,420.847046 238.168701,421.997009 
	C235.130936,412.918335 232.093170,403.839661 229.111267,394.379089 
z"/>
<path fill="#3586DF" opacity="1.000000" stroke="none" 
	d="
M277.051331,62.572033 
	C274.406372,65.138008 271.501007,67.115677 269.028412,69.535530 
	C248.133347,89.985046 227.342712,110.541237 206.466812,131.010422 
	C195.936020,141.336075 185.315201,151.570389 174.667206,161.775192 
	C173.646820,162.753113 172.143188,163.226837 170.515350,163.966263 
	C176.446014,154.325378 182.696320,144.633942 189.010117,134.984070 
	C205.158279,110.303543 221.389923,85.677254 237.409760,60.913849 
	C238.922943,58.574757 240.388184,57.912685 242.942047,57.946819 
	C252.268311,58.071491 261.601624,58.165039 270.922760,57.915894 
	C274.354706,57.824162 276.186310,59.029793 277.051331,62.572033 
z"/>
<path fill="#3A77DD" opacity="1.000000" stroke="none" 
	d="
M200.461243,171.903336 
	C200.786819,170.059647 201.154358,167.866638 202.433762,166.581131 
	C211.708389,157.262146 221.168015,148.127289 230.567276,138.932327 
	C246.033691,123.802101 261.515411,108.687469 276.953033,93.527885 
	C280.956177,89.596840 284.819366,85.523254 288.899231,81.204628 
	C292.701233,86.340782 296.350830,91.787445 299.763367,97.773239 
	C296.945618,101.113441 294.481628,104.033699 291.763855,106.694794 
	C280.481049,117.742310 269.144958,128.735779 257.781219,139.700134 
	C251.445389,145.813293 244.892532,151.706161 238.671936,157.932526 
	C234.244736,162.363815 230.208649,167.185883 225.998016,171.833557 
	C217.640457,171.880417 209.282913,171.927277 200.461243,171.903336 
z"/>
<path fill="#5035D7" opacity="1.000000" stroke="none" 
	d="
M467.536224,194.099380 
	C467.269867,195.587875 466.827698,197.293671 465.756409,198.377838 
	C462.376831,201.798096 458.683258,204.905670 455.250092,208.275757 
	C434.255859,228.884216 413.323029,249.555237 392.322815,270.157593 
	C379.750519,282.491730 367.119781,294.766724 354.462097,307.013275 
	C348.257263,313.016541 341.982880,318.950928 335.619720,324.785339 
	C334.202393,326.084930 332.279541,326.833191 330.236053,327.896545 
	C332.528839,319.863495 335.174988,311.769104 338.315857,303.246338 
	C345.725647,296.859711 352.963501,291.233643 359.497223,284.883179 
	C382.311890,262.708252 404.874634,240.274185 427.562073,217.968094 
	C429.573151,215.990784 431.986847,214.403336 433.882202,212.331635 
	C439.345520,206.359940 444.639130,200.232986 449.999420,194.167007 
	C455.690460,194.122070 461.381470,194.077148 467.536224,194.099380 
z"/>
<path fill="#4F3AD7" opacity="1.000000" stroke="none" 
	d="
M449.535065,194.099838 
	C444.639130,200.232986 439.345520,206.359940 433.882202,212.331635 
	C431.986847,214.403336 429.573151,215.990784 427.562073,217.968094 
	C404.874634,240.274185 382.311890,262.708252 359.497223,284.883179 
	C352.963501,291.233643 345.725647,296.859711 338.489044,302.908508 
	C341.529877,292.452545 344.892303,281.905975 348.911377,271.089294 
	C352.694305,268.395416 356.092834,266.250275 358.903656,263.503693 
	C380.513336,242.388016 402.033630,221.180481 423.488403,199.907410 
	C425.035278,198.373627 425.846100,196.097504 426.999146,194.166534 
	C434.356323,194.121918 441.713501,194.077301 449.535065,194.099838 
z"/>
<path fill="#4162DB" opacity="1.000000" stroke="none" 
	d="
M349.166138,134.996704 
	C345.109589,128.918625 341.053040,122.840530 337.234253,116.226234 
	C341.208069,112.399948 345.068970,109.239922 348.657104,105.795753 
	C360.048889,94.861168 371.421753,83.904045 382.628784,72.781174 
	C387.309509,68.135674 391.554169,63.050842 395.997101,58.165771 
	C405.156189,58.111828 414.315369,58.025951 423.474304,58.046402 
	C424.557892,58.048820 425.640137,58.633606 426.902466,59.398903 
	C421.043915,65.743622 414.992828,71.624588 408.970245,77.534592 
	C390.383972,95.773430 371.819733,114.034737 353.202026,132.241394 
	C352.055267,133.362854 350.520416,134.087463 349.166138,134.996704 
z"/>
<path fill="#445BDB" opacity="1.000000" stroke="none" 
	d="
M349.208374,135.339691 
	C350.520416,134.087463 352.055267,133.362854 353.202026,132.241394 
	C371.819733,114.034737 390.383972,95.773430 408.970245,77.534592 
	C414.992828,71.624588 421.043915,65.743622 427.284149,59.507771 
	C433.331757,60.572575 436.752655,64.788452 439.980225,69.466461 
	C413.974304,97.933884 388.217438,126.128685 361.935394,154.898392 
	C357.407684,148.039490 353.329163,141.861084 349.208374,135.339691 
z"/>
<path fill="#3097E0" opacity="1.000000" stroke="none" 
	d="
M132.885803,133.043869 
	C128.666458,128.606827 124.447105,124.169769 120.177696,119.083633 
	C121.447540,116.760399 122.605194,114.921501 124.112236,113.437393 
	C140.774124,97.029091 157.524536,80.710472 174.138687,64.254211 
	C175.802322,62.606400 176.727905,60.213470 177.996002,58.166351 
	C188.353561,58.120216 198.711121,58.074085 209.443573,58.417015 
	C208.456619,60.459759 207.229477,62.249981 205.712570,63.746498 
	C185.470901,83.716156 165.188126,103.644157 144.917831,123.584816 
	C143.613220,124.868217 142.450500,126.333282 141.005356,127.428215 
	C138.384872,129.413651 135.601303,131.183838 132.885803,133.043869 
z"/>
<path fill="#484ED9" opacity="1.000000" stroke="none" 
	d="
M399.997894,171.834030 
	C391.767639,171.834030 383.537415,171.834030 373.892944,171.834030 
	C400.000854,143.226776 425.249817,115.560699 451.128265,87.204903 
	C455.277679,94.194748 459.131409,100.686531 462.839325,107.825363 
	C449.799896,121.144081 436.930359,133.840347 424.003296,146.477844 
	C416.650757,153.665665 409.163452,160.716080 401.849518,167.942444 
	C400.888641,168.891785 400.598602,170.520142 399.997894,171.834030 
z"/>
<path fill="#2AA8E2" opacity="1.000000" stroke="none" 
	d="
M27.996828,171.832275 
	C22.987453,171.363770 17.487036,173.901886 12.776760,169.500443 
	C29.422132,142.152725 45.928059,115.034126 62.825012,87.273071 
	C70.716774,95.870644 78.250381,104.078026 85.738319,112.879234 
	C78.055161,120.888680 70.418121,128.304764 62.780067,135.719803 
	C52.268066,145.924896 41.709160,156.082565 31.295525,166.387054 
	C29.832466,167.834778 29.078838,169.999466 27.996828,171.832275 
z"/>
<path fill="#3781DE" opacity="1.000000" stroke="none" 
	d="
M84.956512,271.114502 
	C80.043564,265.981750 75.130608,260.849030 70.317245,255.167191 
	C82.020226,243.503052 93.673653,232.439590 105.208199,221.253571 
	C112.112251,214.558136 118.843765,207.684296 125.624207,200.862213 
	C127.795799,198.677261 129.875748,196.401230 131.997635,194.166885 
	C139.687775,193.755966 139.662720,193.764313 142.058487,200.955109 
	C143.287170,204.643005 144.623978,208.294861 145.519440,212.536011 
	C139.114014,218.816544 133.057755,224.479248 127.096802,230.240555 
	C113.025909,243.840256 99.000389,257.486877 84.956512,271.114502 
z"/>
<path fill="#2DA0E1" opacity="1.000000" stroke="none" 
	d="
M177.532104,58.097527 
	C176.727905,60.213470 175.802322,62.606400 174.138687,64.254211 
	C157.524536,80.710472 140.774124,97.029091 124.112236,113.437393 
	C122.605194,114.921501 121.447540,116.760399 120.043106,118.773987 
	C113.636703,112.324059 107.314850,105.534668 101.232285,98.218513 
	C113.856262,85.750862 126.257690,73.827202 138.594879,61.837425 
	C139.618103,60.843002 140.206696,59.401333 140.997238,58.167458 
	C153.020889,58.121208 165.044525,58.074951 177.532104,58.097527 
z"/>
<path fill="#4751DA" opacity="1.000000" stroke="none" 
	d="
M350.439575,197.847290 
	C347.552032,199.722412 344.594299,201.072906 342.403198,203.209564 
	C321.439484,223.652237 300.627991,244.250916 279.725555,264.756653 
	C267.021820,277.219299 254.252502,289.615265 241.479675,302.007202 
	C232.290588,310.922241 223.080902,319.816864 213.791580,328.626953 
	C212.387268,329.958801 210.498978,330.780396 208.502136,331.918091 
	C207.130280,328.917572 206.090881,325.837006 205.428818,322.287720 
	C210.445724,317.804199 215.265518,313.977478 219.690659,309.738770 
	C232.316940,297.644348 244.806961,285.407104 257.305786,273.180267 
	C274.808136,256.058777 292.243286,238.868576 309.761719,221.763611 
	C317.264008,214.438385 324.950256,207.301529 332.445648,199.969421 
	C334.188232,198.264801 335.493103,196.112778 336.999390,194.166626 
	C341.358978,194.122009 345.718597,194.077393 350.547180,194.336411 
	C351.016205,194.640030 351.042694,195.111877 351.042694,195.111877 
	C350.936798,195.970398 350.830902,196.828903 350.439575,197.847290 
z"/>
<path fill="#2DA0E1" opacity="1.000000" stroke="none" 
	d="
M28.460667,171.905060 
	C29.078838,169.999466 29.832466,167.834778 31.295525,166.387054 
	C41.709160,156.082565 52.268066,145.924896 62.780067,135.719803 
	C70.418121,128.304764 78.055161,120.888680 85.871521,113.184570 
	C91.975182,119.374947 97.899956,125.853813 103.655838,132.794373 
	C101.552155,134.776535 99.451012,136.128387 97.710457,137.845718 
	C88.653915,146.781448 79.678276,155.799362 70.700066,164.814163 
	C68.417267,167.106262 66.227844,169.491333 63.995522,171.833694 
	C52.305183,171.881744 40.614845,171.929794 28.460667,171.905060 
z"/>
<path fill="#4655DA" opacity="1.000000" stroke="none" 
	d="
M336.536865,194.098785 
	C335.493103,196.112778 334.188232,198.264801 332.445648,199.969421 
	C324.950256,207.301529 317.264008,214.438385 309.761719,221.763611 
	C292.243286,238.868576 274.808136,256.058777 257.305786,273.180267 
	C244.806961,285.407104 232.316940,297.644348 219.690659,309.738770 
	C215.265518,313.977478 210.445724,317.804199 205.486176,321.908447 
	C204.108582,318.959961 203.050964,315.922119 201.972595,312.498169 
	C220.426971,294.119446 238.886887,276.111176 257.383820,258.140991 
	C266.214874,249.561432 275.129852,241.068268 283.982330,232.510651 
	C294.870605,221.985092 305.776672,211.477066 316.562897,200.847672 
	C318.288422,199.147247 319.427826,196.852112 320.918091,194.499268 
	C326.023407,194.121384 331.048859,194.076172 336.536865,194.098785 
z"/>
<path fill="#4B46D9" opacity="1.000000" stroke="none" 
	d="
M400.462280,171.902557 
	C400.598602,170.520142 400.888641,168.891785 401.849518,167.942444 
	C409.163452,160.716080 416.650757,153.665665 424.003296,146.477844 
	C436.930359,133.840347 449.799896,121.144081 462.872375,108.183746 
	C466.662262,113.423546 470.273438,118.951904 473.884064,124.480637 
	C474.501801,125.426567 475.117096,126.374092 475.461487,127.751083 
	C474.130402,128.951279 472.959381,129.605927 472.029236,130.508728 
	C459.692657,142.482849 447.341888,154.443512 435.151855,166.565598 
	C433.912842,167.797699 433.691437,170.053101 432.997803,171.833633 
	C422.307434,171.879456 411.617065,171.925278 400.462280,171.902557 
z"/>
<path fill="#3290E0" opacity="1.000000" stroke="none" 
	d="
M132.937225,133.392471 
	C135.601303,131.183838 138.384872,129.413651 141.005356,127.428215 
	C142.450500,126.333282 143.613220,124.868217 144.917831,123.584816 
	C165.188126,103.644157 185.470901,83.716156 205.712570,63.746498 
	C207.229477,62.249981 208.456619,60.459759 209.907532,58.486061 
	C211.483414,58.166042 212.970245,58.166042 215.139343,58.166042 
	C194.176590,90.377380 173.439148,122.242493 152.117447,155.005386 
	C145.451752,147.595535 139.220200,140.668304 132.937225,133.392471 
z"/>
<path fill="#3A79DD" opacity="1.000000" stroke="none" 
	d="
M85.091339,271.419922 
	C99.000389,257.486877 113.025909,243.840256 127.096802,230.240555 
	C133.057755,224.479248 139.114014,218.816544 145.480133,212.956421 
	C148.227249,219.927979 150.621185,227.052139 152.727020,234.652740 
	C150.649582,236.562439 148.732330,237.863266 147.090775,239.449417 
	C131.020203,254.977356 114.995598,270.552856 98.957916,286.114838 
	C94.380661,281.318359 89.803413,276.521881 85.091339,271.419922 
z"/>
<path fill="#4D40D8" opacity="1.000000" stroke="none" 
	d="
M426.534729,194.099670 
	C425.846100,196.097504 425.035278,198.373627 423.488403,199.907410 
	C402.033630,221.180481 380.513336,242.388016 358.903656,263.503693 
	C356.092834,266.250275 352.694305,268.395416 349.225830,270.888794 
	C352.862946,258.863831 356.842224,246.769211 361.342377,234.305023 
	C363.606903,232.758667 365.559326,231.800858 367.060486,230.369720 
	C377.010986,220.883362 386.912659,211.344299 396.714630,201.704849 
	C399.035400,199.422592 400.915619,196.692429 402.998474,194.168304 
	C410.689087,194.123123 418.379700,194.077957 426.534729,194.099670 
z"/>
<path fill="#3E6BDC" opacity="1.000000" stroke="none" 
	d="
M129.846375,320.047180 
	C124.290306,313.920654 118.734222,307.794098 113.326096,301.178711 
	C117.318756,297.290527 121.315353,294.046387 124.978004,290.461060 
	C133.873016,281.753784 142.491852,272.761353 151.489731,264.164032 
	C154.144440,261.627502 157.693604,260.027069 160.832870,257.997681 
	C163.870529,266.743256 166.908188,275.488800 169.556961,284.697266 
	C167.384201,286.335876 165.376282,287.276154 163.852798,288.725586 
	C153.967987,298.130005 144.214554,307.672455 134.342773,317.090698 
	C133.065948,318.308868 131.355804,319.072845 129.846375,320.047180 
z"/>
<path fill="#3E6BDC" opacity="1.000000" stroke="none" 
	d="
M395.532898,58.098389 
	C391.554169,63.050842 387.309509,68.135674 382.628784,72.781174 
	C371.421753,83.904045 360.048889,94.861168 348.657104,105.795753 
	C345.068970,109.239922 341.208069,112.399948 337.181580,115.868950 
	C333.006622,110.280846 329.122070,104.513824 325.321289,98.191132 
	C333.713623,89.813248 342.155396,82.126236 350.282532,74.119781 
	C355.430145,69.048599 360.108856,63.501442 364.997864,58.167759 
	C375.021484,58.122181 385.045105,58.076595 395.532898,58.098389 
z"/>
<path fill="#2AA8E2" opacity="1.000000" stroke="none" 
	d="
M140.533264,58.098114 
	C140.206696,59.401333 139.618103,60.843002 138.594879,61.837425 
	C126.257690,73.827202 113.856262,85.750862 101.182693,97.870224 
	C91.819084,88.510658 82.744370,78.972610 73.655983,69.420197 
	C79.492569,61.494564 86.367821,57.497490 96.135803,57.859261 
	C110.762321,58.400963 125.423080,58.018291 140.533264,58.098114 
z"/>
<path fill="#3C73DD" opacity="1.000000" stroke="none" 
	d="
M160.889969,257.615265 
	C157.693604,260.027069 154.144440,261.627502 151.489731,264.164032 
	C142.491852,272.761353 133.873016,281.753784 124.978004,290.461060 
	C121.315353,294.046387 117.318756,297.290527 113.183952,300.868988 
	C108.339516,296.274445 103.785179,291.500732 99.094383,286.420959 
	C114.995598,270.552856 131.020203,254.977356 147.090775,239.449417 
	C148.732330,237.863266 150.649582,236.562439 152.778778,235.045319 
	C155.728134,242.385254 158.337601,249.809052 160.889969,257.615265 
z"/>
<path fill="#4260DB" opacity="1.000000" stroke="none" 
	d="
M129.980560,320.359467 
	C131.355804,319.072845 133.065948,318.308868 134.342773,317.090698 
	C144.214554,307.672455 153.967987,298.130005 163.852798,288.725586 
	C165.376282,287.276154 167.384201,286.335876 169.500656,285.079651 
	C173.457916,295.421112 177.082611,305.843018 180.450714,316.721802 
	C174.363586,322.718536 168.590881,328.321106 162.680557,333.774506 
	C159.197205,336.988525 155.495605,339.966095 151.892166,343.049988 
	C144.633026,335.590576 137.373901,328.131165 129.980560,320.359467 
z"/>
<path fill="#3588DF" opacity="1.000000" stroke="none" 
	d="
M131.533554,194.098328 
	C129.875748,196.401230 127.795799,198.677261 125.624207,200.862213 
	C118.843765,207.684296 112.112251,214.558136 105.208199,221.253571 
	C93.673653,232.439590 82.020226,243.503052 70.183533,254.861511 
	C66.374077,251.310532 62.797909,247.516159 59.264469,243.125305 
	C72.405518,229.623245 85.545883,216.759872 98.570686,203.780533 
	C101.582573,200.779144 104.199387,197.381317 106.998001,194.165924 
	C115.021828,194.120544 123.045654,194.075165 131.533554,194.098328 
z"/>
<path fill="#3C72DD" opacity="1.000000" stroke="none" 
	d="
M226.462067,171.903564 
	C230.208649,167.185883 234.244736,162.363815 238.671936,157.932526 
	C244.892532,151.706161 251.445389,145.813293 257.781219,139.700134 
	C269.144958,128.735779 280.481049,117.742310 291.763855,106.694794 
	C294.481628,104.033699 296.945618,101.113441 299.817627,98.132736 
	C302.739990,101.718765 305.371033,105.484421 307.720154,109.689545 
	C306.591064,110.634651 305.602783,110.996086 304.917267,111.666924 
	C286.398254,129.788925 267.874451,147.906540 249.490128,166.164551 
	C248.127182,167.518143 247.804306,169.919006 246.997925,171.833008 
	C240.307327,171.879852 233.616730,171.926697 226.462067,171.903564 
z"/>
<path fill="#3B75DD" opacity="1.000000" stroke="none" 
	d="
M217.532715,194.099854 
	C216.694992,196.247208 215.733749,198.671722 214.035645,200.351196 
	C203.271683,210.997070 192.371948,221.506592 181.435028,231.975433 
	C180.158005,233.197815 178.378815,233.895569 176.499664,234.915833 
	C171.500366,221.459000 166.833832,207.922867 162.045181,194.032532 
	C180.916061,194.032532 198.992264,194.032532 217.532715,194.099854 
z"/>
<path fill="#532ED6" opacity="1.000000" stroke="none" 
	d="
M238.231293,422.363159 
	C239.763351,420.847046 241.529587,419.873993 242.926147,418.519684 
	C256.911316,404.957672 270.792938,391.288574 284.832397,377.783386 
	C286.541718,376.139191 289.007629,375.281525 291.478668,374.028473 
	C287.470154,387.211060 283.105835,400.424438 278.086487,413.908875 
	C276.707336,414.563568 275.849091,414.806854 275.279175,415.351715 
	C265.361206,424.833984 255.478561,434.353210 245.588242,443.864410 
	C243.156799,436.819397 240.725357,429.774353 238.231293,422.363159 
z"/>
<path fill="#3097E0" opacity="1.000000" stroke="none" 
	d="
M64.459534,171.906128 
	C66.227844,169.491333 68.417267,167.106262 70.700066,164.814163 
	C79.678276,155.799362 88.653915,146.781448 97.710457,137.845718 
	C99.451012,136.128387 101.552155,134.776535 103.797958,133.104828 
	C110.023415,139.073929 115.937859,145.194275 121.517952,151.685791 
	C114.454384,158.649643 107.725174,165.242310 100.995972,171.834976 
	C88.971825,171.882843 76.947693,171.930710 64.459534,171.906128 
z"/>
<path fill="#4655DA" opacity="1.000000" stroke="none" 
	d="
M152.034714,343.357727 
	C155.495605,339.966095 159.197205,336.988525 162.680557,333.774506 
	C168.590881,328.321106 174.363586,322.718536 180.513855,317.088440 
	C184.869888,329.077240 188.906204,341.156250 192.567993,353.707275 
	C186.760208,359.135895 181.326950,364.092529 175.893692,369.049133 
	C167.988205,360.587891 160.082733,352.126678 152.034714,343.357727 
z"/>
<path fill="#4D3ED8" opacity="1.000000" stroke="none" 
	d="
M433.462219,171.901962 
	C433.691437,170.053101 433.912842,167.797699 435.151855,166.565598 
	C447.341888,154.443512 459.692657,142.482849 472.029236,130.508728 
	C472.959381,129.605927 474.130402,128.951279 475.508972,128.091812 
	C479.799744,134.439133 483.770996,140.875916 487.439636,147.688110 
	C485.990845,148.652878 484.641693,149.023132 483.731110,149.866745 
	C477.337952,155.789505 470.998535,161.771957 464.737274,167.833771 
	C463.599792,168.934998 462.900238,170.488541 461.998535,171.833282 
	C452.641235,171.878952 443.283936,171.924622 433.462219,171.901962 
z"/>
<path fill="#338EDF" opacity="1.000000" stroke="none" 
	d="
M106.533981,194.096863 
	C104.199387,197.381317 101.582573,200.779144 98.570686,203.780533 
	C85.545883,216.759872 72.405518,229.623245 59.128799,242.817749 
	C55.041389,238.979797 51.132381,234.852905 47.265343,230.127655 
	C52.886623,224.107971 58.575684,218.794113 64.016052,213.236786 
	C70.126907,206.994553 76.013168,200.532425 81.997131,194.165955 
	C90.021408,194.119904 98.045692,194.073853 106.533981,194.096863 
z"/>
<path fill="#4065DB" opacity="1.000000" stroke="none" 
	d="
M304.999481,171.834091 
	C296.308868,171.880478 287.618225,171.926849 278.553284,171.583954 
	C278.608643,170.490829 278.914734,169.660522 279.486267,169.101730 
	C292.320557,156.553589 305.171448,144.022278 318.072723,131.543076 
	C318.860901,130.780670 320.091461,130.475616 321.116211,129.957764 
	C324.410980,134.722610 327.705750,139.487457 330.720612,144.691254 
	C322.306519,153.103073 314.152283,161.055756 306.076599,169.087448 
	C305.438354,169.722244 305.345703,170.905655 304.999481,171.834091 
z"/>
<path fill="#3C72DD" opacity="1.000000" stroke="none" 
	d="
M364.533691,58.099762 
	C360.108856,63.501442 355.430145,69.048599 350.282532,74.119781 
	C342.155396,82.126236 333.713623,89.813248 325.171936,97.881104 
	C321.569214,92.865417 318.199615,87.604080 314.860962,81.734688 
	C318.906067,76.939461 322.981262,72.808640 326.914886,68.547188 
	C330.032074,65.170273 332.975708,61.633179 335.996399,58.167210 
	C345.354095,58.122066 354.711792,58.076923 364.533691,58.099762 
z"/>
<path fill="#3E6DDC" opacity="1.000000" stroke="none" 
	d="
M247.459656,171.902649 
	C247.804306,169.919006 248.127182,167.518143 249.490128,166.164551 
	C267.874451,147.906540 286.398254,129.788925 304.917267,111.666924 
	C305.602783,110.996086 306.591064,110.634651 307.778137,110.045090 
	C310.079895,112.722450 312.041779,115.483749 313.767059,118.776978 
	C307.790558,124.602356 301.970764,129.812256 296.328094,135.207413 
	C285.992157,145.089981 275.680145,155.001190 265.564087,165.106598 
	C263.847870,166.820999 263.160980,169.565781 261.998535,171.834518 
	C257.306152,171.880447 252.613770,171.926376 247.459656,171.902649 
z"/>
<path fill="#3F6ADC" opacity="1.000000" stroke="none" 
	d="
M262.460999,171.903625 
	C263.160980,169.565781 263.847870,166.820999 265.564087,165.106598 
	C275.680145,155.001190 285.992157,145.089981 296.328094,135.207413 
	C301.970764,129.812256 307.790558,124.602356 313.820038,119.130974 
	C316.407104,122.381966 318.704620,125.810890 321.059174,129.598785 
	C320.091461,130.475616 318.860901,130.780670 318.072723,131.543076 
	C305.171448,144.022278 292.320557,156.553589 279.486267,169.101730 
	C278.914734,169.660522 278.608643,170.490829 278.089111,171.514587 
	C272.973999,171.880585 267.948761,171.926666 262.460999,171.903625 
z"/>
<path fill="#3194E0" opacity="1.000000" stroke="none" 
	d="
M81.533134,194.097046 
	C76.013168,200.532425 70.126907,206.994553 64.016052,213.236786 
	C58.575684,218.794113 52.886623,224.107971 47.129044,229.818314 
	C42.358803,225.296417 37.766838,220.485489 33.323051,215.183167 
	C38.975056,209.294785 44.542030,203.959534 49.928265,198.447647 
	C50.978378,197.373032 51.326168,195.612091 51.997894,194.167709 
	C61.688309,194.121201 71.378723,194.074677 81.533134,194.097046 
z"/>
<path fill="#445BDB" opacity="1.000000" stroke="none" 
	d="
M305.463501,171.903854 
	C305.345703,170.905655 305.438354,169.722244 306.076599,169.087448 
	C314.152283,161.055756 322.306519,153.103073 330.780823,145.046478 
	C337.034851,153.638931 342.948822,162.315140 349.532288,171.973618 
	C334.079712,171.973618 320.003632,171.973618 305.463501,171.903854 
z"/>
<path fill="#4B46D9" opacity="1.000000" stroke="none" 
	d="
M402.534180,194.101074 
	C400.915619,196.692429 399.035400,199.422592 396.714630,201.704849 
	C386.912659,211.344299 377.010986,220.883362 367.060486,230.369720 
	C365.559326,231.800858 363.606903,232.758667 361.515564,233.966995 
	C365.160126,221.518951 369.057281,209.006866 373.292633,196.610336 
	C373.713318,195.379013 376.176361,194.159836 377.725891,194.114639 
	C385.834412,193.878006 393.954071,194.022110 402.534180,194.101074 
z"/>
<path fill="#4A48D9" opacity="1.000000" stroke="none" 
	d="
M176.035110,369.354980 
	C181.326950,364.092529 186.760208,359.135895 192.513245,354.089417 
	C198.577698,370.749237 204.322418,387.498871 210.067139,404.248535 
	C209.747269,404.481232 209.427399,404.713959 209.107544,404.946686 
	C198.130539,393.184723 187.153534,381.422760 176.035110,369.354980 
z"/>
<path fill="#542CD6" opacity="1.000000" stroke="none" 
	d="
M245.742737,444.145935 
	C255.478561,434.353210 265.361206,424.833984 275.279175,415.351715 
	C275.849091,414.806854 276.707336,414.563568 277.773041,414.110565 
	C274.777710,424.218079 272.041351,434.652405 267.837677,444.457733 
	C265.882690,449.017792 261.078705,452.356415 256.990204,456.886932 
	C253.022476,452.430420 249.459854,448.428925 245.742737,444.145935 
z"/>
<path fill="#5036D7" opacity="1.000000" stroke="none" 
	d="
M462.462982,171.901199 
	C462.900238,170.488541 463.599792,168.934998 464.737274,167.833771 
	C470.998535,161.771957 477.337952,155.789505 483.731110,149.866745 
	C484.641693,149.023132 485.990845,148.652878 487.484802,148.031738 
	C492.245789,154.991653 496.659027,161.983368 501.681061,169.939545 
	C499.222198,170.729019 497.253754,171.880646 495.267426,171.912277 
	C484.489868,172.083893 473.707886,171.978867 462.462982,171.901199 
z"/>
<path fill="#3A79DD" opacity="1.000000" stroke="none" 
	d="
M335.532379,58.099182 
	C332.975708,61.633179 330.032074,65.170273 326.914886,68.547188 
	C322.981262,72.808640 318.906067,76.939461 314.667114,81.458763 
	C314.442261,81.790894 314.169891,81.617783 314.021698,81.231270 
	C313.638947,80.564590 313.404358,80.284416 313.169769,80.004242 
	C308.488342,72.865997 303.806915,65.727753 298.759338,58.031162 
	C311.526306,58.031162 323.297333,58.031162 335.532379,58.099182 
z"/>
<path fill="#2E9CE1" opacity="1.000000" stroke="none" 
	d="
M51.533852,194.098541 
	C51.326168,195.612091 50.978378,197.373032 49.928265,198.447647 
	C44.542030,203.959534 38.975056,209.294785 33.182339,214.870087 
	C26.332090,208.254700 19.770727,201.460953 12.593324,194.029358 
	C26.025658,194.029358 38.547729,194.029358 51.533852,194.098541 
z"/>
<path fill="#338EDF" opacity="1.000000" stroke="none" 
	d="
M101.460007,171.906982 
	C107.725174,165.242310 114.454384,158.649643 121.534683,152.021790 
	C127.649376,158.264923 133.412964,164.543243 140.239090,171.978989 
	C126.555405,171.978989 114.239731,171.978989 101.460007,171.906982 
z"/>
<path fill="#484ED9" opacity="1.000000" stroke="none" 
	d="
M351.277588,195.016693 
	C351.042694,195.111877 351.016205,194.640030 351.007568,194.403900 
	C351.170105,194.419037 351.341309,194.670273 351.277588,195.016693 
z"/>
<path fill="#3C72DD" opacity="1.000000" stroke="none" 
	d="
M313.180420,80.309418 
	C313.404358,80.284416 313.638947,80.564590 314.045532,81.071678 
	C313.875397,81.070602 313.533203,80.842606 313.180420,80.309418 
z"/>
</svg>