<svg version="1.1" id="Layer_1" xmlns="http://www.w3.org/2000/svg" x="0" y="0" viewBox="0 0 512 512" style="enable-background:new 0 0 512 512" xml:space="preserve"><style>.st1{fill:#edf3fc}.st2{fill:#330d84}.st6{fill:#fff}.st12{fill:#ffe37b}.st18{fill:#fdb813}</style><path class="st1" d="M255.999 40.928c-118.778 0-215.071 96.294-215.071 215.074 0 118.776 96.292 215.068 215.071 215.068S471.07 374.778 471.07 256.002c0-118.78-96.293-215.074-215.071-215.074z"/><path class="st1" d="M255.999 1C115.391 1 1 115.392 1 256.002 1 396.609 115.391 511 255.999 511S511 396.609 511 256.002C511 115.392 396.607 1 255.999 1zm0 501.832c-136.103 0-246.83-110.728-246.83-246.83 0-136.104 110.727-246.833 246.83-246.833 136.102 0 246.832 110.729 246.832 246.833 0 136.102-110.73 246.83-246.832 246.83z"/><path class="st18" d="M352.645 265.195a17.896 17.896 0 0 0-.62-1.66l-.013-.031a17.41 17.41 0 0 0-.756-1.532l-.056-.102a17.35 17.35 0 0 0-.855-1.362c-.041-.06-.08-.121-.122-.18a17.105 17.105 0 0 0-.923-1.18c-.07-.083-.136-.168-.208-.249a17.06 17.06 0 0 0-.972-1.006c-.101-.097-.197-.2-.301-.295-.324-.299-.67-.578-1.021-.854-.129-.102-.25-.21-.383-.309a17.214 17.214 0 0 0-1.117-.746c-.139-.087-.268-.184-.41-.267a17.515 17.515 0 0 0-1.645-.857s-23.488-14.138-46.942-24.32c-17.833-7.742-41.075-15.721-52.204-16.62-4.799-.388-12.91-.938-17.886 3.348-2.959 2.548-6.291 14.822-10.448 18.686-8.38 7.79-18.272 9.447-23.663 8.617-4.215-.648-2.172-12.822-2.172-12.822s6.532-28.075 12.271-40.606c-6.416 1.38-12.647 2.431-16.017 2.171-3.673-.283-11.894-3.767-20.044-7.631l-31.644 81.788c4.595 2.288 8.883 4.593 11.674 6.477 9.061 6.117 12.151 16.104 18.103 26.853.684 1.235 2.064 2.818 4.011 4.663l8.528-15.233c3.512-6.27 12.042-8.171 19.053-4.247 5.382 3.012 8.292 8.572 7.784 13.832 4.307-6.251 12.621-8.378 19.226-4.675 6.788 3.8 9.259 12.349 5.769 19.407 4.23-4.462 11.419-5.527 17.434-2.167 7.018 3.934 9.752 12.39 6.111 18.891l-.091.162c3.743-2.637 9.409-2.819 14.368-.041 6.495 3.641 9.313 10.955 6.296 16.335l-7.165 12.806 11.76 6.636c7.726 3.99 17.211.976 21.21-6.748 2.777-5.369 2.154-11.593-1.078-16.232 7.888 3.098 17.004-.203 20.983-7.896 3.346-6.461 2.059-14.084-2.635-19.119 8.434 4.008 18.479.716 22.554-7.476 3.979-8.013.775-17.742-7.115-22.202 8.167 2.328 17.027-1.589 20.645-9.556 1.85-4.076 1.979-8.49.726-12.451z"/><path class="st12" d="M266.463 331.102c-4.959-2.778-10.625-2.597-14.368.04l.091-.162c3.641-6.501.907-14.958-6.111-18.891-6.016-3.36-13.204-2.295-17.434 2.167 3.49-7.058 1.018-15.608-5.769-19.407-6.605-3.703-14.919-1.576-19.226 4.675.508-5.26-2.402-10.82-7.784-13.832-7.012-3.925-15.541-2.023-19.053 4.247l-11.475 20.499c-3.517 6.279-.676 14.544 6.341 18.471 5.734 3.213 12.478 2.521 16.672-1.259-1.76 6.414.87 13.37 6.809 16.692 6.361 3.565 14.309 1.712 18.731-4.03-1.953 6.079.896 13.111 7.103 16.583 5.977 3.343 13.114 2.312 17.352-2.078-.877 4.868 1.973 10.394 7.338 13.403 6.497 3.637 14.211 2.211 17.224-3.169l9.855-17.613c3.017-5.381.199-12.695-6.296-16.336zM344.997 173.202l-22.281 7.46-4.815.717c-.031-.005-47.905-8.22-60.066-8.22-12.166 0-46.139 7.044-52.293 12.338-6.154 5.295-15.615 45.96-15.615 45.96s-2.043 12.173 2.172 12.822c5.392.83 15.283-.828 23.663-8.617 4.157-3.864 7.49-16.138 10.448-18.686 4.977-4.286 13.087-3.736 17.886-3.348 11.129.898 34.37 8.878 52.204 16.62 23.454 10.182 46.942 24.32 46.942 24.32 4.688 2.127 7.96 6.077 9.401 10.628 0 0 1.996-5.64 5.176-7.99 1.33-.983 8.988-3.352 17.444-5.775l-30.266-78.229z"/><path class="st12" d="M266.463 331.102c-4.959-2.778-10.625-2.597-14.368.04l.091-.162c3.641-6.501.907-14.958-6.111-18.891-6.016-3.36-13.204-2.295-17.434 2.167 3.49-7.058 1.018-15.608-5.769-19.407-6.605-3.703-14.919-1.576-19.226 4.675.508-5.26-2.402-10.82-7.784-13.832-7.012-3.925-15.541-2.023-19.053 4.247l-11.475 20.499c-3.517 6.279-.676 14.544 6.341 18.471 5.734 3.213 12.478 2.521 16.672-1.259-1.76 6.414.87 13.37 6.809 16.692 6.361 3.565 14.309 1.712 18.731-4.03-1.953 6.079.896 13.111 7.103 16.583 5.977 3.343 13.114 2.312 17.352-2.078-.877 4.868 1.973 10.394 7.338 13.403 6.497 3.637 14.211 2.211 17.224-3.169l9.855-17.613c3.017-5.381.199-12.695-6.296-16.336z"/><path d="m342.537 166.844 38.321 99.046c2.001 5.173 7.822 7.737 12.984 5.74l29.501-11.414a10.034 10.034 0 0 0 5.74-12.984l-38.321-99.046c-1.997-5.162-7.811-7.742-12.984-5.74l-29.501 11.414c-5.162 1.996-7.737 7.822-5.74 12.984z" style="fill:#5932ae"/><circle transform="rotate(-21.15 363.368 168.766)" class="st6" cx="363.333" cy="168.754" r="7.683"/><path class="st2" d="m169.463 176.797-38.321 99.046c-2.001 5.173-7.822 7.737-12.984 5.74l-29.501-11.414a10.034 10.034 0 0 1-5.74-12.984l38.321-99.046c1.997-5.162 7.811-7.742 12.984-5.74l29.501 11.414c5.162 1.997 7.737 7.822 5.74 12.984z"/><circle transform="rotate(-68.85 148.67 178.714)" class="st6" cx="148.667" cy="178.708" r="7.683"/><path d="m339.569 135.797 2.292.574-2.292.574a37.48 37.48 0 0 0-27.249 27.253l-.577 2.289-.575-2.289a37.48 37.48 0 0 0-27.255-27.253l-2.283-.574 2.283-.574a37.488 37.488 0 0 0 27.255-27.249l.575-2.287.577 2.287a37.487 37.487 0 0 0 27.249 27.249z" style="fill:#8ac9f9"/><path class="st2" d="m137.91 327.476 2.202.552-2.202.552a36.013 36.013 0 0 0-26.183 26.188l-.554 2.199-.552-2.199a36.017 36.017 0 0 0-26.189-26.188l-2.194-.552 2.194-.552a36.02 36.02 0 0 0 26.189-26.183l.552-2.197.554 2.197a36.02 36.02 0 0 0 26.183 26.183zM159.668 125.02l1.471.369-1.471.369a24.06 24.06 0 0 0-17.491 17.494l-.37 1.469-.369-1.469a24.058 24.058 0 0 0-17.495-17.494l-1.466-.369 1.466-.369a24.062 24.062 0 0 0 17.495-17.491l.369-1.468.37 1.468a24.063 24.063 0 0 0 17.491 17.491z"/><path class="st18" d="m333.038 378.899 1.633.409-1.633.409a26.71 26.71 0 0 0-19.419 19.422l-.411 1.631-.41-1.631a26.711 26.711 0 0 0-19.423-19.422l-1.627-.409 1.627-.409a26.715 26.715 0 0 0 19.423-19.419l.41-1.63.411 1.63a26.715 26.715 0 0 0 19.419 19.419zM359.875 344.348l.997.25-.997.25a16.304 16.304 0 0 0-11.853 11.855l-.251.996-.25-.996a16.303 16.303 0 0 0-11.856-11.855l-.993-.25.993-.25a16.307 16.307 0 0 0 11.856-11.853l.25-.995.251.995a16.306 16.306 0 0 0 11.853 11.853z"/></svg>