<svg version="1.1" id="Layer_1" xmlns="http://www.w3.org/2000/svg" xmlns:xlink="http://www.w3.org/1999/xlink" x="0px" y="0px"
	 width="100%" viewBox="0 0 512 512" enable-background="new 0 0 512 512" xml:space="preserve">
<path fill="#010100" opacity="1.000000" stroke="none" 
	d="
M294.000000,513.000000 
	C196.023788,513.000000 98.547569,513.000000 1.035679,513.000000 
	C1.035679,342.398773 1.035679,171.797516 1.035679,1.098134 
	C171.559555,1.098134 342.119202,1.098134 512.839417,1.098134 
	C512.839417,171.666550 512.839417,342.333252 512.839417,513.000000 
	C440.130829,513.000000 367.315399,513.000000 294.000000,513.000000 
M220.161575,444.109467 
	C196.151413,446.910339 172.736053,444.800781 150.205826,435.335419 
	C148.562424,451.579041 150.082565,454.074982 165.183029,458.810211 
	C178.801941,463.080841 192.773026,464.816528 207.935638,464.011414 
	C211.898880,463.664001 215.987076,463.818604 219.800583,462.869598 
	C229.075150,460.561554 238.312042,458.007294 247.361847,454.952942 
	C249.843781,454.115265 252.897202,451.453644 253.428055,449.115723 
	C254.405396,444.811584 253.707077,440.126953 253.707077,436.309113 
	C242.500046,439.009888 231.759964,441.598145 220.161575,444.109467 
M101.007469,410.313477 
	C77.086098,413.088959 53.750690,410.854950 30.954235,401.420746 
	C30.954235,403.633057 30.957092,405.121796 30.953787,406.610535 
	C30.927183,418.585785 31.688280,419.816803 42.871914,423.778381 
	C57.781982,429.059967 73.158188,431.091125 89.854530,430.077850 
	C93.992813,429.703918 98.269257,429.867828 102.241508,428.847504 
	C111.361961,426.504791 120.410591,423.806885 129.312180,420.741425 
	C131.502960,419.987000 134.209366,417.493378 134.597122,415.411530 
	C135.411438,411.039551 134.844345,406.410278 134.844345,402.549591 
	C123.481865,405.241669 112.711884,407.793396 101.007469,410.313477 
M101.189980,478.034332 
	C77.165489,480.980927 53.811119,478.515076 30.954205,468.836121 
	C30.954205,471.340942 30.954355,473.305603 30.954180,475.270264 
	C30.953203,486.179199 31.512018,487.152954 41.965771,491.056061 
	C56.809959,496.598450 72.202766,498.658051 88.884514,497.921387 
	C92.518578,497.602753 96.281975,497.779724 99.762215,496.871613 
	C109.799286,494.252594 119.804932,491.440857 129.625595,488.121063 
	C131.796143,487.387329 134.202682,484.455780 134.655533,482.170593 
	C135.469177,478.064758 134.885178,473.681976 134.885178,469.938751 
	C123.793938,472.705322 112.923309,475.416870 101.189980,478.034332 
M220.108322,307.860657 
	C196.113998,310.587830 172.733337,308.293762 149.854980,298.842499 
	C149.854980,301.121094 149.855515,302.930542 149.854919,304.739960 
	C149.851181,316.008484 150.422440,317.050262 161.024857,320.926453 
	C175.558334,326.239899 190.607956,328.392303 206.919876,327.754730 
	C210.064346,327.502686 213.310608,327.665436 216.334808,326.923279 
	C226.748749,324.367676 237.163452,321.747528 247.394409,318.562653 
	C249.865738,317.793335 252.911713,315.048767 253.444016,312.702209 
	C254.420120,308.399200 253.722168,303.716400 253.722168,299.854919 
	C242.452057,302.643066 231.734772,305.294464 220.108322,307.860657 
M326.855072,497.910797 
	C330.333649,497.602631 333.929382,497.753113 337.268799,496.900085 
	C347.197571,494.363739 357.104950,491.674164 366.834106,488.476715 
	C369.110870,487.728424 371.818573,484.975464 372.277924,482.726135 
	C373.146729,478.471954 372.529053,473.914246 372.529053,469.923920 
	C361.430328,472.719940 350.710266,475.420532 339.125092,478.025482 
	C315.067017,480.975220 291.649811,478.543457 268.705139,468.892670 
	C268.705139,471.982910 269.074158,474.365967 268.638153,476.591339 
	C267.137970,484.248718 271.312866,487.810486 277.674072,490.300568 
	C293.233673,496.391235 309.348480,498.653778 326.855072,497.910797 
M339.143219,444.100616 
	C315.177795,446.931824 291.798615,444.766510 268.707245,435.256287 
	C268.707245,438.666595 269.042053,441.494629 268.637939,444.212769 
	C267.782593,449.966187 270.436401,453.312042 275.422424,455.388763 
	C277.105194,456.089661 278.728607,456.948730 280.442413,457.557159 
	C296.826996,463.373596 313.708862,465.123505 331.812836,463.763184 
	C342.130920,461.443329 352.679443,459.838287 362.703857,456.607330 
	C373.229340,453.214844 375.601807,446.288696 371.916046,436.493073 
	C361.193359,439.073608 350.590820,441.625244 339.143219,444.100616 
M220.136703,478.038727 
	C196.109085,480.959808 172.737137,478.552155 149.854111,468.860687 
	C149.854111,471.909180 150.197906,474.446564 149.789200,476.856293 
	C148.595078,483.896698 152.016235,487.606140 158.165833,490.030090 
	C175.519669,496.870300 193.440689,499.226990 212.764771,497.548798 
	C214.584427,497.365631 216.470032,497.427612 218.212845,496.958801 
	C228.105682,494.297455 238.053558,491.779449 247.771194,488.571808 
	C250.165512,487.781464 252.943466,484.867493 253.481400,482.467285 
	C254.415482,478.299377 253.740982,473.770996 253.740982,469.939301 
	C242.485413,472.754791 231.738739,475.442993 220.136703,478.038727 
M101.152992,444.130432 
	C77.190407,446.891479 53.818138,444.792999 30.954882,435.174438 
	C30.954882,438.763397 31.316717,441.937866 30.874344,444.996002 
	C30.115494,450.242035 32.759197,453.064148 37.027351,455.035522 
	C39.133274,456.008240 41.215698,457.072418 43.401958,457.824127 
	C59.498245,463.358215 76.054573,465.101959 93.810120,463.788361 
	C96.280113,463.507080 98.836281,463.539581 101.204903,462.889160 
	C110.579689,460.314697 119.994087,457.809326 129.165482,454.621490 
	C131.502884,453.809021 134.100555,450.824646 134.637115,448.407257 
	C135.538635,444.345581 134.883896,439.938477 134.883896,436.314667 
	C123.762848,438.981171 112.875565,441.591614 101.152992,444.130432 
M102.962036,376.268921 
	C78.367401,379.696381 54.453766,376.950073 31.226267,367.776917 
	C30.035151,384.636536 31.128637,386.337860 46.721691,391.201721 
	C61.812393,395.908875 77.249496,397.487396 93.862061,396.014221 
	C97.000237,395.665009 100.256073,395.733246 103.254478,394.888123 
	C112.163399,392.377045 121.070076,389.776001 129.748245,386.586090 
	C131.905563,385.793121 134.192551,382.843903 134.662689,380.528931 
	C135.467178,376.567627 134.884750,372.324646 134.884750,368.410645 
	C124.343544,371.095673 114.115616,373.700897 102.962036,376.268921 
M214.798996,429.747345 
	C216.778549,429.495270 218.828323,429.489777 220.725754,428.949371 
	C229.947723,426.323059 239.219208,423.811920 248.260345,420.651245 
	C250.496552,419.869507 253.027191,417.041901 253.505463,414.753967 
	C254.356720,410.682037 253.744690,406.304138 253.744690,401.604462 
	C248.062103,403.497772 243.132233,405.396393 238.058609,406.760101 
	C232.773682,408.180603 227.350037,409.084961 221.151947,410.147339 
	C196.848862,413.172668 173.126556,411.025116 149.852829,401.452179 
	C149.852829,405.158783 150.193420,408.192017 149.778076,411.117950 
	C149.037552,416.334625 151.586349,419.239655 155.912048,421.209564 
	C157.421127,421.896790 158.920227,422.615753 160.465729,423.211700 
	C177.757141,429.879120 195.684433,431.288696 214.798996,429.747345 
M212.800842,361.742096 
	C215.110413,361.479584 217.499756,361.509094 219.715668,360.903778 
	C229.110519,358.337372 238.534927,355.823944 247.759644,352.728333 
	C250.096375,351.944153 253.002533,349.332031 253.432449,347.127930 
	C254.314285,342.606903 253.697205,337.793488 253.697205,333.590515 
	C242.366074,336.439545 231.660583,339.131256 220.044342,341.751648 
	C196.081467,344.488464 172.744675,341.946625 149.855179,332.739655 
	C149.855179,336.776428 150.189056,340.139557 149.776337,343.408478 
	C149.168411,348.223572 151.535339,350.905121 155.442688,352.780701 
	C157.688049,353.858551 159.929031,354.996704 162.276978,355.801392 
	C178.414520,361.332214 195.008255,363.102875 212.800842,361.742096 
M208.856873,396.203400 
	C210.518692,396.131866 212.189926,396.149231 213.840836,395.974579 
	C225.785965,394.710938 237.576218,392.680115 248.263794,386.863312 
	C250.495667,385.648560 253.073608,383.195038 253.499741,380.936462 
	C254.327408,376.549896 253.741959,371.896667 253.741959,368.045715 
	C242.530136,370.800507 231.778931,373.442108 220.146408,375.990234 
	C196.145233,378.724426 172.740860,376.577515 149.854553,367.011688 
	C149.854553,369.902557 150.230011,372.441254 149.785614,374.827271 
	C148.332047,382.631500 152.442596,386.470978 159.051102,388.946716 
	C174.843796,394.863251 191.099060,397.431274 208.856873,396.203400 
M334.215973,16.633799 
	C298.378723,13.647439 265.601074,22.643915 235.515045,41.982353 
	C166.437012,86.383720 141.308548,173.143005 175.989304,246.933640 
	C177.843597,250.879013 179.716690,252.537109 184.492981,252.068176 
	C193.747620,251.159576 203.133850,250.704697 212.414093,251.145432 
	C227.453094,251.859619 242.165787,254.595505 255.669922,261.837524 
	C264.502136,266.574066 269.161377,273.504059 268.827393,283.999664 
	C268.377106,298.150574 268.720001,312.326599 268.711792,326.491852 
	C268.710541,328.648315 268.453339,330.517944 271.450745,331.413696 
	C292.212280,337.618286 313.264008,341.057465 335.867188,339.032654 
	C378.047668,335.466736 413.251007,317.576263 440.815948,285.780975 
	C475.752228,245.483047 489.773468,198.698654 479.962433,145.790634 
	C473.485931,110.864952 455.550049,82.127388 429.696045,58.160828 
	C425.378754,54.158730 421.823212,50.310089 426.130859,43.887375 
	C418.218994,38.640179 410.677063,33.638321 403.243469,28.708315 
	C397.810089,34.049789 396.182190,34.291199 389.600677,31.348965 
	C372.184052,23.562912 354.215424,17.849346 334.215973,16.633799 
M37.511299,342.950897 
	C35.205959,344.621887 32.900623,346.292908 29.593771,348.689819 
	C33.813606,351.250305 36.674778,353.655518 39.974106,354.883331 
	C68.513901,365.504059 97.160271,365.522430 125.698570,354.891083 
	C129.085754,353.629303 132.000854,351.100311 135.134781,349.158691 
	C135.137390,348.529114 135.139999,347.899506 135.142593,347.269928 
	C131.315399,345.161713 127.661781,342.611115 123.628319,341.028625 
	C111.723373,336.357819 99.191124,334.863037 86.486504,334.833405 
	C80.802132,334.820129 76.194855,333.595276 75.093491,326.551971 
	C67.800842,327.405884 60.821869,328.071808 53.915375,329.186707 
	C52.816898,329.364044 52.058315,331.570557 51.117954,332.820374 
	C49.434280,335.058167 48.088238,337.753235 45.937378,339.379211 
	C43.772728,341.015594 40.799976,341.582977 37.511299,342.950897 
M173.860107,268.276337 
	C165.300552,270.865509 156.090683,272.125183 148.839172,280.486420 
	C153.387802,282.948730 157.015717,285.849487 161.125839,286.951141 
	C171.028610,289.605469 181.064011,292.250671 191.215164,293.384857 
	C208.760239,295.345154 226.094315,293.243561 242.686539,286.910553 
	C246.695923,285.380249 250.272446,282.715881 254.048035,280.573029 
	C254.051636,279.791779 254.055237,279.010529 254.058838,278.229279 
	C249.269104,275.862823 244.677475,272.898804 239.655212,271.233765 
	C218.335815,264.165741 196.600769,263.660004 173.860107,268.276337 
M290.665009,426.906464 
	C295.732941,427.790649 300.768951,429.000366 305.874481,429.501068 
	C325.112305,431.387817 344.099915,430.279907 362.241669,422.990387 
	C365.880066,421.528473 368.871887,418.457397 372.161835,416.128235 
	C368.769714,413.706024 365.700592,410.256561 361.920593,409.067993 
	C353.105042,406.296021 344.049530,403.775269 334.907379,402.660400 
	C315.887604,400.340973 297.049347,401.871002 279.032623,409.001190 
	C275.226624,410.507416 271.845703,413.087646 267.711090,415.498199 
	C274.428375,422.741180 282.359436,424.295807 290.665009,426.906464 
z"/>
<path fill="#FE5781" opacity="1.000000" stroke="none" 
	d="
M334.994781,338.896606 
	C313.264008,341.057465 292.212280,337.618286 271.450745,331.413696 
	C268.453339,330.517944 268.710541,328.648315 268.711792,326.491852 
	C268.720001,312.326599 268.377106,298.150574 268.827393,283.999664 
	C269.161377,273.504059 264.502136,266.574066 255.669922,261.837524 
	C242.165787,254.595505 227.453094,251.859619 212.414093,251.145432 
	C203.133850,250.704697 193.747620,251.159576 184.492981,252.068176 
	C179.716690,252.537109 177.843597,250.879013 175.989304,246.933640 
	C141.308548,173.143005 166.437012,86.383720 235.515045,41.982353 
	C265.601074,22.643915 298.378723,13.647439 334.855408,17.038639 
	C357.336456,24.942701 377.011322,36.279892 394.112885,51.743458 
	C413.513947,69.286255 428.331055,90.173836 438.267853,114.498993 
	C449.894928,142.962097 452.588745,172.542740 448.663452,202.670609 
	C445.869171,224.117569 438.580139,244.274948 427.536926,263.038635 
	C413.346191,287.150269 394.776398,307.083679 370.765472,321.397766 
	C359.402802,328.171600 346.952393,333.120758 334.994781,338.896606 
M355.682312,142.210983 
	C361.281372,133.947678 366.912659,125.705948 372.467438,117.412994 
	C375.828125,112.395729 375.466492,108.290794 371.582062,105.579262 
	C367.696167,102.866714 363.575897,104.038773 360.189667,108.824547 
	C359.805450,109.367554 359.443298,109.926163 359.069672,110.476692 
	C330.391449,152.734848 301.712433,194.992508 273.038300,237.253479 
	C272.292267,238.353027 271.500671,239.438354 270.900208,240.616867 
	C269.064270,244.220001 269.665222,247.555252 272.830261,249.969254 
	C276.194336,252.535034 279.726166,252.049042 282.783661,249.197495 
	C283.858276,248.195267 284.619751,246.842224 285.459473,245.605392 
	C308.726196,211.334976 331.984558,177.058884 355.682312,142.210983 
M293.185669,115.366631 
	C279.645691,98.806282 257.851654,101.168854 248.582565,120.463890 
	C242.532272,133.058517 242.775116,145.952042 249.127029,158.430481 
	C253.962128,167.929092 261.989105,173.403427 272.679230,173.523376 
	C282.681671,173.635590 290.113892,168.199127 294.945923,159.752060 
	C303.386475,144.996719 302.818481,130.274780 293.185669,115.366631 
M393.687073,195.925812 
	C381.846497,178.478027 360.807953,177.767975 349.430267,194.432129 
	C340.829285,207.029449 340.719116,226.081299 349.173706,238.804108 
	C360.627380,256.039978 382.198975,255.966827 393.142731,238.380707 
	C401.609314,224.775314 401.065643,210.668930 393.687073,195.925812 
z"/>
<path fill="#FE416F" opacity="1.000000" stroke="none" 
	d="
M335.430969,338.964630 
	C346.952393,333.120758 359.402802,328.171600 370.765472,321.397766 
	C394.776398,307.083679 413.346191,287.150269 427.536926,263.038635 
	C438.580139,244.274948 445.869171,224.117569 448.663452,202.670609 
	C452.588745,172.542740 449.894928,142.962097 438.267853,114.498993 
	C428.331055,90.173836 413.513947,69.286255 394.112885,51.743458 
	C377.011322,36.279892 357.336456,24.942701 335.238342,17.192806 
	C354.215424,17.849346 372.184052,23.562912 389.600677,31.348965 
	C396.182190,34.291199 397.810089,34.049789 403.243469,28.708315 
	C410.677063,33.638321 418.218994,38.640179 426.130859,43.887375 
	C421.823212,50.310089 425.378754,54.158730 429.696045,58.160828 
	C455.550049,82.127388 473.485931,110.864952 479.962433,145.790634 
	C489.773468,198.698654 475.752228,245.483047 440.815948,285.780975 
	C413.251007,317.576263 378.047668,335.466736 335.430969,338.964630 
z"/>
<path fill="#FCE262" opacity="1.000000" stroke="none" 
	d="
M37.846310,342.784851 
	C40.799976,341.582977 43.772728,341.015594 45.937378,339.379211 
	C48.088238,337.753235 49.434280,335.058167 51.117954,332.820374 
	C52.058315,331.570557 52.816898,329.364044 53.915375,329.186707 
	C60.821869,328.071808 67.800842,327.405884 75.093491,326.551971 
	C76.194855,333.595276 80.802132,334.820129 86.486504,334.833405 
	C99.191124,334.863037 111.723373,336.357819 123.628319,341.028625 
	C127.661781,342.611115 131.315399,345.161713 135.142593,347.269928 
	C135.139999,347.899506 135.137390,348.529114 135.134781,349.158691 
	C132.000854,351.100311 129.085754,353.629303 125.698570,354.891083 
	C97.160271,365.522430 68.513901,365.504059 39.974106,354.883331 
	C36.674778,353.655518 33.813606,351.250305 29.593771,348.689819 
	C32.900623,346.292908 35.205959,344.621887 37.846310,342.784851 
z"/>
<path fill="#FBB400" opacity="1.000000" stroke="none" 
	d="
M174.267731,268.188110 
	C196.600769,263.660004 218.335815,264.165741 239.655212,271.233765 
	C244.677475,272.898804 249.269104,275.862823 254.058838,278.229279 
	C254.055237,279.010529 254.051636,279.791779 254.048035,280.573029 
	C250.272446,282.715881 246.695923,285.380249 242.686539,286.910553 
	C226.094315,293.243561 208.760239,295.345154 191.215164,293.384857 
	C181.064011,292.250671 171.028610,289.605469 161.125839,286.951141 
	C157.015717,285.849487 153.387802,282.948730 148.839172,280.486420 
	C156.090683,272.125183 165.300552,270.865509 174.267731,268.188110 
z"/>
<path fill="#FCE362" opacity="1.000000" stroke="none" 
	d="
M290.263489,426.808044 
	C282.359436,424.295807 274.428375,422.741180 267.711090,415.498199 
	C271.845703,413.087646 275.226624,410.507416 279.032623,409.001190 
	C297.049347,401.871002 315.887604,400.340973 334.907379,402.660400 
	C344.049530,403.775269 353.105042,406.296021 361.920593,409.067993 
	C365.700592,410.256561 368.769714,413.706024 372.161835,416.128235 
	C368.871887,418.457397 365.880066,421.528473 362.241669,422.990387 
	C344.099915,430.279907 325.112305,431.387817 305.874481,429.501068 
	C300.768951,429.000366 295.732941,427.790649 290.263489,426.808044 
z"/>
<path fill="#FCE262" opacity="1.000000" stroke="none" 
	d="
M207.940582,396.038025 
	C191.099060,397.431274 174.843796,394.863251 159.051102,388.946716 
	C152.442596,386.470978 148.332047,382.631500 149.785614,374.827271 
	C150.230011,372.441254 149.854553,369.902557 149.854553,367.011688 
	C172.740860,376.577515 196.145233,378.724426 220.588623,376.477417 
	C222.198456,385.414093 218.409439,390.890442 210.810028,394.148315 
	C209.773926,394.592499 208.893234,395.399200 207.940582,396.038025 
z"/>
<path fill="#FCB500" opacity="1.000000" stroke="none" 
	d="
M211.975113,361.618347 
	C195.008255,363.102875 178.414520,361.332214 162.276978,355.801392 
	C159.929031,354.996704 157.688049,353.858551 155.442688,352.780701 
	C151.535339,350.905121 149.168411,348.223572 149.776337,343.408478 
	C150.189056,340.139557 149.855179,336.776428 149.855179,332.739655 
	C172.744675,341.946625 196.081467,344.488464 220.512680,342.243225 
	C221.941528,349.291718 219.730392,354.351746 214.124954,358.044281 
	C213.077911,358.734009 212.675186,360.401886 211.975113,361.618347 
z"/>
<path fill="#FBB400" opacity="1.000000" stroke="none" 
	d="
M213.977234,429.635773 
	C195.684433,431.288696 177.757141,429.879120 160.465729,423.211700 
	C158.920227,422.615753 157.421127,421.896790 155.912048,421.209564 
	C151.586349,419.239655 149.037552,416.334625 149.778076,411.117950 
	C150.193420,408.192017 149.852829,405.158783 149.852829,401.452179 
	C173.126556,411.025116 196.848862,413.172668 221.589096,410.549927 
	C223.249466,416.479980 220.837036,422.307800 216.207153,425.852661 
	C215.129852,426.677460 214.703232,428.352112 213.977234,429.635773 
z"/>
<path fill="#FCB500" opacity="1.000000" stroke="none" 
	d="
M92.993668,395.884369 
	C77.249496,397.487396 61.812393,395.908875 46.721691,391.201721 
	C31.128637,386.337860 30.035151,384.636536 31.226267,367.776917 
	C54.453766,376.950073 78.367401,379.696381 103.443260,376.736755 
	C103.558563,383.027222 101.313889,387.861969 96.713463,391.614288 
	C95.271744,392.790283 94.222549,394.447449 92.993668,395.884369 
z"/>
<path fill="#FCB500" opacity="1.000000" stroke="none" 
	d="
M92.979080,463.664703 
	C76.054573,465.101959 59.498245,463.358215 43.401958,457.824127 
	C41.215698,457.072418 39.133274,456.008240 37.027351,455.035522 
	C32.759197,453.064148 30.115494,450.242035 30.874344,444.996002 
	C31.316717,441.937866 30.954882,438.763397 30.954882,435.174438 
	C53.818138,444.792999 77.190407,446.891479 101.645912,444.530640 
	C103.794754,450.275726 101.795235,454.405365 97.966156,458.053772 
	C96.160774,459.773987 94.632774,461.785309 92.979080,463.664703 
z"/>
<path fill="#FCB500" opacity="1.000000" stroke="none" 
	d="
M211.958618,497.384674 
	C193.440689,499.226990 175.519669,496.870300 158.165833,490.030090 
	C152.016235,487.606140 148.595078,483.896698 149.789200,476.856293 
	C150.197906,474.446564 149.854111,471.909180 149.854111,468.860687 
	C172.737137,478.552155 196.109085,480.959808 220.568573,478.520996 
	C221.974152,485.633118 219.496796,490.576569 213.878937,494.176300 
	C212.939331,494.778351 212.583969,496.292175 211.958618,497.384674 
z"/>
<path fill="#FCB500" opacity="1.000000" stroke="none" 
	d="
M330.976196,463.642639 
	C313.708862,465.123505 296.826996,463.373596 280.442413,457.557159 
	C278.728607,456.948730 277.105194,456.089661 275.422424,455.388763 
	C270.436401,453.312042 267.782593,449.966187 268.637939,444.212769 
	C269.042053,441.494629 268.707245,438.666595 268.707245,435.256287 
	C291.798615,444.766510 315.177795,446.931824 339.569611,444.571899 
	C340.970306,451.574707 338.513397,456.445953 333.058411,460.085968 
	C332.030762,460.771667 331.653534,462.432037 330.976196,463.642639 
z"/>
<path fill="#FCE262" opacity="1.000000" stroke="none" 
	d="
M325.967804,497.776886 
	C309.348480,498.653778 293.233673,496.391235 277.674072,490.300568 
	C271.312866,487.810486 267.137970,484.248718 268.638153,476.591339 
	C269.074158,474.365967 268.705139,471.982910 268.705139,468.892670 
	C291.649811,478.543457 315.067017,480.975220 339.564331,478.509949 
	C341.460419,487.255554 336.907593,491.932495 330.257263,495.378204 
	C328.803467,496.131439 327.396393,496.974976 325.967804,497.776886 
z"/>
<path fill="#FCE362" opacity="1.000000" stroke="none" 
	d="
M206.070679,327.586365 
	C190.607956,328.392303 175.558334,326.239899 161.024857,320.926453 
	C150.422440,317.050262 149.851181,316.008484 149.854919,304.739960 
	C149.855515,302.930542 149.854980,301.121094 149.854980,298.842499 
	C172.733337,308.293762 196.113998,310.587830 220.567627,308.351196 
	C222.187271,316.142395 219.043884,321.190338 212.727386,324.501099 
	C210.563843,325.635132 208.292694,326.563843 206.070679,327.586365 
z"/>
<path fill="#FCE262" opacity="1.000000" stroke="none" 
	d="
M88.004578,497.785309 
	C72.202766,498.658051 56.809959,496.598450 41.965771,491.056061 
	C31.512018,487.152954 30.953203,486.179199 30.954180,475.270264 
	C30.954355,473.305603 30.954205,471.340942 30.954205,468.836121 
	C53.811119,478.515076 77.165489,480.980927 101.619041,478.517883 
	C103.248985,487.356445 99.021835,492.369934 91.870361,495.628632 
	C90.532066,496.238434 89.290680,497.060944 88.004578,497.785309 
z"/>
<path fill="#FCE262" opacity="1.000000" stroke="none" 
	d="
M88.944595,429.929718 
	C73.158188,431.091125 57.781982,429.059967 42.871914,423.778381 
	C31.688280,419.816803 30.927183,418.585785 30.953787,406.610535 
	C30.957092,405.121796 30.954235,403.633057 30.954235,401.420746 
	C53.750690,410.854950 77.086098,413.088959 101.493469,410.815491 
	C103.362366,419.517456 99.450363,424.606506 92.328087,427.865814 
	C91.135223,428.411682 90.069221,429.234741 88.944595,429.929718 
z"/>
<path fill="#FCE262" opacity="1.000000" stroke="none" 
	d="
M207.045135,463.879150 
	C192.773026,464.816528 178.801941,463.080841 165.183029,458.810211 
	C150.082565,454.074982 148.562424,451.579041 150.205826,435.335419 
	C172.736053,444.800781 196.151413,446.910339 220.591187,444.580658 
	C222.071686,452.350494 218.994278,457.424255 212.610489,460.753876 
	C210.724930,461.737305 208.898605,462.834229 207.045135,463.879150 
z"/>
<path fill="#F9D72D" opacity="1.000000" stroke="none" 
	d="
M208.398727,396.120728 
	C208.893234,395.399200 209.773926,394.592499 210.810028,394.148315 
	C218.409439,390.890442 222.198456,385.414093 221.029266,376.524170 
	C231.778931,373.442108 242.530136,370.800507 253.741959,368.045715 
	C253.741959,371.896667 254.327408,376.549896 253.499741,380.936462 
	C253.073608,383.195038 250.495667,385.648560 248.263794,386.863312 
	C237.576218,392.680115 225.785965,394.710938 213.840836,395.974579 
	C212.189926,396.149231 210.518692,396.131866 208.398727,396.120728 
z"/>
<path fill="#EFAC00" opacity="1.000000" stroke="none" 
	d="
M212.387970,361.680237 
	C212.675186,360.401886 213.077911,358.734009 214.124954,358.044281 
	C219.730392,354.351746 221.941528,349.291718 220.968048,342.278870 
	C231.660583,339.131256 242.366074,336.439545 253.697205,333.590515 
	C253.697205,337.793488 254.314285,342.606903 253.432449,347.127930 
	C253.002533,349.332031 250.096375,351.944153 247.759644,352.728333 
	C238.534927,355.823944 229.110519,358.337372 219.715668,360.903778 
	C217.499756,361.509094 215.110413,361.479584 212.387970,361.680237 
z"/>
<path fill="#F8D62D" opacity="1.000000" stroke="none" 
	d="
M326.411438,497.843842 
	C327.396393,496.974976 328.803467,496.131439 330.257263,495.378204 
	C336.907593,491.932495 341.460419,487.255554 339.996887,478.557800 
	C350.710266,475.420532 361.430328,472.719940 372.529053,469.923920 
	C372.529053,473.914246 373.146729,478.471954 372.277924,482.726135 
	C371.818573,484.975464 369.110870,487.728424 366.834106,488.476715 
	C357.104950,491.674164 347.197571,494.363739 337.268799,496.900085 
	C333.929382,497.753113 330.333649,497.602631 326.411438,497.843842 
z"/>
<path fill="#F9D72D" opacity="1.000000" stroke="none" 
	d="
M207.490387,463.945282 
	C208.898605,462.834229 210.724930,461.737305 212.610489,460.753876 
	C218.994278,457.424255 222.071686,452.350494 221.020340,444.619141 
	C231.759964,441.598145 242.500046,439.009888 253.707077,436.309113 
	C253.707077,440.126953 254.405396,444.811584 253.428055,449.115723 
	C252.897202,451.453644 249.843781,454.115265 247.361847,454.952942 
	C238.312042,458.007294 229.075150,460.561554 219.800583,462.869598 
	C215.987076,463.818604 211.898880,463.664001 207.490387,463.945282 
z"/>
<path fill="#FAD72D" opacity="1.000000" stroke="none" 
	d="
M88.444550,497.853333 
	C89.290680,497.060944 90.532066,496.238434 91.870361,495.628632 
	C99.021835,492.369934 103.248985,487.356445 102.050400,478.564911 
	C112.923309,475.416870 123.793938,472.705322 134.885178,469.938751 
	C134.885178,473.681976 135.469177,478.064758 134.655533,482.170593 
	C134.202682,484.455780 131.796143,487.387329 129.625595,488.121063 
	C119.804932,491.440857 109.799286,494.252594 99.762215,496.871613 
	C96.281975,497.779724 92.518578,497.602753 88.444550,497.853333 
z"/>
<path fill="#F7D52D" opacity="1.000000" stroke="none" 
	d="
M206.495270,327.670532 
	C208.292694,326.563843 210.563843,325.635132 212.727386,324.501099 
	C219.043884,321.190338 222.187271,316.142395 221.022202,308.393799 
	C231.734772,305.294464 242.452057,302.643066 253.722168,299.854919 
	C253.722168,303.716400 254.420120,308.399200 253.444016,312.702209 
	C252.911713,315.048767 249.865738,317.793335 247.394409,318.562653 
	C237.163452,321.747528 226.748749,324.367676 216.334808,326.923279 
	C213.310608,327.665436 210.064346,327.502686 206.495270,327.670532 
z"/>
<path fill="#EFAB00" opacity="1.000000" stroke="none" 
	d="
M331.394531,463.702911 
	C331.653534,462.432037 332.030762,460.771667 333.058411,460.085968 
	C338.513397,456.445953 340.970306,451.574707 339.992157,444.610046 
	C350.590820,441.625244 361.193359,439.073608 371.916046,436.493073 
	C375.601807,446.288696 373.229340,453.214844 362.703857,456.607330 
	C352.679443,459.838287 342.130920,461.443329 331.394531,463.702911 
z"/>
<path fill="#FAD72D" opacity="1.000000" stroke="none" 
	d="
M89.399567,430.003784 
	C90.069221,429.234741 91.135223,428.411682 92.328087,427.865814 
	C99.450363,424.606506 103.362366,419.517456 101.960678,410.831299 
	C112.711884,407.793396 123.481865,405.241669 134.844345,402.549591 
	C134.844345,406.410278 135.411438,411.039551 134.597122,415.411530 
	C134.209366,417.493378 131.502960,419.987000 129.312180,420.741425 
	C120.410591,423.806885 111.361961,426.504791 102.241508,428.847504 
	C98.269257,429.867828 93.992813,429.703918 89.399567,430.003784 
z"/>
<path fill="#F0AC00" opacity="1.000000" stroke="none" 
	d="
M212.361694,497.466736 
	C212.583969,496.292175 212.939331,494.778351 213.878937,494.176300 
	C219.496796,490.576569 221.974152,485.633118 220.996246,478.567261 
	C231.738739,475.442993 242.485413,472.754791 253.740982,469.939301 
	C253.740982,473.770996 254.415482,478.299377 253.481400,482.467285 
	C252.943466,484.867493 250.165512,487.781464 247.771194,488.571808 
	C238.053558,491.779449 228.105682,494.297455 218.212845,496.958801 
	C216.470032,497.427612 214.584427,497.365631 212.361694,497.466736 
z"/>
<path fill="#F0AC00" opacity="1.000000" stroke="none" 
	d="
M93.394600,463.726532 
	C94.632774,461.785309 96.160774,459.773987 97.966156,458.053772 
	C101.795235,454.405365 103.794754,450.275726 102.063553,444.566467 
	C112.875565,441.591614 123.762848,438.981171 134.883896,436.314667 
	C134.883896,439.938477 135.538635,444.345581 134.637115,448.407257 
	C134.100555,450.824646 131.502884,453.809021 129.165482,454.621490 
	C119.994087,457.809326 110.579689,460.314697 101.204903,462.889160 
	C98.836281,463.539581 96.280113,463.507080 93.394600,463.726532 
z"/>
<path fill="#F0AD00" opacity="1.000000" stroke="none" 
	d="
M93.427872,395.949280 
	C94.222549,394.447449 95.271744,392.790283 96.713463,391.614288 
	C101.313889,387.861969 103.558563,383.027222 103.906090,376.755371 
	C114.115616,373.700897 124.343544,371.095673 134.884750,368.410645 
	C134.884750,372.324646 135.467178,376.567627 134.662689,380.528931 
	C134.192551,382.843903 131.905563,385.793121 129.748245,386.586090 
	C121.070076,389.776001 112.163399,392.377045 103.254478,394.888123 
	C100.256073,395.733246 97.000237,395.665009 93.427872,395.949280 
z"/>
<path fill="#EFAC00" opacity="1.000000" stroke="none" 
	d="
M214.388123,429.691559 
	C214.703232,428.352112 215.129852,426.677460 216.207153,425.852661 
	C220.837036,422.307800 223.249466,416.479980 222.006653,410.583740 
	C227.350037,409.084961 232.773682,408.180603 238.058609,406.760101 
	C243.132233,405.396393 248.062103,403.497772 253.744690,401.604462 
	C253.744690,406.304138 254.356720,410.682037 253.505463,414.753967 
	C253.027191,417.041901 250.496552,419.869507 248.260345,420.651245 
	C239.219208,423.811920 229.947723,426.323059 220.725754,428.949371 
	C218.828323,429.489777 216.778549,429.495270 214.388123,429.691559 
z"/>
<path fill="#050202" opacity="1.000000" stroke="none" 
	d="
M355.463318,142.497360 
	C331.984558,177.058884 308.726196,211.334976 285.459473,245.605392 
	C284.619751,246.842224 283.858276,248.195267 282.783661,249.197495 
	C279.726166,252.049042 276.194336,252.535034 272.830261,249.969254 
	C269.665222,247.555252 269.064270,244.220001 270.900208,240.616867 
	C271.500671,239.438354 272.292267,238.353027 273.038300,237.253479 
	C301.712433,194.992508 330.391449,152.734848 359.069672,110.476692 
	C359.443298,109.926163 359.805450,109.367554 360.189667,108.824547 
	C363.575897,104.038773 367.696167,102.866714 371.582062,105.579262 
	C375.466492,108.290794 375.828125,112.395729 372.467438,117.412994 
	C366.912659,125.705948 361.281372,133.947678 355.463318,142.497360 
z"/>
<path fill="#050202" opacity="1.000000" stroke="none" 
	d="
M293.411194,115.647064 
	C302.818481,130.274780 303.386475,144.996719 294.945923,159.752060 
	C290.113892,168.199127 282.681671,173.635590 272.679230,173.523376 
	C261.989105,173.403427 253.962128,167.929092 249.127029,158.430481 
	C242.775116,145.952042 242.532272,133.058517 248.582565,120.463890 
	C257.851654,101.168854 279.645691,98.806282 293.411194,115.647064 
M285.822327,138.565277 
	C284.047455,133.497543 283.133331,127.870049 280.289703,123.497383 
	C276.334442,117.415398 269.487244,117.741417 264.668732,123.167877 
	C257.363861,131.394379 257.463654,146.818314 264.873810,154.864197 
	C269.470184,159.854935 276.084595,160.353714 279.827728,154.804886 
	C282.829376,150.355225 283.895599,144.599976 285.822327,138.565277 
z"/>
<path fill="#040102" opacity="1.000000" stroke="none" 
	d="
M393.858826,196.251617 
	C401.065643,210.668930 401.609314,224.775314 393.142731,238.380707 
	C382.198975,255.966827 360.627380,256.039978 349.173706,238.804108 
	C340.719116,226.081299 340.829285,207.029449 349.430267,194.432129 
	C360.807953,177.767975 381.846497,178.478027 393.858826,196.251617 
M369.122711,197.420380 
	C358.293823,199.873566 353.300110,220.858658 363.046631,232.425308 
	C367.868256,238.147415 374.309570,238.071121 379.198853,232.312592 
	C385.341248,225.078186 385.995880,211.531448 380.510162,203.317947 
	C378.002319,199.563049 374.807739,196.826721 369.122711,197.420380 
z"/>
<path fill="#FA557E" opacity="1.000000" stroke="none" 
	d="
M285.821533,138.994690 
	C283.895599,144.599976 282.829376,150.355225 279.827728,154.804886 
	C276.084595,160.353714 269.470184,159.854935 264.873810,154.864197 
	C257.463654,146.818314 257.363861,131.394379 264.668732,123.167877 
	C269.487244,117.741417 276.334442,117.415398 280.289703,123.497383 
	C283.133331,127.870049 284.047455,133.497543 285.821533,138.994690 
z"/>
<path fill="#FB567F" opacity="1.000000" stroke="none" 
	d="
M369.495483,197.331146 
	C374.807739,196.826721 378.002319,199.563049 380.510162,203.317947 
	C385.995880,211.531448 385.341248,225.078186 379.198853,232.312592 
	C374.309570,238.071121 367.868256,238.147415 363.046631,232.425308 
	C353.300110,220.858658 358.293823,199.873566 369.495483,197.331146 
z"/>
</svg>